<svg width="141" height="141" viewBox="0 0 141 141" fill="none" xmlns="http://www.w3.org/2000/svg">
<path d="M139 70.5C139 108.618 108.321 139.5 70.5 139.5C32.6785 139.5 2 108.618 2 70.5C2 32.3823 32.6785 1.5 70.5 1.5C108.321 1.5 139 32.3823 139 70.5Z" fill="white" stroke="#FF9F35" stroke-width="3"/>
<circle cx="70.5" cy="71" r="61" fill="white" stroke="#FF9F35" stroke-width="2" stroke-dasharray="4 4"/>
<path d="M68.5125 37H42.4875C40.5576 37 39 38.5147 39 40.3913V96.6087C39 98.4853 40.5576 100 42.4875 100H68.5125C70.4424 100 72 98.4853 72 96.6087V40.3913C72 38.5147 70.4424 37 68.5125 37Z" fill="#FF9F35"/>
<path d="M60.3872 44H50.6128C50.6128 44.6043 50.4935 45.2026 50.2617 45.7609C50.0299 46.3192 49.6901 46.8265 49.2617 47.2537C48.8334 47.681 48.3249 48.02 47.7652 48.2512C47.2056 48.4825 46.6058 48.6015 46 48.6015V88.3985C46.6058 88.3985 47.2056 88.5175 47.7652 88.7488C48.3249 88.98 48.8334 89.319 49.2617 89.7463C49.6901 90.1735 50.0299 90.6808 50.2617 91.2391C50.4935 91.7974 50.6128 92.3957 50.6128 93H60.3872C60.3872 92.3957 60.5065 91.7974 60.7383 91.2391C60.9701 90.6808 61.3099 90.1735 61.7383 89.7463C62.1666 89.319 62.6751 88.98 63.2348 88.7488C63.7944 88.5175 64.3942 88.3985 65 88.3985V48.6015C64.3942 48.6015 63.7944 48.4825 63.2348 48.2512C62.6751 48.02 62.1666 47.681 61.7383 47.2537C61.3099 46.8265 60.9701 46.3192 60.7383 45.7609C60.5065 45.2026 60.3872 44.6043 60.3872 44Z" fill="white"/>
<path d="M55.5 73C58.5376 73 61 70.5376 61 67.5C61 64.4624 58.5376 62 55.5 62C52.4624 62 50 64.4624 50 67.5C50 70.5376 52.4624 73 55.5 73Z" fill="#FFC585"/>
<path d="M95.1168 69.7072C93.5625 69.7049 92.0379 69.2833 90.7049 68.4871C89.3719 67.691 88.2803 66.5501 87.5461 65.1856L84.3792 59.2697C83.7239 58.0379 82.6771 57.0572 81.4026 56.4809L71.6573 52V74.513H61.3547C58.8674 74.513 56.883 76.5843 57.0054 79.0752C57.1277 81.4172 59.2344 83.1771 61.5994 83.1771H75.4494C76.7814 83.1771 78.0998 83.5561 79.228 84.2601L86.6219 88.917C87.75 89.6345 89.0548 90 90.4004 90H103V69.7072H95.1168Z" fill="#F8D1B4"/>
<path d="M55.5 52C56.3284 52 57 51.5523 57 51C57 50.4477 56.3284 50 55.5 50C54.6716 50 54 50.4477 54 51C54 51.5523 54.6716 52 55.5 52Z" fill="#FFC585"/>
<path d="M55.5 87C56.3284 87 57 86.5523 57 86C57 85.4477 56.3284 85 55.5 85C54.6716 85 54 85.4477 54 86C54 86.5523 54.6716 87 55.5 87Z" fill="#FFC585"/>
<path d="M72 62L76.7451 65.6011L79 75H72V62Z" fill="#EAB794"/>
</svg>
