<svg width="141" height="140" viewBox="0 0 141 140" fill="none" xmlns="http://www.w3.org/2000/svg">
<circle cx="70.5" cy="70" r="68.5" fill="white" stroke="#E14956" stroke-width="3"/>
<circle cx="70.5" cy="70" r="61" fill="white" stroke="#E14956" stroke-width="2" stroke-dasharray="4 4"/>
<path d="M70.3907 85.0625L52.7486 102.705C52.015 103.438 50.7584 102.978 50.6725 101.944L49.6719 89.9375L37.6654 88.9369C36.6313 88.851 36.1712 87.5945 36.9049 86.8608L54.5469 69.2188L70.3907 85.0625Z" fill="#789AF9"/>
<path d="M66.4297 81.1016L58.5078 73.1797L54.5469 69.2188L46.3203 77.4453C47.3623 78.4142 48.6238 79.1333 50.0314 79.5294C50.5396 79.6732 50.9711 79.9998 51.2581 80.4294L42.3594 89.3281L49.6719 89.9375L50.2812 97.25L59.8576 87.6737C60.0105 87.6816 60.1641 87.6889 60.3177 87.6889C61.0733 87.6889 61.8289 87.5914 62.5662 87.4086C62.7369 87.3659 62.9136 87.3416 63.0903 87.3416C63.6692 87.3416 64.2359 87.567 64.6381 87.9631C65.1256 88.4445 65.668 88.8589 66.2408 89.2123L70.3906 85.0625L66.4297 81.1016Z" fill="#5A7AED"/>
<path d="M104.335 88.9369L92.3281 89.9375L91.3275 101.944C91.2416 102.978 89.9851 103.438 89.2514 102.705L71.6094 85.0625L87.4531 69.2188L105.095 86.8608C105.829 87.5945 105.369 88.851 104.335 88.9369Z" fill="#789AF9"/>
<path d="M90.7419 80.4294C91.0295 79.9998 91.4604 79.6738 91.9686 79.5294C93.3763 79.1333 94.6377 78.4142 95.6797 77.4453L87.4531 69.2188L83.4922 73.1797L75.5703 81.1016L71.6094 85.0625L75.7592 89.2123C76.332 88.8589 76.8744 88.4445 77.3619 87.9631C77.7641 87.567 78.3308 87.3416 78.9097 87.3416C79.0864 87.3416 79.2631 87.3659 79.4337 87.4086C80.1711 87.5914 80.9267 87.6889 81.6823 87.6889C81.8359 87.6889 81.9895 87.6816 82.1424 87.6737L91.7188 97.25L92.3281 89.9375L99.6406 89.3281L90.7419 80.4294Z" fill="#5A7AED"/>
<path d="M97.5761 65.1634C96.6065 66.1597 96.2165 67.6155 96.5578 68.9634C97.0075 70.741 96.7942 72.6855 95.8022 74.399C94.8138 76.1132 93.2343 77.2704 91.4707 77.7701C90.135 78.1485 89.0698 79.2131 88.692 80.5489C88.1929 82.3124 87.0351 83.8919 85.3209 84.8803C83.6074 85.8724 81.6628 86.0863 79.8853 85.6359C78.538 85.2947 77.0816 85.6853 76.0852 86.6542C74.772 87.9314 72.9799 88.7188 71 88.7188C69.0201 88.7188 67.228 87.9314 65.9148 86.6542C64.9184 85.6847 63.4626 85.2947 62.1147 85.6359C60.3372 86.0856 58.3926 85.8724 56.6791 84.8803C54.9649 83.8919 53.8077 82.3124 53.308 80.5489C52.9296 79.2131 51.865 78.1479 50.5293 77.7701C48.7657 77.271 47.1862 76.1132 46.1978 74.399C45.2058 72.6855 44.9919 70.741 45.4422 68.9634C45.7835 67.6161 45.3928 66.1597 44.4239 65.1634C43.1467 63.8502 42.3594 62.058 42.3594 60.0781C42.3594 58.0983 43.1467 56.3061 44.4239 54.9929C45.3935 53.9966 45.7835 52.5408 45.4422 51.1928C44.9925 49.4153 45.2058 47.4708 46.1978 45.7572C47.1862 44.043 48.7657 42.8858 50.5293 42.3861C51.865 42.0077 52.9302 40.9431 53.308 39.6074C53.8071 37.8439 54.9649 36.2644 56.6791 35.276C58.3926 34.2839 60.3372 34.07 62.1147 34.5203C63.462 34.8616 64.9184 34.471 65.9148 33.5021C67.228 32.2248 69.0201 31.4375 71 31.4375C72.9799 31.4375 74.772 32.2248 76.0852 33.5021C77.0816 34.4716 78.5374 34.8616 79.8853 34.5203C81.6628 34.0706 83.6074 34.2839 85.3209 35.276C87.0351 36.2644 88.1923 37.8439 88.692 39.6074C89.0704 40.9431 90.135 42.0083 91.4707 42.3861C93.2343 42.8852 94.8138 44.043 95.8022 45.7572C96.7942 47.4708 97.0081 49.4153 96.5578 51.1928C96.2165 52.5402 96.6072 53.9966 97.5761 54.9929C98.8533 56.3061 99.6406 58.0983 99.6406 60.0781C99.6406 62.058 98.8533 63.8502 97.5761 65.1634Z" fill="#FBC96E"/>
<path d="M71 82.0156C83.1157 82.0156 92.9375 72.1939 92.9375 60.0781C92.9375 47.9624 83.1157 38.1406 71 38.1406C58.8843 38.1406 49.0625 47.9624 49.0625 60.0781C49.0625 72.1939 58.8843 82.0156 71 82.0156Z" fill="#FAB342"/>
<path d="M71 76.5312C80.0868 76.5312 87.4531 69.1649 87.4531 60.0781C87.4531 50.9913 80.0868 43.625 71 43.625C61.9132 43.625 54.5469 50.9913 54.5469 60.0781C54.5469 69.1649 61.9132 76.5312 71 76.5312Z" fill="#FBC96E"/>
<g style="mix-blend-mode:soft-light">
<path d="M70.0099 58.3489C70.0083 58.3478 70.0066 58.3467 70.0049 58.3457C69.9795 58.3294 69.9538 58.3136 69.9277 58.2981C69.926 58.2971 69.9243 58.296 69.9225 58.295C69.8949 58.2787 69.8671 58.2626 69.8388 58.2472C69.4872 58.0558 69.1002 57.9586 68.6781 57.9552C68.6094 58.0537 68.5439 58.1517 68.4825 58.2485C67.8769 59.2035 67.34 60.3003 67.4329 61.7938C67.4904 62.7199 67.8191 63.4058 68.2879 64.0645C68.2886 64.0646 68.2893 64.0648 68.29 64.0649C68.3058 64.0678 68.3216 64.0705 68.3375 64.0732C68.3473 64.0748 68.3571 64.0763 68.3669 64.0778C68.3927 64.0818 68.4186 64.0854 68.4446 64.0886C68.4542 64.0898 68.4638 64.0911 68.4735 64.0921C68.4899 64.094 68.5062 64.0958 68.5227 64.0973C68.523 64.0974 68.5232 64.0974 68.5235 64.0974V64.0974C68.5235 64.0974 68.5236 64.0974 68.5237 64.0974C68.0985 62.1452 69.0326 60.4842 69.9519 59.3214C70.1156 59.1144 70.2851 58.9116 70.4603 58.7139C70.324 58.576 70.1739 58.4543 70.0099 58.3489Z" fill="white"/>
<path d="M64.6228 61.1075C64.6227 61.1072 64.6227 61.1068 64.6227 61.1064C64.6226 61.1092 64.6225 61.1119 64.6223 61.1147C64.6225 61.1123 64.6226 61.1099 64.6228 61.1075Z" fill="white"/>
<path d="M74.78 59.7416C75.2886 59.3327 75.8491 58.8187 76.3427 58.2256C76.912 57.5415 77.7721 56.3183 77.2057 55.1934C76.6442 54.0782 75.0795 53.9456 73.6371 54.2604C72.4021 54.5299 71.3624 55.1319 70.605 55.7998C70.2863 56.0808 69.9276 56.4382 69.5794 56.8272C69.5907 56.8307 69.6023 56.8337 69.6136 56.8373C69.9378 56.9405 70.2668 57.1064 70.6005 57.335L70.6006 57.3348C70.6006 57.3348 70.6006 57.3348 70.6007 57.3349L70.7817 56.8176L71.3103 56.8136L71.5352 57.6384C71.5353 57.6383 71.5353 57.6383 71.5354 57.6382L71.5354 57.6384C72.3352 56.9346 73.2345 56.3459 74.2436 55.9397C74.1541 55.143 73.2385 55.1722 72.401 55.1234C73.4801 54.9743 74.8711 54.969 74.5468 56.2196C74.4255 56.6877 74.1063 57.1227 73.8238 57.5258C73.3 58.273 72.6847 58.954 72.055 59.5915L72.175 60.033L71.6521 60.1792C71.652 60.1788 71.6518 60.1786 71.6517 60.1782L71.3846 60.2529C71.3111 60.3239 71.2379 60.3945 71.1649 60.4647C71.0997 60.5272 70.9474 60.584 70.9783 60.6979C72.5364 60.8957 74.3489 61.9781 73.5906 63.7768C74.4816 63.1034 75.1899 62.1285 75.0834 60.5346C75.6083 62.6732 74.3474 64.0348 73.0541 64.8264C71.9401 65.5083 70.6311 66.0294 69.0657 65.9226C67.7509 65.833 66.7307 65.3615 66.0111 64.5805C65.9842 64.5572 65.9574 64.5336 65.9309 64.5093C65.9304 64.5088 65.9298 64.5082 65.9293 64.5078C65.7995 64.3889 65.6754 64.2591 65.5568 64.1182C65.3403 63.8605 65.161 63.5861 65.019 63.2947C65.0189 63.2945 65.0188 63.2943 65.0187 63.294C65.0061 63.2681 64.9937 63.2421 64.9817 63.216C64.981 63.2144 64.9803 63.2129 64.9796 63.2113C64.9682 63.1865 64.9571 63.1615 64.9462 63.1364C64.945 63.1337 64.9439 63.1308 64.9427 63.1281C64.9324 63.1042 64.9223 63.0803 64.9125 63.0561C64.911 63.0523 64.9095 63.0484 64.9079 63.0445C64.8986 63.0214 64.8895 62.9983 64.8807 62.975C64.8788 62.9701 64.877 62.9653 64.8752 62.9604C64.8668 62.9381 64.8586 62.9157 64.8506 62.8931C64.8486 62.8873 64.8466 62.8815 64.8445 62.8758C64.837 62.8541 64.8295 62.8323 64.8223 62.8105C64.8201 62.8039 64.818 62.7972 64.8159 62.7906C64.809 62.7695 64.8023 62.7483 64.7958 62.727C64.7936 62.7196 64.7913 62.7121 64.7891 62.7046C64.783 62.6841 64.777 62.6635 64.7712 62.6428C64.7689 62.6346 64.7666 62.6264 64.7643 62.6181C64.7588 62.598 64.7534 62.5779 64.7482 62.5577C64.7459 62.5488 64.7437 62.5399 64.7414 62.531C64.7365 62.5114 64.7317 62.4917 64.7271 62.4719C64.7249 62.4624 64.7226 62.4528 64.7205 62.4432C64.7161 62.424 64.7119 62.4047 64.7078 62.3854C64.7056 62.3751 64.7035 62.365 64.7014 62.3547C64.6975 62.3359 64.6938 62.317 64.6902 62.298C64.6882 62.2871 64.6861 62.2763 64.6842 62.2655C64.6808 62.247 64.6776 62.2285 64.6744 62.2098C64.6725 62.1984 64.6706 62.187 64.6688 62.1755C64.6659 62.1574 64.6631 62.1391 64.6604 62.1208C64.6587 62.1089 64.657 62.0969 64.6553 62.0849C64.6528 62.067 64.6505 62.049 64.6482 62.031C64.6467 62.0185 64.6451 62.0062 64.6436 61.9937C64.6416 61.9759 64.6396 61.9581 64.6378 61.9402C64.6364 61.9274 64.6351 61.9145 64.6338 61.9017C64.6321 61.884 64.6306 61.8664 64.6291 61.8487C64.628 61.8355 64.6269 61.8223 64.6259 61.809C64.6245 61.7914 64.6234 61.7738 64.6223 61.7561C64.6214 61.7427 64.6205 61.7291 64.6197 61.7155C64.6187 61.6979 64.6179 61.6802 64.6172 61.6626C64.6165 61.6488 64.6159 61.6351 64.6154 61.6213C64.6148 61.6036 64.6143 61.5859 64.6139 61.5682C64.6135 61.5542 64.6131 61.5404 64.6129 61.5264C64.6128 61.5221 64.6128 61.5176 64.6128 61.5132C64.5897 65.009 66.5453 67.034 69.9287 67.2518C71.8965 67.3786 73.6684 66.816 74.9667 66.0156C76.1181 65.3059 77.5111 64.0469 77.3692 62.0971C77.2616 60.6209 76.1824 59.9799 74.78 59.7416Z" fill="white"/>
<path d="M70.7804 57.1642H71.1854L71.8983 59.7791L71.3754 59.9253C71.0942 59.3217 70.8806 58.9168 70.7344 58.7106C70.4944 58.377 70.1954 58.1127 69.8375 57.9178C69.4794 57.7229 69.0848 57.6254 68.6538 57.6254C68.1477 57.6254 67.6818 57.7614 67.2564 58.0334C66.8309 58.3054 66.486 58.7041 66.2217 59.2293C65.9574 59.7545 65.8253 60.3456 65.8253 61.0022C65.8253 61.6775 65.9593 62.2797 66.2273 62.8087C66.4953 63.3377 66.858 63.7447 67.3154 64.03C67.7728 64.3152 68.2658 64.4577 68.7943 64.4577C69.2929 64.4577 69.8028 64.3148 70.3239 64.0288C70.8449 63.7429 71.2967 63.3423 71.6791 62.8269L72.1289 63.1362C71.8964 63.4812 71.6453 63.7736 71.3754 64.0135C70.948 64.3996 70.5037 64.6846 70.0427 64.8682C69.5815 65.0519 69.0754 65.1437 68.5244 65.1437C67.306 65.1437 66.3163 64.692 65.5553 63.7885C64.9255 63.0387 64.6106 62.1465 64.6106 61.1118C64.6106 60.3509 64.7849 59.662 65.1335 59.0453C65.4822 58.4287 65.963 57.9385 66.5759 57.5748C67.1888 57.2112 67.8496 57.0293 68.5581 57.0293C68.9367 57.0293 69.2882 57.0809 69.6125 57.1839C69.9367 57.2871 70.2657 57.453 70.5994 57.6816L70.7804 57.1642Z" fill="white"/>
</g>
</svg>
