<svg width="50" height="50" viewBox="0 0 50 50" fill="none" xmlns="http://www.w3.org/2000/svg">
<rect x="0.0629883" y="0.158203" width="49.0631" height="49.8091" rx="24.5316" fill="url(#paint0_linear_546_2691)"/>
<path d="M38.2726 26.2269C38.2726 27.8863 37.9901 29.4566 37.4252 30.9376C36.8603 32.4186 36.0791 33.739 35.0817 34.8988C34.0843 36.0586 32.9148 37.0311 31.5731 37.8162C30.2138 38.5835 28.7574 39.092 27.2039 39.3418V30.0811H30.2491L30.8317 26.2269H27.2039V23.7378C27.2039 23.2203 27.354 22.7475 27.6541 22.3192C27.9542 21.891 28.5103 21.6768 29.3223 21.6768H30.9906V18.4115C30.9906 18.4115 30.6816 18.3669 30.0638 18.2777C29.4459 18.1885 28.7751 18.1439 28.0513 18.1439C26.5507 18.1439 25.3459 18.5899 24.4368 19.4821C23.5276 20.3743 23.073 21.6501 23.073 23.3095V26.2269H19.7366V30.0811H23.073V39.3418C21.5195 39.092 20.0631 38.5835 18.7038 37.8162C17.3622 37.0311 16.1926 36.0586 15.1952 34.8988C14.1978 33.739 13.4167 32.4186 12.8518 30.9376C12.2868 29.4566 12.0044 27.8863 12.0044 26.2269C12.0044 24.4069 12.3486 22.685 13.0371 21.0613C13.7256 19.4553 14.6656 18.0502 15.8572 16.8458C17.0488 15.6413 18.439 14.6912 20.0278 13.9953C21.6166 13.2994 23.3202 12.9514 25.1385 12.9514C26.9568 12.9514 28.6603 13.2994 30.2491 13.9953C31.8379 14.6912 33.2281 15.6413 34.4197 16.8458C35.6113 18.0502 36.5514 19.4553 37.2398 21.0613C37.9283 22.685 38.2726 24.4069 38.2726 26.2269Z" fill="white"/>
<defs>
<linearGradient id="paint0_linear_546_2691" x1="0.0629883" y1="25.0628" x2="49.1261" y2="25.0628" gradientUnits="userSpaceOnUse">
<stop stop-color="#EFA94A"/>
<stop offset="1" stop-color="#FF5E63"/>
</linearGradient>
</defs>
</svg>
