<svg width="40" height="33" viewBox="0 0 40 33" fill="none" xmlns="http://www.w3.org/2000/svg">
<path d="M21.0148 6.41354C21.0883 5.39497 21.4247 4.41288 21.9911 3.56312C22.5575 2.71336 23.3345 2.02498 24.2464 1.56517C25.1582 1.10537 26.1737 0.889844 27.1937 0.939646C28.2137 0.989447 29.2034 1.30287 30.0661 1.84932C30.1647 1.91386 30.2442 2.00377 30.296 2.10961C30.3479 2.21545 30.3703 2.33331 30.361 2.4508C30.3516 2.5683 30.3107 2.6811 30.2426 2.77734C30.1746 2.87359 30.0819 2.94972 29.9742 2.99776C28.4745 3.6725 27.2014 4.76585 26.308 6.1465C25.4145 7.52714 24.9386 9.13636 24.9375 10.7809C24.9375 10.9728 24.9375 11.1648 24.9572 11.3535C24.9662 11.4727 24.9425 11.5922 24.8886 11.6989C24.8347 11.8057 24.7526 11.8957 24.6513 11.9592C24.55 12.0227 24.4332 12.0573 24.3136 12.0593C24.194 12.0612 24.0762 12.0305 23.9728 11.9703C23.0059 11.4173 22.2152 10.6021 21.6918 9.61888C21.1684 8.63564 20.9337 7.52445 21.0148 6.41354ZM39.375 23.3497C39.3774 24.0997 39.1696 24.8353 38.7752 25.4733C38.3809 26.1112 37.8157 26.6259 37.1437 26.9591L37.0716 26.9919L30.701 29.7055C30.638 29.7332 30.5727 29.7551 30.5058 29.7711L20.0058 32.3961C19.9018 32.4228 19.7949 32.4365 19.6875 32.4371H2.625C1.92881 32.4371 1.26113 32.1606 0.768845 31.6683C0.276562 31.176 0 30.5083 0 29.8121V23.2496C0 22.5534 0.276562 21.8858 0.768845 21.3935C1.26113 20.9012 1.92881 20.6246 2.625 20.6246C5.63874 20.6246 8.52897 19.4271 10.6595 17.2956L11.043 16.9119C11.5297 16.4231 12.1083 16.0356 12.7456 15.7717C13.3828 15.5079 14.0661 15.3729 14.7558 15.3746H22.9688C23.662 15.3746 24.3463 15.5314 24.9704 15.8334C25.5944 16.1354 26.142 16.5748 26.5721 17.1185C27.0022 17.6622 27.3037 18.2963 27.4539 18.9731C27.6606 19.9046 28.5279 20.7763 29.4578 20.5625L34.3038 19.4483C34.9014 19.2901 35.5273 19.2711 36.1334 19.393C36.7394 19.5149 37.3094 19.7743 37.7994 20.1512C38.2893 20.5282 38.6862 21.0126 38.9594 21.5671C39.2326 22.1217 39.3747 22.7315 39.375 23.3497ZM36.75 23.3497C36.7498 23.1327 36.6996 22.9186 36.6033 22.7242C36.507 22.5297 36.3672 22.36 36.1947 22.2283C36.0222 22.0966 35.8217 22.0064 35.6087 21.9648C35.3958 21.9231 35.176 21.931 34.9666 21.988L34.9158 22.0011L23.9236 24.5293C23.8272 24.5509 23.7287 24.5619 23.6299 24.5621H18.375C18.0269 24.5621 17.6931 24.4239 17.4469 24.1777C17.2008 23.9316 17.0625 23.5977 17.0625 23.2496C17.0625 22.9015 17.2008 22.5677 17.4469 22.3216C17.6931 22.0754 18.0269 21.9371 18.375 21.9371H22.9688C23.4909 21.9371 23.9917 21.7297 24.3609 21.3605C24.7301 20.9913 24.9375 20.4905 24.9375 19.9684C24.9375 19.4462 24.7301 18.9455 24.3609 18.5763C23.9917 18.2071 23.4909 17.9996 22.9688 17.9996H14.7558C14.4109 17.9985 14.0693 18.066 13.7508 18.1981C13.4322 18.3302 13.1431 18.5243 12.9002 18.7691L10.7067 20.9617C9.73399 21.9339 9.1875 23.2529 9.1875 24.6281C9.1875 27.4912 11.5085 29.8121 14.3715 29.8121H18.3903C19.1429 29.8121 19.8926 29.7198 20.6227 29.5373L25.765 28.2515C28.4281 27.5856 31.0346 26.7109 33.5603 25.6355L36.0002 24.5966C36.2272 24.477 36.417 24.2976 36.5492 24.0778C36.6814 23.858 36.7508 23.6062 36.75 23.3497ZM27.5625 10.7809C27.5625 11.949 27.9089 13.0909 28.5579 14.0622C29.2069 15.0335 30.1293 15.7905 31.2085 16.2375C32.2878 16.6846 33.4753 16.8015 34.621 16.5736C35.7667 16.3458 36.8191 15.7832 37.6451 14.9572C38.4711 14.1312 39.0336 13.0788 39.2615 11.9331C39.4894 10.7874 39.3724 9.59989 38.9254 8.52066C38.4784 7.44143 37.7214 6.519 36.7501 5.87002C35.7788 5.22103 34.6369 4.87463 33.4688 4.87463C31.9023 4.87463 30.4 5.4969 29.2924 6.60453C28.1848 7.71217 27.5625 9.21445 27.5625 10.7809Z" fill="url(#paint0_linear_662_971)"/>
<defs>
<linearGradient id="paint0_linear_662_971" x1="0" y1="16.6849" x2="39.375" y2="16.6849" gradientUnits="userSpaceOnUse">
<stop stop-color="#EFA94A"/>
<stop offset="1" stop-color="#FF5E63"/>
</linearGradient>
</defs>
</svg>
