<svg width="48" height="38" viewBox="0 0 48 38" fill="none" xmlns="http://www.w3.org/2000/svg">
<g clip-path="url(#clip0_662_963)">
<path d="M24.0798 6.21075L16.8982 11.9233C15.7038 12.8706 15.4738 14.5756 16.3789 15.7924C17.336 17.0894 19.1981 17.3445 20.4816 16.3608L27.8486 10.7356C28.3679 10.3422 29.1098 10.4296 29.5179 10.9397C29.9259 11.4497 29.8295 12.1784 29.3101 12.5791C28.5043 13.1926 28.4537 14.3873 29.2049 15.0667L31.3521 17.0086C33.9381 19.3475 38.0719 17.5124 38.0719 14.0257V9.36966C38.0719 9.3474 38.0539 9.32935 38.0316 9.32935C38.024 9.32935 38.0166 9.3272 38.0101 9.32316L37.7306 9.14719L32.3445 5.75899C31.2094 5.04491 29.8814 4.66602 28.5312 4.66602C26.9138 4.66602 25.341 5.2125 24.0798 6.21075ZM29.3582 18.504C27.2783 16.6316 24.1599 16.5057 21.9357 18.2043C19.5987 19.9967 16.2083 19.5304 14.4574 17.1696C12.8104 14.9472 13.2259 11.8432 15.3996 10.1163L19.3791 6.95478C20.3635 6.17271 20.0993 4.6733 18.842 4.6733C17.4472 4.66602 16.0896 5.07406 14.9248 5.83185L14.3743 6.19229C11.3846 8.14983 9.58316 11.4826 9.58316 15.0562V24.1378C9.58316 24.9735 10.2607 25.651 11.0964 25.651C11.4692 25.651 11.8288 25.7886 12.1064 26.0374L18.4562 31.7279C19.9103 33.0322 22.1583 32.9302 23.4863 31.5021C23.4933 31.4944 23.5004 31.4867 23.5073 31.4789C24.026 30.9042 24.9959 30.6194 25.571 31.1377C27.0177 32.442 29.273 32.3473 30.601 30.9264C31.0952 30.398 31.9312 30.1179 32.6421 30.2524C33.8152 30.4743 35.0728 30.1106 35.9427 29.1777C37.2707 27.7568 37.1742 25.5417 35.7275 24.2375L29.3582 18.504ZM1.27395 9.32935C0.621078 9.32935 0.0869141 9.85398 0.0869141 10.4952V25.651C0.0869141 26.9407 1.14782 27.9827 2.46098 27.9827H4.83504C6.14819 27.9827 7.2091 26.9407 7.2091 25.651V15.2645C7.2091 11.9866 4.55184 9.32935 1.27395 9.32935ZM3.64801 23.3194C3.96283 23.3194 4.26475 23.4422 4.48737 23.6608C4.70998 23.8795 4.83504 24.176 4.83504 24.4852C4.83504 24.7944 4.70998 25.0909 4.48737 25.3096C4.26475 25.5282 3.96283 25.651 3.64801 25.651C3.33319 25.651 3.03126 25.5282 2.80865 25.3096C2.58604 25.0909 2.46098 24.7944 2.46098 24.4852C2.46098 24.176 2.58604 23.8795 2.80865 23.6608C3.03126 23.4422 3.33319 23.3194 3.64801 23.3194ZM46.3811 9.32935C43.1032 9.32935 40.446 11.9866 40.446 15.2645V25.651C40.446 26.9407 41.5069 27.9827 42.82 27.9827H45.1941C46.5073 27.9827 47.5682 26.9407 47.5682 25.651V10.4952C47.5682 9.85398 47.034 9.32935 46.3811 9.32935ZM42.82 24.4852C42.82 24.176 42.9451 23.8795 43.1677 23.6608C43.3903 23.4422 43.6922 23.3194 44.0071 23.3194C44.3219 23.3194 44.6238 23.4422 44.8464 23.6608C45.069 23.8795 45.1941 24.176 45.1941 24.4852C45.1941 24.7944 45.069 25.0909 44.8464 25.3096C44.6238 25.5282 44.3219 25.651 44.0071 25.651C43.6922 25.651 43.3903 25.5282 43.1677 25.3096C42.9451 25.0909 42.82 24.7944 42.82 24.4852Z" fill="url(#paint0_linear_662_963)"/>
</g>
<defs>
<linearGradient id="paint0_linear_662_963" x1="0.0869141" y1="18.6547" x2="47.5682" y2="18.6547" gradientUnits="userSpaceOnUse">
<stop stop-color="#EFA94A"/>
<stop offset="1" stop-color="#FF5E63"/>
</linearGradient>
<clipPath id="clip0_662_963">
<rect width="47.0573" height="37.6458" fill="white" transform="translate(0.0869141 0.00292969)"/>
</clipPath>
</defs>
</svg>
