<svg width="34" height="34" viewBox="0 0 34 34" fill="none" xmlns="http://www.w3.org/2000/svg">
<path fill-rule="evenodd" clip-rule="evenodd" d="M32.1111 19.6842V28.6316C32.1111 30.0554 31.5141 31.4209 30.4514 32.4276C29.3887 33.4344 27.9473 34 26.4444 34H18.8889V19.6842H32.1111ZM15.1111 19.6842V34H7.55556C6.05266 34 4.61132 33.4344 3.54862 32.4276C2.48591 31.4209 1.88889 30.0554 1.88889 28.6316V19.6842H15.1111ZM11.3333 1.07624e-08C12.4052 -5.5673e-05 13.4649 0.215966 14.4419 0.633716C15.4189 1.05147 16.2909 1.66138 17 2.42295C17.7091 1.66138 18.5811 1.05147 19.5581 0.633716C20.5351 0.215966 21.5948 -5.5673e-05 22.6667 1.07624e-08H23.6111C24.3626 1.07624e-08 25.0832 0.2828 25.6146 0.786187C26.1459 1.28957 26.4444 1.97231 26.4444 2.68421V3.57895C26.4444 4.88347 26.0761 6.10568 25.4339 7.15789H30.2222C31.2241 7.15789 32.185 7.53496 32.8935 8.20614C33.602 8.87733 34 9.78765 34 10.7368V14.3158C34 14.9672 33.8168 15.5792 33.4938 16.1053H18.8889V10.7368C18.8889 10.2622 18.6899 9.80708 18.3356 9.47149C17.9814 9.1359 17.501 8.94737 17 8.94737C16.499 8.94737 16.0186 9.1359 15.6644 9.47149C15.3101 9.80708 15.1111 10.2622 15.1111 10.7368V16.1053H0.506222C0.174619 15.5612 2.91783e-05 14.944 0 14.3158V10.7368C0 9.78765 0.398015 8.87733 1.10649 8.20614C1.81496 7.53496 2.77585 7.15789 3.77778 7.15789H8.56611C7.90356 6.0696 7.55504 4.83527 7.55556 3.57895V2.68421C7.55556 1.97231 7.85407 1.28957 8.38542 0.786187C8.91677 0.2828 9.63744 1.07624e-08 10.3889 1.07624e-08H11.3333ZM11.3333 3.57895C11.3333 4.52814 11.7313 5.43846 12.4398 6.10965C13.1483 6.78083 14.1092 7.15789 15.1111 7.15789C15.1111 6.2087 14.7131 5.29838 14.0046 4.6272C13.2962 3.95601 12.3353 3.57895 11.3333 3.57895ZM22.6667 3.57895C21.6647 3.57895 20.7038 3.95601 19.9954 4.6272C19.2869 5.29838 18.8889 6.2087 18.8889 7.15789C19.8908 7.15789 20.8517 6.78083 21.5602 6.10965C22.2687 5.43846 22.6667 4.52814 22.6667 3.57895Z" fill="url(#paint0_linear_662_978)"/>
<defs>
<linearGradient id="paint0_linear_662_978" x1="0" y1="17" x2="34" y2="17" gradientUnits="userSpaceOnUse">
<stop stop-color="#EFA94A"/>
<stop offset="1" stop-color="#FF5E63"/>
</linearGradient>
</defs>
</svg>
