<svg width="226" height="225" viewBox="0 0 226 225" fill="none" xmlns="http://www.w3.org/2000/svg">
<path d="M63.9499 80.4745C69.5749 76.1995 76.0999 73.5745 82.4749 71.4745C97.3999 66.4495 112.625 63.6745 127.4 63.1495C137.9 62.7745 148.55 63.7495 156.125 69.1495C164.075 74.7745 167.9 85.0495 167 95.9245C165.5 113.775 151.775 136.05 124.4 150.45C118.775 153.375 113 155.775 107.075 157.65C101.975 159.225 96.8749 160.35 91.7749 161.025C88.4749 161.475 82.4749 161.85 87.1999 157.2C93.4999 150.9 97.9999 143.025 96.1249 135.375C94.3999 128.55 88.3999 124.35 81.9499 121.8C75.4999 119.175 68.2999 117.75 62.3749 114.375C56.4499 110.925 51.7999 104.925 52.8499 97.3495C53.5999 90.9745 58.3249 84.7495 63.9499 80.4745Z" fill="#F8F7FC"/>
<path d="M47.7498 97.7246H44.2998V100.65H47.7498V97.7246Z" fill="#FFDED3"/>
<path d="M64.8369 104.919L63.3174 106.578L65.3087 108.401L66.8282 106.742L64.8369 104.919Z" fill="#FFDED3"/>
<path d="M26.0851 104.922L24.0938 106.745L25.6132 108.405L27.6045 106.581L26.0851 104.922Z" fill="#FFDED3"/>
<path d="M50.5252 97.1248V92.7748C50.5252 92.4748 50.2252 92.1748 49.9252 92.1748H42.0502C41.7502 92.1748 41.4502 92.4748 41.4502 92.7748V97.1248C41.4502 97.4248 41.7502 97.7248 42.0502 97.7248H49.9252C50.3002 97.7248 50.5252 97.4248 50.5252 97.1248Z" fill="url(#paint0_linear_662_756)"/>
<path d="M73.9248 127.875C73.9248 143.625 61.1748 156.375 45.4248 156.375C29.6748 156.375 16.9248 143.625 16.9248 127.875C16.9248 112.125 29.6748 99.375 45.4248 99.375C61.1748 99.375 73.9248 112.125 73.9248 127.875Z" fill="url(#paint1_linear_662_756)"/>
<path d="M70.4002 127.875C70.4002 141.675 59.2252 152.85 45.4252 152.85C31.6252 152.85 20.4502 141.675 20.4502 127.875C20.4502 114.075 31.6252 102.9 45.4252 102.9C59.2252 102.9 70.4002 114.075 70.4002 127.875Z" fill="white"/>
<path d="M33.3494 135.675C33.2744 135.6 33.3494 135.45 33.4244 135.45L44.6744 127.95C44.7494 127.875 44.8994 127.95 44.8994 128.025C44.9744 128.1 44.8994 128.25 44.8244 128.25L33.5744 135.75C33.5744 135.825 33.4244 135.75 33.3494 135.675Z" fill="#F45170"/>
<path d="M56.075 128.25H45.5C45.275 128.25 45.125 128.1 45.125 127.875V113.1C45.125 112.875 45.275 112.725 45.5 112.725C45.725 112.725 45.875 112.875 45.875 113.1V127.5H56.075C56.3 127.5 56.45 127.65 56.45 127.875C56.45 128.1 56.3 128.25 56.075 128.25Z" fill="#4C5C75"/>
<path d="M43.4 93.2246H42.875V96.6746H43.4V93.2246Z" fill="#4C5C75"/>
<path d="M44.8248 93.2246H44.2998V96.6746H44.8248V93.2246Z" fill="#4C5C75"/>
<path d="M46.2496 93.2246H45.7246V96.6746H46.2496V93.2246Z" fill="#4C5C75"/>
<path d="M47.6744 93.2246H47.1494V96.6746H47.6744V93.2246Z" fill="#4C5C75"/>
<path d="M49.1744 93.2246H48.6494V96.6746H49.1744V93.2246Z" fill="#4C5C75"/>
<path d="M68.7494 107.85L70.9994 105.375C71.1494 105.15 71.1494 104.925 70.9994 104.7L66.4994 100.575C66.2744 100.425 66.0494 100.425 65.8244 100.575L63.5744 103.05C63.4244 103.275 63.4244 103.5 63.5744 103.725L68.0744 107.85C68.2994 108.075 68.5994 108 68.7494 107.85Z" fill="url(#paint2_linear_662_756)"/>
<path d="M66.4249 101.585L64.6016 103.576L64.9335 103.88L66.7568 101.889L66.4249 101.585Z" fill="#4C5C75"/>
<path d="M67.2472 102.333L65.4238 104.324L65.7557 104.628L67.5791 102.637L67.2472 102.333Z" fill="#4C5C75"/>
<path d="M68.0704 103.08L66.2471 105.071L66.579 105.375L68.4023 103.384L68.0704 103.08Z" fill="#4C5C75"/>
<path d="M68.8917 103.827L67.0684 105.818L67.4002 106.122L69.2236 104.131L68.8917 103.827Z" fill="#4C5C75"/>
<path d="M69.715 104.575L67.8916 106.566L68.2235 106.87L70.0469 104.879L69.715 104.575Z" fill="#4C5C75"/>
<path d="M22.175 107.85L19.925 105.375C19.775 105.15 19.775 104.925 19.925 104.7L24.425 100.575C24.65 100.425 24.875 100.425 25.1 100.575L27.35 103.05C27.5 103.275 27.5 103.5 27.35 103.725L22.85 107.85C22.7 108.075 22.4 108 22.175 107.85Z" fill="url(#paint3_linear_662_756)"/>
<path d="M24.5809 101.578L24.249 101.882L26.0724 103.873L26.4043 103.569L24.5809 101.578Z" fill="#4C5C75"/>
<path d="M23.7557 102.331L23.4238 102.635L25.2472 104.626L25.5791 104.322L23.7557 102.331Z" fill="#4C5C75"/>
<path d="M22.9305 103.084L22.5986 103.388L24.422 105.379L24.7539 105.075L22.9305 103.084Z" fill="#4C5C75"/>
<path d="M22.1053 103.838L21.7734 104.142L23.5968 106.133L23.9287 105.829L22.1053 103.838Z" fill="#4C5C75"/>
<path d="M21.2801 104.591L20.9482 104.895L22.7716 106.886L23.1035 106.582L21.2801 104.591Z" fill="#4C5C75"/>
<path d="M46.3248 105.75V107.55C46.3248 108 45.9498 108.375 45.4998 108.375C45.0498 108.375 44.6748 108 44.6748 107.55V105.75C44.6748 105.3 45.0498 104.925 45.4998 104.925C45.9498 104.925 46.3248 105.3 46.3248 105.75Z" fill="url(#paint4_linear_662_756)"/>
<path d="M35.1499 108.3L36.0499 109.875C36.2749 110.25 36.1249 110.775 35.7499 111C35.3749 111.225 34.8499 111.075 34.6249 110.7L33.7249 109.125C33.4999 108.75 33.6499 108.225 34.0249 108C34.3999 107.775 34.9249 107.85 35.1499 108.3Z" fill="url(#paint5_linear_662_756)"/>
<path d="M26.7502 116.1L28.3252 117C28.7002 117.225 28.8502 117.75 28.6252 118.125C28.4002 118.5 27.8752 118.65 27.5002 118.425L25.9252 117.525C25.5502 117.3 25.4002 116.775 25.6252 116.4C25.8502 115.95 26.3752 115.8 26.7502 116.1Z" fill="url(#paint6_linear_662_756)"/>
<path d="M23.3748 126.975H25.1748C25.6248 126.975 25.9998 127.35 25.9998 127.8C25.9998 128.25 25.6248 128.625 25.1748 128.625H23.3748C22.9248 128.625 22.5498 128.25 22.5498 127.8C22.5498 127.35 22.9248 126.975 23.3748 126.975Z" fill="url(#paint7_linear_662_756)"/>
<path d="M25.9248 138.15L27.4998 137.25C27.8748 137.025 28.3998 137.175 28.6248 137.55C28.8498 137.925 28.6998 138.45 28.3248 138.675L26.7498 139.575C26.3748 139.8 25.8498 139.65 25.6248 139.275C25.3998 138.9 25.4748 138.375 25.9248 138.15Z" fill="url(#paint8_linear_662_756)"/>
<path d="M33.7244 146.55L34.6244 144.975C34.8494 144.6 35.3744 144.45 35.7494 144.675C36.1244 144.9 36.2744 145.425 36.0494 145.8L35.1494 147.375C34.9244 147.75 34.3994 147.9 34.0244 147.675C33.5744 147.45 33.4244 147 33.7244 146.55Z" fill="url(#paint9_linear_662_756)"/>
<path d="M44.5996 149.925V148.125C44.5996 147.675 44.9746 147.3 45.4246 147.3C45.8746 147.3 46.2496 147.675 46.2496 148.125V149.925C46.2496 150.375 45.8746 150.75 45.4246 150.75C44.9746 150.825 44.5996 150.375 44.5996 149.925Z" fill="url(#paint10_linear_662_756)"/>
<path d="M55.7752 147.375L54.8752 145.8C54.6502 145.425 54.8002 144.9 55.1752 144.675C55.5502 144.45 56.0752 144.6 56.3002 144.975L57.2002 146.55C57.4252 146.925 57.2752 147.45 56.9002 147.675C56.5252 147.975 56.0002 147.825 55.7752 147.375Z" fill="url(#paint11_linear_662_756)"/>
<path d="M64.1751 139.649L62.6001 138.749C62.2251 138.524 62.0751 137.999 62.3001 137.624C62.5251 137.249 63.0501 137.099 63.4251 137.324L65.0001 138.224C65.3751 138.449 65.5251 138.974 65.3001 139.349C65.0751 139.724 64.6251 139.874 64.1751 139.649Z" fill="url(#paint12_linear_662_756)"/>
<path d="M67.5498 128.7H65.7498C65.2998 128.7 64.9248 128.325 64.9248 127.875C64.9248 127.425 65.2998 127.05 65.7498 127.05H67.5498C67.9998 127.05 68.3748 127.425 68.3748 127.875C68.4498 128.325 68.0748 128.7 67.5498 128.7Z" fill="url(#paint13_linear_662_756)"/>
<path d="M65.0001 117.525L63.4251 118.425C63.0501 118.65 62.5251 118.5 62.3001 118.125C62.0751 117.75 62.2251 117.225 62.6001 117L64.1751 116.1C64.5501 115.875 65.0751 116.025 65.3001 116.4C65.6001 116.775 65.45 117.3 65.0001 117.525Z" fill="url(#paint14_linear_662_756)"/>
<path d="M57.2745 109.125L56.3745 110.7C56.1495 111.075 55.6245 111.225 55.2495 111C54.8745 110.775 54.7245 110.25 54.9495 109.875L55.8495 108.3C56.0745 107.925 56.5995 107.775 56.9745 108C57.3495 108.225 57.4995 108.75 57.2745 109.125Z" fill="url(#paint15_linear_662_756)"/>
<path d="M49.1752 127.875C49.1752 129.9 47.5252 131.55 45.5002 131.55C43.4752 131.55 41.8252 129.9 41.8252 127.875C41.8252 125.85 43.4752 124.2 45.5002 124.2C47.5252 124.125 49.1752 125.775 49.1752 127.875Z" fill="url(#paint16_linear_662_756)"/>
<path d="M47.375 127.875C47.375 128.925 46.55 129.75 45.5 129.75C44.45 129.75 43.625 128.925 43.625 127.875C43.625 126.825 44.45 126 45.5 126C46.55 125.925 47.375 126.825 47.375 127.875ZM46.625 114.975H44.375C44.075 114.975 43.925 114.675 44.075 114.375L45.2 112.5C45.35 112.275 45.725 112.275 45.875 112.5L47 114.375C47.075 114.675 46.925 114.975 46.625 114.975ZM55.4 129V126.75C55.4 126.45 55.7 126.3 56 126.45L57.875 127.575C58.1 127.725 58.1 128.1 57.875 128.25L56 129.375C55.7 129.45 55.4 129.3 55.4 129Z" fill="#4C5C75"/>
<path d="M159.425 122.325L179.075 119.625C179.75 119.55 180.35 119.175 180.8 118.65L208.475 84.5247C209.375 83.3997 209.225 81.6747 208.1 80.7747L186.95 63.7497C185.825 62.8497 184.1 62.9997 183.2 64.1247L155.6 98.2497C155.15 98.7747 155 99.4497 155 100.125L156.425 119.925C156.5 121.425 157.85 122.55 159.425 122.325ZM161 112.425C162.05 111.15 164 110.925 165.275 111.975C166.55 113.025 166.775 114.975 165.725 116.25C164.675 117.525 162.725 117.75 161.45 116.7C160.175 115.65 159.95 113.7 161 112.425Z" fill="#FFC6A7"/>
<path d="M166.775 117.075C168.275 115.2 167.975 112.5 166.175 111C164.3 109.5 161.6 109.8 160.1 111.675C158.6 113.55 158.9 116.25 160.7 117.75C162.5 119.175 165.275 118.875 166.775 117.075ZM160.4 114.975C160.175 114.075 160.4 113.1 161 112.35C162.05 111.075 164 110.85 165.275 111.9C166.55 112.95 166.775 114.9 165.725 116.175C164.675 117.45 162.725 117.675 161.45 116.625C160.925 116.25 160.55 115.65 160.4 114.975ZM183.35 106.95L166.4 93.225C165.725 92.7 165.65 91.725 166.175 91.05L184.4 68.55C184.925 67.875 185.9 67.8 186.575 68.325L203.525 82.05C204.2 82.575 204.275 83.55 203.75 84.225L185.525 106.725C185 107.4 184.025 107.55 183.35 106.95Z" fill="#FF7E36"/>
<path d="M177.349 93.9001L175.924 95.6251L172.849 93.1501C172.399 92.7751 171.874 93.4501 172.324 93.8251L175.699 96.5251C175.924 96.7501 176.299 96.6751 176.524 96.4501L178.099 94.4251C178.399 93.9751 177.724 93.4501 177.349 93.9001ZM176.449 90.8251C175.999 90.4501 175.474 91.1251 175.924 91.5001L178.324 93.4501C178.774 93.8251 179.299 93.1501 178.849 92.7751L176.449 90.8251ZM174.724 90.6751C174.949 90.8251 175.249 90.8251 175.399 90.6001C175.549 90.3751 175.549 90.0751 175.324 89.9251C175.099 89.7751 174.799 89.7751 174.649 90.0001C174.499 90.2251 174.499 90.5251 174.724 90.6751ZM178.324 90.0751C178.249 89.8501 178.249 89.7001 178.249 89.4751C178.249 88.9501 178.699 88.3501 179.449 88.9501L180.949 90.1501C181.249 90.3751 181.699 90.1501 181.624 89.7751C181.624 89.6251 181.549 89.5501 181.474 89.4751L179.824 88.1251C179.749 87.9001 179.749 87.7501 179.749 87.5251C179.749 87.0001 180.199 86.4001 180.949 87.0001L182.449 88.2001C182.899 88.5751 183.424 87.9001 182.974 87.5251L181.324 86.2501C180.049 85.2001 178.624 86.4001 178.999 87.7501C178.174 87.6751 177.499 88.2751 177.424 88.9501C177.424 89.1001 177.424 89.2501 177.424 89.3251C177.124 89.1001 176.674 89.3251 176.749 89.7001C176.749 89.8501 176.824 89.9251 176.899 90.0001L179.299 91.9501C179.749 92.3251 180.274 91.6501 179.824 91.2751L178.324 90.0751ZM183.574 86.8501C184.024 87.2251 184.549 86.5501 184.099 86.1751L181.699 84.2251C181.249 83.8501 180.724 84.5251 181.174 84.9001L183.574 86.8501ZM179.974 84.0751C180.199 84.2251 180.499 84.2251 180.649 84.0001C180.799 83.7751 180.799 83.4751 180.574 83.3251C180.349 83.1751 180.049 83.1751 179.899 83.4001C179.749 83.6251 179.749 83.9251 179.974 84.0751ZM182.449 83.9251L182.674 83.6251L184.324 84.9751C184.849 85.4251 185.374 85.3501 185.899 84.7501C186.049 84.6001 186.124 84.3751 186.199 84.1501C186.274 83.7001 185.674 83.4751 185.449 83.9251C185.374 84.0751 185.374 84.0751 185.299 84.2251C185.074 84.4501 184.999 84.4501 184.849 84.3001L183.199 83.0251L183.649 82.5001C183.949 82.1251 183.349 81.6001 183.049 81.9751L182.599 82.5001L182.224 82.2001C182.074 82.0501 181.774 82.2001 181.849 82.4251L181.999 83.7751C181.999 84.0001 182.299 84.0751 182.449 83.9251ZM184.999 82.5751C185.974 83.4001 187.024 83.2501 187.849 82.2751C188.149 81.9001 188.299 81.6001 188.449 81.0001C188.524 80.4001 187.774 80.3251 187.699 80.8501C187.624 81.2251 187.474 81.4501 187.324 81.6751C186.949 82.1251 186.499 82.2751 185.974 82.0501L187.399 80.2501C187.549 80.0251 187.549 79.8001 187.324 79.6501C187.024 79.4251 186.724 79.2751 186.424 79.2001C185.299 78.9751 184.324 79.8751 184.249 80.8501C184.099 81.5251 184.474 82.1251 184.999 82.5751ZM184.999 80.7751C185.149 80.2501 185.524 79.9501 186.049 80.0251C186.199 80.0251 186.349 80.1001 186.499 80.1751L185.299 81.6751C184.999 81.3001 184.924 81.0001 184.999 80.7751ZM187.624 79.3501C188.599 80.1001 189.724 79.9501 190.399 79.2001C190.699 78.9001 190.774 78.5251 190.774 78.0751C190.849 78.1501 190.924 78.1501 191.074 78.1501C191.449 78.0751 191.599 77.6251 191.299 77.4001L187.624 74.4751C187.174 74.1001 186.649 74.7751 187.099 75.1501L188.299 76.1251C187.849 76.2001 187.549 76.4251 187.249 76.7251C186.574 77.4001 186.649 78.6001 187.624 79.3501ZM187.849 77.1001C188.074 76.8001 188.449 76.6501 188.899 76.5751L190.024 77.4751C190.099 77.8501 190.024 78.3001 189.724 78.6001C189.349 79.1251 188.749 79.2001 188.149 78.6751C187.549 78.1501 187.474 77.5501 187.849 77.1001Z" fill="white"/>
<path d="M181.4 93.2251C180.725 94.0501 180.65 95.0251 180.95 95.8501C181.1 96.3001 181.4 96.6751 181.85 96.9751C183.2 98.0251 184.7 97.8001 185.675 96.6001C186.725 95.3251 186.425 93.8251 185.225 92.7751C183.95 91.8751 182.45 91.9501 181.4 93.2251ZM185 96.0751C184.325 96.9751 183.275 96.9751 182.375 96.3001C181.55 95.6251 181.325 94.5751 182 93.7501C182.675 92.8501 183.725 92.8501 184.625 93.5251C185.525 94.2001 185.75 95.2501 185 96.0751ZM187.625 87.7501L187.1 88.3501C187.025 88.2751 186.65 88.0501 186.65 87.8251C186.65 87.6001 186.8 87.4501 186.95 87.3751C187.325 87.0751 187.175 86.6251 186.8 86.6251C186.5 86.6251 185.9 87.0001 185.75 87.6751C185.675 87.9001 185.75 88.1251 185.825 88.3501C185.975 88.8001 186.425 89.0251 186.575 89.1751C186.425 89.4001 186.2 89.5501 186.35 89.8501C186.2 89.7751 186.05 89.8501 185.975 90.0001L185.45 90.6001L185.225 90.4501C184.85 90.1501 184.85 90.0001 185.225 89.6251C185.675 89.2501 185.3 88.7251 184.85 88.8751C184.475 89.0251 184.175 89.4001 184.025 89.8501C183.95 90.2251 184.1 90.6751 184.625 91.1251L184.85 91.3501L184.625 91.5751C184.325 92.0251 184.925 92.4751 185.225 92.1001L185.45 91.8751L187.625 93.6001C188.075 93.9751 188.6 93.3001 188.15 92.9251L185.975 91.2001C186.35 90.6751 186.725 90.5251 186.5 90.1501C186.875 90.2251 186.95 89.9251 187.1 89.7751L189.275 91.5001C189.725 91.8751 190.25 91.1251 189.8 90.8251L187.625 89.1001C188.075 88.5001 188.225 88.4251 188.225 88.2001C188.3 87.6751 187.85 87.4501 187.625 87.7501ZM188.975 85.9501C188.75 86.2501 188.6 86.6251 188.525 86.9251C188.375 88.5001 190.7 90.2251 192.2 88.3501C192.5 87.9751 192.65 87.6751 192.8 87.0751C192.875 86.4751 192.125 86.4001 192.05 86.9251C191.975 87.3001 191.825 87.5251 191.6 87.8251C191.225 88.2751 190.775 88.5001 190.25 88.2001L191.75 86.4001C191.9 86.1751 191.9 85.9501 191.675 85.8001C191.375 85.5751 191.075 85.4251 190.775 85.3501C190.1 85.2001 189.425 85.3501 188.975 85.9501ZM190.85 86.2501L189.65 87.7501C189.5 87.6001 189.425 87.5251 189.425 87.3751C189.2 86.7001 189.725 86.1001 190.4 86.1001C190.55 86.1001 190.7 86.1751 190.85 86.2501ZM191.75 82.5001C191.75 82.5751 191.375 82.8751 191.45 83.6251C191 83.2501 190.4 83.9251 190.925 84.3001L193.4 86.2501C193.85 86.6251 194.375 85.9501 193.925 85.5751L192.2 84.2251C192.05 83.7001 192.2 83.4751 192.425 83.0251C192.8 82.5751 192.05 82.0501 191.75 82.5001Z" fill="white"/>
<path d="M144.049 148.2C143.149 147.9 142.024 147.525 141.124 146.7C139.474 145.2 138.949 142.575 139.849 140.4C140.599 138.45 142.474 136.8 144.724 136.05C146.899 135.3 149.149 135.3 151.249 134.775C156.574 133.35 160.324 128.325 160.024 122.625C160.024 122.4 160.174 122.25 160.399 122.25C160.624 122.25 160.774 122.4 160.774 122.625C161.149 128.7 157.174 134.025 151.474 135.525C149.374 136.125 147.049 136.125 144.949 136.8C142.849 137.55 141.199 138.975 140.524 140.7C139.774 142.65 140.149 144.9 141.574 146.175C142.399 146.85 143.449 147.3 144.274 147.525C154.099 150.6 164.374 145.2 167.674 135.75C169.399 130.875 169.024 125.325 168.649 120.525C168.574 119.475 168.499 118.35 168.049 117.45C167.674 116.7 166.924 115.8 165.874 115.8C165.724 115.8 163.399 115.725 163.099 117.45C163.099 117.675 162.874 117.825 162.649 117.75C162.424 117.75 162.274 117.525 162.349 117.3C162.649 115.35 164.749 114.975 165.874 114.975C166.999 114.975 168.124 115.8 168.724 117.075C169.249 118.125 169.324 119.25 169.399 120.375C169.774 125.325 170.149 130.875 168.424 135.975C164.899 145.875 154.174 151.35 144.049 148.2Z" fill="#4C5C75"/>
<path d="M73.0996 90.15C73.0996 90.15 82.0245 106.95 87.4995 108.3C89.8245 108.825 97.5495 106.05 97.5495 106.05L94.3995 96.15C94.3245 96.15 89.0745 97.35 89.3745 97.275L77.2996 84.675C77.2245 84.75 72.7996 90.525 73.0996 90.15Z" fill="#FDAE88"/>
<path d="M73.0996 90.1497C73.0996 90.1497 82.0246 106.95 87.4996 108.3C89.8246 108.825 97.5496 106.05 97.5496 106.05L94.3996 96.1497L89.5996 97.2747C90.1246 98.9997 90.2746 99.4497 89.6746 102.225C89.5246 102.975 89.3746 103.725 88.9996 104.4C87.9496 106.35 85.8496 106.275 84.4996 104.625C83.8246 103.8 83.5246 102.75 83.1496 101.775C81.3496 96.8247 77.9746 92.3997 73.6246 89.3997L73.0996 90.1497Z" fill="#FFB997"/>
<path d="M73.1 90.1499C72.95 89.5499 71.45 87.9749 70.85 87.8249C69.8 87.4499 69.2 87.1499 68.6 86.7749C68 86.3999 67.475 85.9499 66.725 85.4249C65 84.2999 66.35 83.1749 66.35 83.1749C64.4 81.6749 66.575 80.9999 66.575 80.9999C64.4 79.4999 66.875 78.6749 66.875 78.6749C64.55 78.1499 63.65 76.7249 64.4 75.9749C65.225 75.0749 68.3 76.3499 71.825 78.1499C75.275 79.8749 77.375 84.8249 77.375 84.8249L73.1 90.1499Z" fill="#F7A386"/>
<path d="M70.1744 70.7997L68.6744 70.4997C67.9244 70.3497 67.2494 70.7997 67.0994 71.5497L66.5744 74.0247C66.2744 75.3747 67.1744 76.6497 68.5244 76.9497L69.0494 77.0247L70.1744 70.7997Z" fill="#F45170"/>
<path d="M67.3994 70.9503C68.1494 71.1003 68.6744 71.8503 68.5244 72.6003L67.8494 76.7253C68.3744 77.0253 68.7494 77.0253 69.1244 77.1003L70.1744 70.8753L68.6744 70.5753C68.1494 70.4253 67.6994 70.5753 67.3994 70.9503Z" fill="#DF3260"/>
<path d="M49.6252 37.1252L41.8252 76.8002C49.7002 73.5002 61.0252 67.9502 68.1502 67.1252L70.7752 54.0002C64.4752 50.4752 55.6252 43.2002 49.6252 37.1252Z" fill="#F8F7FC"/>
<path d="M68.375 66.0752L68.15 67.1252C61.025 67.9502 49.7 73.5002 41.75 76.8002L49.55 37.1252C50.75 38.3252 52.1 39.6002 53.525 40.8752C53.45 41.1752 53.45 41.4752 53.375 41.7752C52.025 52.6502 58.475 62.6252 68.375 66.0752Z" fill="#FFDED3"/>
<path d="M70.7749 53.85L68.1499 67.2C67.9999 68.1 68.5999 69 69.4999 69.225L80.2249 71.325C81.1249 71.475 82.0249 70.875 82.2499 69.975L84.8749 56.625C85.0249 55.725 84.4249 54.825 83.5249 54.6L72.7999 52.5C71.8999 52.35 70.9999 52.95 70.7749 53.85Z" fill="#BE7D5A"/>
<path d="M84.4244 59.175H84.4994C86.8244 59.625 88.3244 61.875 87.8744 64.2C87.4244 66.525 85.0994 68.025 82.7744 67.5L84.4244 59.175Z" fill="#F3F1FC"/>
<path d="M84.4244 59.175L82.7744 67.5C87.1994 68.4 89.7494 63 86.5244 60.15C86.4494 60.075 86.3744 60 86.2994 59.925C85.7744 59.55 85.2494 59.325 84.5744 59.175C84.4244 59.175 84.4244 59.175 84.4244 59.175Z" fill="#F45170"/>
<path d="M84.4244 59.175L82.7744 67.5C84.5744 67.875 86.3744 67.05 87.3494 65.55C86.8994 65.925 86.1494 66.225 85.3994 66.375C84.4994 66.6 83.6744 65.775 83.8244 64.875L84.9494 59.25C84.7994 59.175 84.7244 59.175 84.5744 59.175C84.4244 59.175 84.4244 59.175 84.4244 59.175Z" fill="#DF3260"/>
<path d="M62.8998 86.8497L68.0748 87.8997C68.6748 88.0497 69.1998 87.7497 69.4998 87.2247L78.4998 71.0997L70.6248 69.5247L66.4248 77.0247L61.9998 84.8997C61.5498 85.6497 61.9998 86.6997 62.8998 86.8497Z" fill="#FFDE9B"/>
<path d="M69.8746 70.7997C73.1746 71.4747 74.8996 75.1497 73.2496 78.0747L67.8496 87.8247L68.1496 87.8997C68.7496 88.0497 69.2746 87.7497 69.5746 87.2247L78.5746 71.0997L70.6996 69.5247L69.8746 70.7997Z" fill="#FFB961"/>
<path d="M72.4248 56.55C72.3498 57 72.6498 57.45 73.0998 57.6L81.4248 59.25C81.8748 59.325 82.3248 59.025 82.4748 58.575C82.5498 58.125 82.2498 57.675 81.7998 57.525L73.4748 55.875C72.9498 55.8 72.4998 56.1 72.4248 56.55ZM71.8248 59.475C71.7498 60 72.0498 60.45 72.4998 60.525L80.8248 62.175C81.2748 62.25 81.7248 61.95 81.8748 61.5C81.9498 61.05 81.6498 60.6 81.1998 60.45L72.8748 58.8C72.3498 58.725 71.8998 59.025 71.8248 59.475ZM71.2248 62.475C71.1498 62.925 71.4498 63.375 71.8998 63.525L80.2248 65.175C80.6748 65.25 81.1248 64.95 81.2748 64.5C81.3498 64.05 81.0498 63.6 80.5998 63.45L72.2748 61.8C71.7498 61.65 71.2998 61.95 71.2248 62.475ZM70.6248 65.4C70.5498 65.85 70.8498 66.3 71.2998 66.45L79.6248 68.1C80.0748 68.175 80.5248 67.875 80.6748 67.425C80.7498 66.975 80.4498 66.525 79.9998 66.375L71.6748 64.725C71.1498 64.65 70.6998 64.95 70.6248 65.4Z" fill="#A96256"/>
<path d="M32.9745 38.0247L34.8495 41.0247C34.9995 41.3247 34.8495 41.6997 34.5495 41.7747L33.4995 41.9247C33.1245 41.9997 32.9745 42.4497 33.2745 42.7497L38.6745 47.9997C39.0495 48.3747 39.6495 47.9247 39.4245 47.4747L37.7745 44.1747C37.6245 43.8747 37.8495 43.4997 38.1495 43.4997L39.7245 43.4247C40.0995 43.4247 40.3245 42.9747 40.0995 42.6747L36.4245 37.1247C36.3495 36.9747 36.1245 36.8997 35.9745 36.8997L33.3495 37.2747C32.9745 37.3497 32.8245 37.7247 32.9745 38.0247Z" fill="#FFD475"/>
<path d="M25.5497 62.4004H29.1497C29.4497 62.4004 29.6747 62.7004 29.5997 63.0754L29.2247 64.0504C29.0747 64.4254 29.3747 64.8004 29.7497 64.6504L37.0997 62.8504C37.6247 62.7004 37.5497 61.9504 37.0247 61.9504L33.3497 61.6504C32.9747 61.6504 32.8247 61.2754 32.9747 60.9754L33.7247 59.6254C33.8747 59.3254 33.6497 58.9504 33.2747 58.9504L26.5997 59.1004C26.4497 59.1004 26.2247 59.2504 26.1497 59.4004L25.0997 61.8754C24.9497 62.0254 25.1747 62.4004 25.5497 62.4004Z" fill="#FFD475"/>
<path d="M50.6743 50.6247C49.1743 62.9997 44.5993 77.1747 41.7493 76.7997C39.6493 76.4997 39.6493 67.4247 41.8243 56.4747C43.9993 45.5247 47.4493 36.8997 49.6243 37.1247C51.2743 37.3497 51.6493 42.9747 50.6743 50.6247Z" fill="#BE7D5A"/>
<path d="M51.0502 40.4249C50.9752 40.3499 50.9002 40.3499 50.7502 40.3499C48.6502 40.0499 45.1252 48.7499 42.9502 59.6999C41.5252 66.8249 41.0752 73.1249 41.4502 76.7999C39.5752 75.8249 39.7252 67.0499 41.7502 56.5499C43.9252 45.5999 47.3752 36.9749 49.5502 37.1999C50.3752 37.2749 50.8252 38.4749 51.0502 40.4249Z" fill="#A96256"/>
<path d="M50.6743 50.6254C50.1493 54.7504 49.3243 59.2504 48.1993 63.5254C44.9743 62.5504 42.7993 59.5504 43.2493 56.3254C43.6993 52.8004 46.9993 50.3254 50.6743 50.6254Z" fill="#4C5C75"/>
<path d="M41.8995 77.1C41.8246 77.1 41.8245 77.1 41.7495 77.1C41.4495 77.025 41.1496 76.875 40.9246 76.5C39.4246 74.4 39.6495 66.15 41.5995 56.4C43.5495 46.65 46.9995 36.525 49.6995 36.9C51.8745 37.2 51.7996 44.175 50.9746 50.625C49.4746 62.7 45.0496 77.1 41.8995 77.1ZM49.4746 37.425C47.7496 37.425 44.2996 45.15 42.0496 56.55C40.2496 65.85 39.8746 74.25 41.2996 76.2C41.4496 76.425 41.5995 76.5 41.8245 76.575C43.0995 76.725 45.6496 72.3 47.8996 63.525C49.0246 59.175 49.9246 54.675 50.3745 50.625C51.4995 42.15 50.8246 37.575 49.4746 37.425C49.5496 37.425 49.5496 37.425 49.4746 37.425Z" fill="#A96256"/>
<path d="M73.0248 84.2254C70.3998 82.4254 72.1248 80.6254 72.1248 80.6254C70.3998 79.8754 68.1498 79.2004 68.5248 77.9254C69.0498 76.4254 73.6998 78.5254 75.4248 80.1004C76.3998 81.0004 77.0748 82.3504 77.2998 84.7504" fill="#F7A386"/>
<path d="M73.0244 84.225C72.7244 84 71.8995 83.475 71.6745 82.65C71.4495 81.975 71.6744 81.15 72.1244 80.625C70.6244 79.95 68.5994 79.35 68.4494 78.375C68.2244 75.9 74.2994 78.675 75.8744 80.55C76.8494 81.75 77.1495 83.25 77.2995 84.675C76.8495 81.375 75.9494 80.325 74.1494 79.2C73.0244 78.525 71.3745 77.7 70.0995 77.475C69.1995 77.325 68.4494 77.475 68.5244 78.3C68.6744 79.575 72.1995 80.4 72.1244 80.55C71.6744 81.075 71.4495 81.825 71.6745 82.5C71.8245 83.1 72.2744 83.475 72.5744 83.775L73.0244 84.225Z" fill="#E27659"/>
<path d="M110.899 86.0999L110.674 87.4499L107.824 104.925C107.824 104.925 105.574 105.75 102.949 106.575C99.9494 107.475 96.5744 108.225 95.5244 107.625C93.1244 106.275 91.6244 96.9749 93.1994 94.4249C93.9494 92.9249 110.899 86.0999 110.899 86.0999Z" fill="#FFDED3"/>
<path d="M110.675 87.3752L107.825 104.85C107.825 104.85 105.575 105.675 102.95 106.5C103.775 99.2252 103.85 92.7002 107.45 89.4752C107.75 89.1752 109.25 88.2002 110.675 87.3752Z" fill="#FFC370"/>
<path d="M70.1002 183.301L77.6002 185.176L74.8252 193.351L67.7002 190.951C69.0502 188.551 69.9502 185.776 70.1002 183.301Z" fill="#F6A285"/>
<path d="M52.6998 189.825C52.6248 190.125 52.7748 190.425 53.0748 190.5L73.6248 197.4C73.9248 197.475 74.2248 197.325 74.2998 197.025L76.3998 190.875C76.7748 189.675 75.7998 188.55 74.5248 188.7C74.4498 188.7 71.1498 189.6 70.2498 186.525C70.0998 186 70.1748 185.175 69.1248 184.8C68.1498 184.5 64.1748 186.525 61.6998 186.45C61.3998 186.45 61.1748 186.45 60.9498 186.375C59.3748 186 56.5998 185.325 54.5748 186.75C53.8248 187.425 53.1498 188.325 52.6998 189.825Z" fill="#395B64"/>
<path d="M53.3748 188.25C53.1498 188.7 52.8498 189.225 52.6998 189.825C52.6248 190.125 52.7748 190.425 53.0748 190.5L73.6248 197.4C73.9248 197.475 74.2248 197.325 74.2998 197.025L74.8248 195.45L53.3748 188.25ZM73.1748 192C72.8748 192.825 71.9748 193.275 71.1498 192.975C70.3248 192.675 69.8748 191.775 70.1748 190.95C70.4748 190.125 71.3748 189.675 72.1998 189.975C73.0248 190.275 73.4748 191.175 73.1748 192ZM67.7748 186.9C67.9998 186.825 68.0748 186.6 67.9998 186.375L67.4748 184.875C67.3998 184.65 67.1748 184.575 66.9498 184.65C66.7248 184.725 66.6498 184.95 66.7248 185.175L67.2498 186.675C67.3998 186.9 67.6248 186.975 67.7748 186.9ZM66.0498 187.35C66.2748 187.275 66.3498 187.05 66.2748 186.825L65.7498 185.325C65.6748 185.1 65.4498 185.025 65.2248 185.1C64.9998 185.175 64.9248 185.4 64.9998 185.625L65.5248 187.125C65.5998 187.35 65.8998 187.425 66.0498 187.35ZM64.3998 187.875C64.6248 187.8 64.6998 187.575 64.6248 187.35L64.0998 185.85C64.0248 185.625 63.7998 185.55 63.5748 185.625C63.3498 185.7 63.2748 185.925 63.3498 186.15L63.8748 187.65C63.9498 187.875 64.1748 187.95 64.3998 187.875ZM54.6498 186.825C55.1748 187.425 55.8498 187.8 56.5998 188.1C58.5498 188.775 60.5748 188.1 61.7748 186.525C61.4748 186.525 61.2498 186.525 61.0248 186.45C59.4498 186.075 56.6748 185.4 54.6498 186.825Z" fill="#DF8236"/>
<path d="M128.525 153.3C125.075 156.3 117.95 154.2 110.9 152.175C104.3 150.225 97.6245 148.35 93.9495 150.45C86.4495 154.875 79.3995 186.3 79.3995 186.3C79.0245 187.575 67.6995 184.275 68.0745 183C68.0745 183 74.4495 143.55 82.0995 136.2C86.5995 131.925 103.85 131.4 107.525 131.4C107.975 131.4 108.2 131.4 108.2 131.4L122.525 132.9L130.475 133.725C130.475 133.725 130.7 134.475 131 135.6C132.05 139.575 133.625 148.875 128.525 153.3Z" fill="#395B64"/>
<path d="M128.525 153.3C125.075 156.3 117.95 154.2 110.9 152.175C106.925 144.525 104.075 137.325 103.925 134.55C103.85 132.75 105.275 131.775 107.6 131.4C111.425 130.725 117.5 131.625 122.675 132.9C126.35 133.8 129.5 134.85 131.15 135.6C132.05 139.575 133.625 148.875 128.525 153.3Z" fill="#111D33"/>
<path d="M173.525 148.876L167.825 143.701L174.05 137.926L179.15 143.401C176.825 144.751 174.8 146.701 173.525 148.876Z" fill="#F6A285"/>
<path d="M191.6 151.35C191.825 151.125 191.825 150.825 191.6 150.6L176.975 134.925C176.75 134.7 176.45 134.7 176.225 134.925L171.5 139.275C170.6 140.1 170.975 141.6 172.1 142.05C172.175 142.125 175.475 142.875 174.8 145.95C174.65 146.475 174.2 147.15 174.95 147.975C175.625 148.725 180.05 148.8 182.15 150C182.375 150.15 182.6 150.225 182.75 150.375C183.95 151.425 186.05 153.3 188.45 153.075C189.5 152.85 190.55 152.4 191.6 151.35Z" fill="#395B64"/>
<path d="M190.325 152.4C190.775 152.175 191.225 151.8 191.675 151.35C191.9 151.125 191.9 150.825 191.675 150.6L177.05 134.925C176.825 134.7 176.525 134.7 176.3 134.925L175.1 136.05L190.325 152.4ZM174.875 139.8C175.475 139.2 176.525 139.275 177.05 139.875C177.575 140.475 177.575 141.525 176.975 142.05C176.375 142.65 175.325 142.575 174.8 141.975C174.275 141.375 174.275 140.4 174.875 139.8ZM177.2 146.775C176.975 146.775 176.75 146.925 176.75 147.075L176.525 148.575C176.525 148.8 176.675 149.025 176.825 149.025C177.05 149.025 177.275 148.875 177.275 148.725L177.5 147.225C177.575 147 177.35 146.775 177.2 146.775ZM178.925 147.15C178.7 147.15 178.475 147.3 178.475 147.45L178.25 148.95C178.25 149.175 178.4 149.4 178.55 149.4C178.775 149.4 179 149.25 179 149.1L179.225 147.6C179.225 147.45 179.075 147.225 178.925 147.15ZM180.65 147.525C180.425 147.525 180.2 147.675 180.2 147.825L179.975 149.325C179.975 149.55 180.125 149.775 180.275 149.775C180.5 149.775 180.725 149.625 180.725 149.475L180.95 147.975C181.025 147.75 180.8 147.525 180.65 147.525ZM188.525 153C188.375 152.25 188 151.575 187.4 150.975C186.05 149.475 183.95 149.175 182.225 149.925C182.45 150.075 182.675 150.15 182.825 150.3C184.025 151.425 186.125 153.3 188.525 153Z" fill="#DF8236"/>
<path d="M103.067 134.362C104.492 141.112 126.992 175.312 136.367 175.987C144.242 176.587 174.092 149.662 174.092 149.662C174.992 148.987 168.917 140.512 168.017 141.187C168.017 141.187 145.067 159.337 140.567 158.212C135.017 156.787 135.917 138.187 130.742 135.562C125.642 133.012 101.567 127.387 103.067 134.362Z" fill="#395B64"/>
<path d="M101.6 132.676C101.9 132.826 102.275 132.901 102.65 133.051C113.45 136.951 138.425 142.351 134.525 134.176C127.775 120.076 138.875 101.626 136.55 93.9008C135.35 89.7758 130.475 87.8258 126.2 86.8508C126.125 86.8508 126.05 86.8508 125.975 86.7758C122.225 85.9508 118.325 85.8008 114.35 85.8008C113.075 85.8008 110.6 85.9508 109.775 86.4758C105.275 89.6258 104.375 99.8258 104.9 107.251C105.35 114.676 95.8249 130.426 101.6 132.676Z" fill="#FFDED3"/>
<path d="M102.274 131.625C102.349 132.15 102.499 132.6 102.649 133.05C113.449 136.95 138.424 142.35 134.524 134.175C131.299 127.425 132.124 119.7 133.624 112.65C135.499 107.55 134.074 98.7752 132.799 100.425C132.049 101.325 126.949 115.725 126.724 116.85C126.499 118.125 125.824 119.175 125.074 120.225C121.624 124.65 116.899 128.1 111.649 129.975C108.574 131.025 105.424 131.625 102.274 131.625Z" fill="#FFC370"/>
<path d="M108.35 68.3256C108.35 68.3256 107.525 69.9756 109.475 72.0006L111.8 67.7256L108.35 68.3256Z" fill="#894852"/>
<path d="M114.274 85.8008V87.6008C114.799 90.6008 115.849 94.3508 118.924 94.3508C121.099 94.3508 123.199 92.2508 125.899 87.3758L126.124 86.9258V86.8508C126.049 86.8508 125.974 86.8508 125.899 86.7758C122.149 85.9508 118.249 85.8008 114.274 85.8008Z" fill="#FFC370"/>
<path d="M124.25 86.4752V75.8252H116.075V87.4502C117.275 93.6752 119.6 94.8752 124.25 86.4752Z" fill="#F6A285"/>
<path d="M113.225 84.5253C115.775 85.1253 121.7 82.3503 123.2 81.2253C123.875 80.7003 124.325 80.3253 124.325 80.3253V77.9253C124.325 77.8503 128.075 73.7253 124.55 72.3753L123.95 67.2003C117.8 66.9003 111.95 66.6753 109.775 69.6003C109.7 69.6003 107.825 83.2503 113.225 84.5253Z" fill="url(#paint17_linear_662_756)"/>
<path d="M106.7 65.8504C107.075 67.6504 108.725 69.3004 108.725 69.3004C111.05 71.4754 112.175 68.2504 117.125 68.8504C117.8 68.9254 118.325 69.3004 118.325 70.2754C118.4 72.1504 119.45 72.4504 120.425 72.9004C121.4 73.3504 120.125 76.4254 121.025 76.8004C121.55 76.9504 122.15 75.0754 122.15 75.0754C122.15 75.0754 122.9 72.0004 124.625 72.5254C126.125 72.9754 125.6 75.6754 124.775 77.3254C126.95 74.0254 130.25 67.2754 126.35 66.2254C127.175 63.3754 124.775 62.2504 124.775 62.2504C119.975 60.3004 117.8 64.6504 115.775 64.4254C113.675 64.2004 111.275 60.4504 107.9 62.8504C106.7 63.6754 106.475 64.8004 106.7 65.8504Z" fill="#894852"/>
<path d="M113.225 78.2258C113.3 78.2258 113.3 78.2258 113.3 78.3008C113 79.3508 112.25 79.6508 111.8 79.3508C111.425 79.1258 111.2 78.6008 111.425 78.4508C111.575 78.3758 111.8 78.8258 112.025 78.8258C112.775 78.9008 113 78.3758 113.225 78.2258ZM123.2 75.2258C123.5 74.0258 124.4 73.4258 125.375 73.9508C125.45 74.0258 125.375 74.1758 125.3 74.1008C124.4 73.6508 123.575 74.2508 123.35 75.3008C123.425 75.2258 123.575 75.1508 123.65 75.1508C123.875 75.1508 124.175 75.2258 124.325 75.3008C124.475 75.4508 124.475 75.6758 124.325 75.6758C124.25 75.6758 124.25 75.6008 124.25 75.6008C124.325 75.3758 123.575 75.1508 123.35 75.6008C123.2 76.3508 123.35 76.5758 123.2 76.5758C123.125 76.5758 123.125 76.5008 123.125 76.5008" fill="#E17659"/>
<path d="M115.324 75.6754C115.324 75.9754 115.099 76.2004 114.799 76.2004C114.499 76.2004 114.274 75.9754 114.274 75.6754C114.274 75.3754 114.499 75.1504 114.799 75.1504C115.099 75.1504 115.324 75.3754 115.324 75.6754Z" fill="#111D33"/>
<path d="M113.824 75.6004C114.199 75.5254 114.499 75.4504 114.799 75.3004C115.174 75.5254 115.624 75.9004 116.299 75.9004C115.849 75.3754 115.324 75.3004 114.874 75.0754C114.799 75.0004 114.799 75.0754 113.824 75.6004ZM110.824 75.6004C110.824 75.9004 110.599 76.1254 110.299 76.1254C109.999 76.1254 109.774 75.9004 109.774 75.6004C109.774 75.3004 109.999 75.0754 110.299 75.0754C110.599 75.0754 110.824 75.3004 110.824 75.6004Z" fill="#111D33"/>
<path d="M110.074 75.7507C109.924 75.7507 109.924 75.5257 110.074 75.5257C110.149 75.4507 110.224 75.7507 110.074 75.7507ZM114.649 75.7507C114.499 75.7507 114.499 75.5257 114.649 75.5257C114.724 75.4507 114.799 75.7507 114.649 75.7507Z" fill="#FBFBFB"/>
<path d="M109.325 75.5254C109.625 75.4504 110 75.3004 110.3 75.2254H110.225C110.675 75.4504 111.05 75.8254 111.725 75.9004C111.35 75.4504 110.825 75.3004 110.3 75.0754C110.225 74.9254 110.15 75.0004 109.325 75.5254ZM113.525 72.8254C113.3 72.9004 113.075 73.0504 113.075 73.3504C113.075 73.5754 113.15 73.8004 113.375 73.8754C113.75 74.1004 114.125 73.8004 114.5 73.6504C115.175 73.3504 116 73.3504 116.675 73.8004C116.825 73.8754 116.9 73.9504 117.05 74.0254C117.2 74.0254 117.35 74.0254 117.425 73.8754C117.725 73.2004 115.175 72.0754 113.525 72.8254ZM111.725 72.9754C112.4 73.2754 112.1 74.1004 111.425 73.8754C111.2 73.8004 110.3 73.1254 109.25 73.8004C109.175 73.8754 109.025 73.9504 108.95 73.9504C108.8 73.9504 108.725 73.9504 108.65 73.8004C108.35 73.2004 110.375 72.3004 111.725 72.9754Z" fill="#111D33"/>
<path d="M106.7 65.8506C107.075 67.6506 108.725 69.3006 108.725 69.3006C111.05 71.4756 112.175 68.2506 117.125 68.8506C117.8 68.9256 118.325 69.3006 118.325 70.2756C118.4 72.1506 119.45 72.4506 120.425 72.9006C121.4 73.3506 120.125 76.4256 121.025 76.8006C121.55 76.9506 122.15 75.0756 122.15 75.0756C122.15 75.0756 122.9 72.0006 124.625 72.5256C126.125 72.9756 125.6 75.6756 124.775 77.3256C125.45 76.3506 126.2 74.9256 126.875 73.5756C126.5 72.3006 125.525 71.0256 124.25 71.1756C123.65 71.2506 123.05 71.5506 122.45 71.8506C121.175 72.3756 120.2 71.9256 120.125 70.5756C120.125 70.1256 120.2 69.6756 120.125 69.1506C119.975 67.7256 118.625 66.6756 117.2 66.3756C114.35 65.8506 111.5 67.6506 108.725 67.0506C107.975 66.7506 107.225 66.3756 106.7 65.8506ZM123.275 67.2756C125.825 66.6756 126.425 66.4506 126.875 66.8256C127.25 67.1256 127.325 67.6506 127.4 68.1006C127.4 68.9256 127.775 69.9006 127.925 70.8006C128.45 68.8506 128.45 66.7506 126.425 66.2256C126.2 66.3006 124.85 66.5256 123.275 67.2756Z" fill="#51383C"/>
<path d="M113.149 80.7754C112.549 80.8504 111.949 80.8504 111.424 80.7754C111.349 80.7754 111.199 80.8504 111.274 80.9254C111.424 81.3004 111.724 81.9004 112.324 81.9004C112.924 81.9004 113.224 81.3004 113.374 80.9254C113.299 80.8504 113.224 80.7754 113.149 80.7754Z" fill="#E17659"/>
<path d="M140.525 142.575C140.525 142.575 140.75 146.7 141.875 146.4C142.4 146.25 142.4 143.925 142.25 143.475C142.475 143.625 142.475 146.175 143.15 146.025C143.9 145.875 143.675 144.075 143.525 143.625C143.75 143.775 143.975 145.575 144.5 145.575C145.025 145.575 145.25 143.925 144.95 142.8C145.175 142.95 145.25 144.9 145.7 144.825C146.45 144.75 146.825 142.2 147.05 141.375C147.575 139.35 146.45 136.5 146.375 135.675C147.275 134.4 149.975 122.25 148.025 115.575C145.85 108.15 140.525 100.425 140.525 100.425L131.6 105.675C132.425 106.425 139.325 119.1 139.4 119.175L140.6 136.5C139.625 137.925 136.475 141.225 137.75 142.2C138.8 143.025 140.225 139.05 140.525 142.575Z" fill="#F6A285"/>
<path d="M143.15 108C144.5 109.05 144.95 110.925 144.875 112.65C144.65 116.025 142.4 119.25 142.925 122.625C143.45 126.075 146.825 129.075 146 132.6C145.625 134.175 144.35 135.525 144.35 137.175C144.35 138.825 145.625 140.175 147.2 140.625C147.425 138.675 146.525 136.275 146.375 135.6C147.275 134.325 149.975 122.175 148.025 115.5C145.85 108.075 140.525 100.35 140.525 100.35L131.6 105.6C131.825 105.75 132.35 106.575 133.025 107.775C134.75 107.85 136.4 107.325 138.05 107.025C139.85 106.875 141.8 106.95 143.15 108Z" fill="url(#paint18_linear_662_756)"/>
<path d="M132.2 89.4755C136.175 90.6005 143.975 102.375 143 104.25C142.1 106.05 133.325 110.475 130.625 107.775C127.925 105.075 124.625 93.6005 124.625 93.6005C124.625 93.6005 129.875 88.8005 132.2 89.4755Z" fill="#FFDED3"/>
<path d="M108.2 38.3999C108.5 44.9249 103.25 50.3249 96.8002 50.3249C94.4752 50.3249 92.3002 49.6499 90.5002 48.4499L86.9752 49.7249C86.7502 49.7999 86.6002 49.5749 86.6002 49.3499L87.8002 45.9749C86.3002 44.0249 85.3252 41.5499 85.3252 38.9249C85.3252 32.4749 90.7252 27.2249 97.2502 27.5249C103.175 27.8249 107.9 32.6249 108.2 38.3999Z" fill="#FFC6A7"/>
<path d="M105.725 38.925C105.725 43.875 101.75 47.85 96.8 47.85C91.85 47.85 87.875 43.875 87.875 38.925C87.875 33.975 91.85 30 96.8 30C101.75 30 105.725 34.05 105.725 38.925Z" fill="#FF7E36"/>
<path d="M96.5754 36.6748C96.5754 35.3998 95.9004 34.4248 94.5504 34.4248C93.2004 34.4248 92.5254 35.3998 92.5254 36.6748C92.5254 37.9498 93.2004 38.9248 94.5504 38.9248C95.8254 38.9248 96.5754 37.8748 96.5754 36.6748ZM94.5504 35.3998C95.2254 35.3998 95.5254 35.9998 95.5254 36.5998C95.5254 37.2748 95.2254 37.7998 94.5504 37.7998C93.8754 37.7998 93.5754 37.1998 93.5754 36.5998C93.5754 35.9998 93.8754 35.3998 94.5504 35.3998ZM99.7254 34.6498C99.5004 34.4998 99.1254 34.4248 98.9004 34.7998L94.1004 42.5248C93.9504 42.7498 94.0254 42.9748 94.1754 43.1248C94.4004 43.3498 94.7754 43.2748 95.0004 42.9748L99.8004 35.3248C99.9504 35.0998 99.9504 34.7998 99.7254 34.6498ZM99.3504 38.8498C98.0004 38.8498 97.3254 39.8248 97.3254 41.0998C97.3254 42.3748 98.0004 43.3498 99.3504 43.3498C100.7 43.3498 101.375 42.3748 101.375 41.0998C101.375 39.8248 100.7 38.8498 99.3504 38.8498ZM99.3504 42.2998C98.6754 42.2998 98.3754 41.6998 98.3754 41.0998C98.3754 40.4248 98.6754 39.8998 99.3504 39.8998C100.025 39.8998 100.325 40.4998 100.325 41.0998C100.325 41.7748 100.025 42.2998 99.3504 42.2998Z" fill="white"/>
<defs>
<linearGradient id="paint0_linear_662_756" x1="41.4682" y1="94.9618" x2="50.5499" y2="94.9618" gradientUnits="userSpaceOnUse">
<stop stop-color="#FFDED3"/>
<stop offset="1" stop-color="#FFDED3"/>
</linearGradient>
<linearGradient id="paint1_linear_662_756" x1="16.9998" y1="127.846" x2="73.9488" y2="127.846" gradientUnits="userSpaceOnUse">
<stop stop-color="#FFDED3"/>
<stop offset="1" stop-color="#FFDED3"/>
</linearGradient>
<linearGradient id="paint2_linear_662_756" x1="63.4552" y1="104.236" x2="71.1374" y2="104.236" gradientUnits="userSpaceOnUse">
<stop stop-color="#FFDED3"/>
<stop offset="1" stop-color="#FFDED3"/>
</linearGradient>
<linearGradient id="paint3_linear_662_756" x1="19.811" y1="104.236" x2="27.4932" y2="104.236" gradientUnits="userSpaceOnUse">
<stop stop-color="#FFDED3"/>
<stop offset="1" stop-color="#FFDED3"/>
</linearGradient>
<linearGradient id="paint4_linear_662_756" x1="45.3053" y1="105.647" x2="46.5135" y2="106.426" gradientUnits="userSpaceOnUse">
<stop stop-color="#998F8B"/>
<stop offset="1" stop-color="#D4C5C0"/>
</linearGradient>
<linearGradient id="paint5_linear_662_756" x1="34.5883" y1="108.553" x2="35.8281" y2="109.865" gradientUnits="userSpaceOnUse">
<stop stop-color="#998F8B"/>
<stop offset="1" stop-color="#D4C5C0"/>
</linearGradient>
<linearGradient id="paint6_linear_662_756" x1="26.7466" y1="116.486" x2="27.6232" y2="117.952" gradientUnits="userSpaceOnUse">
<stop stop-color="#998F8B"/>
<stop offset="1" stop-color="#D4C5C0"/>
</linearGradient>
<linearGradient id="paint7_linear_662_756" x1="23.8681" y1="127.32" x2="24.2683" y2="128.447" gradientUnits="userSpaceOnUse">
<stop stop-color="#998F8B"/>
<stop offset="1" stop-color="#D4C5C0"/>
</linearGradient>
<linearGradient id="paint8_linear_662_756" x1="26.7356" y1="137.676" x2="27.5848" y2="139.131" gradientUnits="userSpaceOnUse">
<stop stop-color="#998F8B"/>
<stop offset="1" stop-color="#D4C5C0"/>
</linearGradient>
<linearGradient id="paint9_linear_662_756" x1="34.5568" y1="145.242" x2="35.7879" y2="146.577" gradientUnits="userSpaceOnUse">
<stop stop-color="#998F8B"/>
<stop offset="1" stop-color="#D4C5C0"/>
</linearGradient>
<linearGradient id="paint10_linear_662_756" x1="45.2301" y1="148.024" x2="46.44" y2="148.802" gradientUnits="userSpaceOnUse">
<stop stop-color="#998F8B"/>
<stop offset="1" stop-color="#D4C5C0"/>
</linearGradient>
<linearGradient id="paint11_linear_662_756" x1="55.7387" y1="145.252" x2="56.9919" y2="146.565" gradientUnits="userSpaceOnUse">
<stop stop-color="#998F8B"/>
<stop offset="1" stop-color="#D4C5C0"/>
</linearGradient>
<linearGradient id="paint12_linear_662_756" x1="63.4214" y1="137.75" x2="64.2728" y2="139.202" gradientUnits="userSpaceOnUse">
<stop stop-color="#998F8B"/>
<stop offset="1" stop-color="#D4C5C0"/>
</linearGradient>
<linearGradient id="paint13_linear_662_756" x1="66.2467" y1="127.395" x2="66.6461" y2="128.523" gradientUnits="userSpaceOnUse">
<stop stop-color="#998F8B"/>
<stop offset="1" stop-color="#D4C5C0"/>
</linearGradient>
<linearGradient id="paint14_linear_662_756" x1="63.4407" y1="116.525" x2="64.2856" y2="117.989" gradientUnits="userSpaceOnUse">
<stop stop-color="#998F8B"/>
<stop offset="1" stop-color="#D4C5C0"/>
</linearGradient>
<linearGradient id="paint15_linear_662_756" x1="55.8129" y1="108.567" x2="57.0458" y2="109.878" gradientUnits="userSpaceOnUse">
<stop stop-color="#998F8B"/>
<stop offset="1" stop-color="#D4C5C0"/>
</linearGradient>
<linearGradient id="paint16_linear_662_756" x1="41.7907" y1="127.845" x2="49.1557" y2="127.845" gradientUnits="userSpaceOnUse">
<stop stop-color="#FFDED3"/>
<stop offset="1" stop-color="#FFDED3"/>
</linearGradient>
<linearGradient id="paint17_linear_662_756" x1="105.454" y1="75.874" x2="134.944" y2="75.688" gradientUnits="userSpaceOnUse">
<stop stop-color="#FDE0BB"/>
<stop offset="1" stop-color="#FC6B58"/>
</linearGradient>
<linearGradient id="paint18_linear_662_756" x1="149.044" y1="119.111" x2="136.421" y2="122.646" gradientUnits="userSpaceOnUse">
<stop stop-color="#F6A285"/>
<stop offset="1" stop-color="#FC6B58"/>
</linearGradient>
</defs>
</svg>
