<svg width="217" height="12" viewBox="0 0 217 12" fill="none" xmlns="http://www.w3.org/2000/svg">
<path d="M0.666667 6C0.666666 8.94552 3.05448 11.3333 6 11.3333C8.94552 11.3333 11.3333 8.94552 11.3333 6C11.3333 3.05448 8.94552 0.666667 6 0.666667C3.05448 0.666666 0.666667 3.05448 0.666667 6ZM205.667 6.00002C205.667 8.94554 208.054 11.3334 211 11.3334C213.946 11.3334 216.333 8.94554 216.333 6.00002C216.333 3.0545 213.946 0.666685 211 0.666685C208.054 0.666684 205.667 3.0545 205.667 6.00002ZM6 7L211 7.00002L211 5.00002L6 5L6 7Z" fill="url(#paint0_linear_30_408)"/>
<defs>
<linearGradient id="paint0_linear_30_408" x1="6" y1="6.5" x2="211" y2="6.50002" gradientUnits="userSpaceOnUse">
<stop stop-color="#FF9F35"/>
<stop offset="0.5" stop-color="#E14956"/>
<stop offset="1" stop-color="#A53FCE"/>
</linearGradient>
</defs>
</svg>
