<svg width="50" height="50" viewBox="0 0 50 50" fill="none" xmlns="http://www.w3.org/2000/svg">
<rect x="0.125977" y="0.158203" width="49.0631" height="49.8091" rx="24.5316" fill="url(#paint0_linear_546_2693)"/>
<g clip-path="url(#clip0_546_2693)">
<path d="M34.1483 14.2391C34.529 14.2391 34.8584 14.3782 35.1366 14.6564C35.4148 14.9346 35.5539 15.2713 35.5539 15.6666V32.5114C35.5539 32.8921 35.4148 33.2215 35.1366 33.4997C34.8584 33.7779 34.529 33.917 34.1483 33.917H17.2815C16.8862 33.917 16.5531 33.7779 16.2823 33.4997C16.0114 33.2215 15.876 32.8921 15.876 32.5114V15.6666C15.876 15.2713 16.0114 14.9346 16.2823 14.6564C16.5531 14.3782 16.8862 14.2391 17.2815 14.2391H34.1483ZM21.8277 31.1059V21.7281H18.9067V31.1059H21.8277ZM20.3562 20.4324C20.8247 20.4324 21.2237 20.2677 21.5531 19.9382C21.8826 19.6088 22.0473 19.2098 22.0473 18.7413C22.0473 18.2874 21.8826 17.8921 21.5531 17.5554C21.2237 17.2186 20.8247 17.0502 20.3562 17.0502C19.8877 17.0502 19.4887 17.2186 19.1593 17.5554C18.8299 17.8921 18.6651 18.2874 18.6651 18.7413C18.6651 19.2098 18.8299 19.6088 19.1593 19.9382C19.4887 20.2677 19.8877 20.4324 20.3562 20.4324ZM32.7647 31.1059V25.9668C32.7647 24.7076 32.5487 23.6461 32.1168 22.7823C31.6849 21.9185 30.7296 21.4865 29.2508 21.4865C28.548 21.4865 27.9624 21.6476 27.4938 21.9697C27.0253 22.2918 26.6886 22.6359 26.4836 23.0019H26.4616V21.7281H23.6505V31.1059H26.5714V26.4719C26.5714 25.857 26.6739 25.3006 26.8789 24.8028C27.0839 24.305 27.567 24.0561 28.3284 24.0561C29.0751 24.0561 29.5143 24.3343 29.6461 24.8906C29.7779 25.447 29.8438 25.9961 29.8438 26.5378V31.1059H32.7647Z" fill="white"/>
</g>
<defs>
<linearGradient id="paint0_linear_546_2693" x1="0.125977" y1="25.0628" x2="49.1891" y2="25.0628" gradientUnits="userSpaceOnUse">
<stop stop-color="#EFA94A"/>
<stop offset="1" stop-color="#FF5E63"/>
</linearGradient>
<clipPath id="clip0_546_2693">
<rect width="22.489" height="22.489" fill="white" transform="matrix(1 0 0 -1 15.4717 36.3271)"/>
</clipPath>
</defs>
</svg>
