<svg width="497" height="500" viewBox="0 0 497 500" fill="none" xmlns="http://www.w3.org/2000/svg">
<g clip-path="url(#clip0_662_984)">
<path d="M333.471 178.302C333.471 178.65 333.046 178.964 332.188 179.108H330.006C329.149 178.963 328.724 178.65 328.724 178.293C328.724 177.936 329.149 177.633 330.007 177.48H332.188C333.046 177.633 333.471 177.938 333.471 178.303V178.302ZM342.966 178.302C342.966 178.65 342.541 178.964 341.683 179.108H339.499C338.64 178.963 338.216 178.65 338.216 178.293C338.216 177.936 338.64 177.633 339.499 177.48H341.681C342.54 177.633 342.964 177.938 342.964 178.303L342.966 178.302ZM352.464 178.302C352.464 178.65 352.04 178.964 351.182 179.108H349.004C348.148 178.963 347.723 178.65 347.723 178.293C347.723 177.936 348.147 177.633 349.004 177.48H351.182C352.04 177.633 352.465 177.938 352.465 178.303L352.464 178.302ZM361.956 178.302C361.956 178.65 361.532 178.964 360.673 179.108H358.491C357.633 178.963 357.208 178.65 357.208 178.293C357.208 177.936 357.633 177.633 358.491 177.48H360.673C361.532 177.633 361.956 177.938 361.956 178.303V178.302ZM371.46 178.302C371.46 178.65 371.036 178.964 370.177 179.108H367.991C367.133 178.963 366.708 178.65 366.708 178.293C366.708 177.936 367.133 177.633 367.991 177.48H370.177C371.036 177.633 371.46 177.938 371.46 178.303V178.302ZM380.966 178.302C380.966 178.65 380.542 178.964 379.682 179.108H377.496C376.638 178.963 376.213 178.65 376.213 178.293C376.213 177.936 376.638 177.633 377.496 177.48H379.682C380.542 177.633 380.966 177.938 380.966 178.303V178.302ZM390.474 178.302C390.474 178.65 390.05 178.964 389.191 179.108H387.005C386.148 178.963 385.722 178.65 385.722 178.293C385.722 177.936 386.148 177.633 387.005 177.48H389.191C390.05 177.633 390.474 177.938 390.474 178.303V178.302ZM399.986 178.302C399.986 178.65 399.561 178.964 398.701 179.108H396.515C395.655 178.963 395.23 178.65 395.23 178.293C395.23 177.936 395.655 177.633 396.514 177.48H398.7C399.561 177.633 399.986 177.938 399.986 178.303V178.302ZM402.913 184.983C402.572 184.983 402.265 184.55 402.123 183.675V181.45C402.265 180.577 402.572 180.143 402.922 180.143C403.271 180.143 403.572 180.577 403.721 181.45V183.675C403.572 184.55 403.272 184.983 402.913 184.983ZM402.913 194.663C402.572 194.663 402.265 194.23 402.123 193.355V191.13C402.265 190.256 402.572 189.823 402.922 189.823C403.271 189.823 403.572 190.256 403.721 191.13V193.355C403.572 194.23 403.272 194.663 402.913 194.663ZM402.913 204.342C402.572 204.342 402.265 203.909 402.123 203.034V200.809C402.265 199.936 402.572 199.502 402.922 199.502C403.271 199.502 403.572 199.936 403.721 200.809V203.034C403.572 203.909 403.272 204.342 402.913 204.342ZM402.913 214.022C402.572 214.022 402.265 213.589 402.123 212.714V210.489C402.265 209.615 402.572 209.182 402.922 209.182C403.271 209.182 403.572 209.615 403.721 210.489V212.714C403.572 213.589 403.272 214.022 402.913 214.022ZM402.913 223.701C402.572 223.701 402.265 223.268 402.123 222.393V220.168C402.265 219.295 402.572 218.861 402.922 218.861C403.271 218.861 403.572 219.295 403.721 220.168V222.393C403.572 223.268 403.272 223.701 402.913 223.701ZM402.913 233.381C402.572 233.381 402.265 232.948 402.123 232.073V229.848C402.265 228.974 402.572 228.541 402.922 228.541C403.271 228.541 403.572 228.974 403.721 229.848V232.073C403.572 232.948 403.272 233.381 402.913 233.381ZM402.913 240.544C402.572 240.544 402.265 240.335 402.123 239.916V238.848C402.265 238.429 402.572 238.221 402.922 238.221C403.271 238.221 403.572 238.429 403.721 238.848V239.916C403.572 240.335 403.272 240.545 402.913 240.545V240.544ZM408.401 194.041C408.401 194.388 407.975 194.703 407.116 194.847H404.932C404.073 194.701 403.649 194.388 403.649 194.032C403.649 193.677 404.073 193.372 404.932 193.219H407.116C407.975 193.372 408.399 193.677 408.399 194.042L408.401 194.041ZM417.904 194.041C417.904 194.388 417.479 194.703 416.62 194.847H414.435C413.577 194.701 413.153 194.388 413.153 194.032C413.153 193.677 413.577 193.372 414.435 193.219H416.62C417.479 193.372 417.903 193.677 417.903 194.042L417.904 194.041ZM427.408 194.041C427.408 194.388 426.983 194.703 426.124 194.847H423.939C423.08 194.701 422.656 194.388 422.656 194.032C422.656 193.677 423.08 193.372 423.939 193.219H426.124C426.983 193.372 427.407 193.677 427.407 194.042L427.408 194.041ZM436.912 194.041C436.912 194.388 436.487 194.703 435.628 194.847H433.443C432.584 194.701 432.16 194.388 432.16 194.032C432.16 193.677 432.584 193.372 433.443 193.219H435.628C436.487 193.372 436.911 193.677 436.911 194.042L436.912 194.041ZM446.416 194.041C446.416 194.388 445.99 194.703 445.131 194.847H442.947C442.088 194.701 441.664 194.388 441.664 194.032C441.664 193.677 442.088 193.372 442.947 193.219H445.131C445.99 193.372 446.414 193.677 446.414 194.042L446.416 194.041ZM455.919 194.041C455.919 194.388 455.494 194.703 454.635 194.847H452.45C451.592 194.701 451.167 194.388 451.167 194.032C451.167 193.677 451.592 193.372 452.45 193.219H454.635C455.494 193.372 455.918 193.677 455.918 194.042L455.919 194.041ZM465.423 194.041C465.423 194.388 464.998 194.703 464.139 194.847H461.954C461.095 194.701 460.671 194.388 460.671 194.032C460.671 193.677 461.095 193.372 461.954 193.219H464.139C464.998 193.372 465.422 193.677 465.422 194.042L465.423 194.041ZM474.927 194.041C474.927 194.388 474.501 194.703 473.643 194.847H471.458C470.599 194.701 470.175 194.388 470.175 194.032C470.175 193.677 470.599 193.372 471.458 193.219H473.643C474.501 193.372 474.926 193.677 474.926 194.042L474.927 194.041ZM484.43 194.041C484.43 194.388 484.005 194.703 483.146 194.847H480.962C480.103 194.701 479.679 194.388 479.679 194.032C479.679 193.677 480.103 193.372 480.962 193.219H483.146C484.005 193.372 484.429 193.677 484.429 194.042L484.43 194.041ZM493.934 194.041C493.934 194.388 493.509 194.703 492.65 194.847H490.465C489.606 194.701 489.182 194.388 489.182 194.032C489.182 193.677 489.606 193.372 490.465 193.219H492.65C493.509 193.372 493.933 193.677 493.933 194.042L493.934 194.041ZM496.182 186.7C496.523 186.698 496.835 187.128 496.983 188.002L497 190.225C496.866 191.099 496.561 191.534 496.212 191.537C495.862 191.54 495.558 191.11 495.403 190.237L495.385 188.014C495.527 187.138 495.824 186.704 496.182 186.7ZM496.111 177.018C496.452 177.016 496.763 177.446 496.91 178.321L496.927 180.548C496.791 181.424 496.487 181.859 496.137 181.862C495.787 181.865 495.484 181.433 495.329 180.56L495.312 178.333C495.456 177.456 495.752 177.021 496.111 177.018ZM496.045 167.333C496.386 167.33 496.697 167.761 496.845 168.637L496.859 170.863C496.724 171.739 496.418 172.175 496.069 172.177C495.72 172.18 495.417 171.748 495.261 170.874L495.247 168.648C495.391 167.769 495.686 167.335 496.045 167.333ZM495.987 157.67C496.328 157.666 496.638 158.097 496.785 158.971L496.797 161.191C496.662 162.066 496.356 162.499 496.007 162.501C495.657 162.504 495.355 162.073 495.199 161.201L495.188 158.98C495.331 158.106 495.628 157.672 495.987 157.67ZM495.936 147.99C496.277 147.988 496.587 148.42 496.732 149.295L496.744 151.521C496.607 152.398 496.301 152.833 495.951 152.835C495.602 152.836 495.3 152.404 495.146 151.531L495.134 149.304C495.28 148.427 495.577 147.992 495.936 147.99ZM495.894 138.313C496.234 138.312 496.544 138.744 496.689 139.618L496.699 141.843C496.561 142.718 496.254 143.152 495.905 143.153C495.555 143.154 495.254 142.724 495.101 141.849L495.091 139.625C495.237 138.749 495.536 138.315 495.893 138.313H495.894ZM495.862 128.634C496.203 128.633 496.513 129.065 496.657 129.941L496.663 132.164C496.524 133.039 496.217 133.472 495.867 133.474C495.517 133.475 495.217 133.043 495.065 132.169L495.059 129.944C495.207 129.068 495.505 128.635 495.862 128.634ZM495.847 118.952C496.189 118.952 496.497 119.384 496.639 120.259L496.642 122.485C496.501 123.36 496.194 123.793 495.844 123.793C495.495 123.793 495.195 123.361 495.044 122.486L495.041 120.261C495.191 119.386 495.489 118.952 495.848 118.952H495.847ZM495.859 109.264C496.198 109.264 496.506 109.7 496.646 110.576L496.642 112.802C496.499 113.678 496.19 114.11 495.84 114.11C495.49 114.11 495.192 113.674 495.044 112.799L495.047 110.573C495.199 109.696 495.499 109.264 495.858 109.264H495.859ZM495.917 99.5808C496.258 99.5845 496.562 100.021 496.697 100.897L496.68 103.121C496.531 103.993 496.219 104.425 495.869 104.423C495.52 104.421 495.224 103.986 495.081 103.109L495.1 100.883C495.256 100.007 495.559 99.576 495.917 99.5808ZM495.403 91.1088C495.386 90.9358 495.48 90.7628 495.66 90.5994C495.741 90.5184 495.878 90.4313 495.922 90.3599C495.926 90.372 495.916 90.3187 495.932 90.3841C495.955 90.453 495.98 90.5232 496.012 90.5922C496.047 90.6938 496.097 90.789 496.162 90.8741C496.204 90.937 496.238 90.9031 496.184 90.9322L496.168 90.9455L496.16 90.954L496.158 90.9588L496.209 90.9068C496.215 90.9128 496.229 90.9068 496.226 90.8983C496.242 90.9256 496.264 90.9483 496.291 90.9644C496.318 90.9804 496.349 90.9893 496.38 90.9903C496.471 91.0205 496.601 91.0798 496.715 91.1088L496.896 91.1524C496.92 91.1548 496.905 91.1451 496.912 91.1451L496.921 91.1851L496.933 91.3061C496.867 91.9715 496.845 92.7326 496.82 93.4597C496.651 94.3224 496.335 94.7483 495.985 94.7399C495.637 94.7314 495.345 94.2922 495.222 93.4065C495.25 92.6515 495.267 91.9292 495.347 91.1185L495.403 90.9237C495.426 90.8584 495.442 90.7906 495.518 90.6152C495.578 90.4816 495.671 90.3658 495.787 90.2788C495.919 90.1859 496.077 90.1383 496.237 90.1429C496.397 90.1474 496.552 90.204 496.678 90.3042C496.819 90.4313 496.79 90.4252 496.845 90.499C496.899 90.5882 496.935 90.6877 496.951 90.7915C496.966 90.8953 496.961 91.0012 496.935 91.1028C496.852 91.369 496.773 91.4016 496.686 91.4936C496.442 91.663 496.39 91.6267 496.309 91.6485C496.044 91.6666 495.913 91.611 495.783 91.5601C495.539 91.4488 495.42 91.2903 495.403 91.1088ZM485.907 91.2661C485.909 90.9189 486.335 90.6043 487.192 90.4603H489.37C490.227 90.6055 490.653 90.9189 490.657 91.2746C490.66 91.6303 490.237 91.9352 489.377 92.0877H487.189C486.328 91.9352 485.905 91.6303 485.906 91.2649L485.907 91.2661ZM476.405 91.1403C476.41 90.793 476.841 90.4869 477.702 90.3563L479.887 90.3913C480.742 90.5486 481.164 90.8693 481.158 91.2262C481.152 91.5819 480.722 91.8796 479.862 92.0187L477.676 91.9824C476.82 91.8167 476.4 91.5045 476.405 91.1403ZM466.9 90.9322C466.908 90.5849 467.339 90.2812 468.203 90.1578L470.386 90.2086C471.242 90.3732 471.66 90.6975 471.652 91.0532C471.644 91.4089 471.212 91.7041 470.35 91.836L468.166 91.7852C467.311 91.6122 466.891 91.2964 466.9 90.9322ZM169.235 343.644C169.218 343.296 169.628 342.966 170.469 342.77C171.181 342.73 171.892 342.671 172.601 342.593C173.017 342.618 173.324 342.682 173.524 342.775C173.738 342.862 173.784 343.012 173.936 343.125C174.089 343.236 173.967 343.536 173.76 343.715C173.547 343.913 173.22 344.083 172.784 344.211C172.032 344.297 171.299 344.349 170.565 344.394C169.691 344.295 169.252 344.007 169.235 343.644ZM159.742 343.926C159.736 343.578 160.154 343.254 161.008 343.091L163.187 343.042C164.047 343.167 164.48 343.471 164.49 343.826C164.499 344.182 164.082 344.497 163.227 344.67L161.041 344.718C160.177 344.585 159.747 344.29 159.742 343.926ZM150.241 344.048C150.238 343.701 150.66 343.382 151.517 343.229L153.701 343.206C154.561 343.341 154.988 343.65 154.993 344.007C154.996 344.362 154.574 344.672 153.717 344.833L151.534 344.857C150.673 344.712 150.245 344.412 150.241 344.047V344.048ZM140.736 344.105C140.735 343.757 141.159 343.442 142.018 343.294L144.202 343.282C145.062 343.423 145.488 343.734 145.489 344.09C145.491 344.446 145.068 344.753 144.209 344.91L142.025 344.92C141.165 344.773 140.739 344.469 140.736 344.105ZM131.228 344.122C131.228 343.774 131.652 343.461 132.512 343.316L134.698 343.313C135.557 343.456 135.982 343.77 135.983 344.125C135.983 344.482 135.558 344.787 134.7 344.941L132.514 344.943C131.654 344.791 131.228 344.487 131.228 344.122ZM121.716 344.113C121.716 343.766 122.144 343.453 123.004 343.31L125.189 343.313C126.048 343.459 126.473 343.773 126.473 344.129C126.473 344.485 126.045 344.789 125.186 344.941L123 344.937C122.141 344.783 121.715 344.477 121.716 344.113ZM112.205 344.084C112.205 343.737 112.633 343.425 113.493 343.283L115.679 343.292C116.538 343.438 116.962 343.754 116.96 344.11C116.959 344.465 116.533 344.769 115.673 344.919L113.487 344.91C112.627 344.756 112.204 344.448 112.204 344.084H112.205ZM102.693 344.039C102.695 343.692 103.122 343.381 103.982 343.241L106.168 343.253C107.027 343.4 107.451 343.716 107.448 344.072C107.446 344.428 107.021 344.731 106.159 344.879L103.974 344.868C103.115 344.711 102.691 344.405 102.693 344.039ZM93.1964 343.982C93.1988 343.635 93.6241 343.324 94.4853 343.185L96.6676 343.2C97.5253 343.348 97.9482 343.665 97.9459 344.021C97.9435 344.377 97.5182 344.679 96.6581 344.827L94.4746 344.814C93.6169 344.655 93.194 344.347 93.1964 343.982ZM83.6855 343.915C83.6879 343.567 84.1156 343.257 84.9769 343.119L87.1627 343.135C88.0228 343.286 88.4457 343.603 88.4433 343.958C88.4398 344.314 88.0121 344.616 87.152 344.763L84.9662 344.746C84.1061 344.587 83.6832 344.279 83.6855 343.915ZM74.1818 343.837C74.1854 343.49 74.613 343.18 75.4731 343.044L77.6566 343.062C78.5143 343.213 78.9372 343.53 78.9337 343.886C78.9313 344.241 78.5036 344.544 77.6435 344.689L75.4601 344.671C74.6023 344.511 74.1794 344.203 74.1818 343.837ZM64.6781 343.753C64.6816 343.405 65.1093 343.096 65.9706 342.959L68.1541 342.979C69.0118 343.131 69.4335 343.449 69.4299 343.805C69.4264 344.16 68.9999 344.462 68.1398 344.607L65.9551 344.586C65.0974 344.425 64.6757 344.117 64.6781 343.751V343.753ZM55.1744 343.659C55.1779 343.312 55.6056 343.002 56.4669 342.867L58.6503 342.889C59.5081 343.041 59.9298 343.361 59.9262 343.715C59.9226 344.072 59.495 344.372 58.6349 344.516L56.4514 344.494C55.5925 344.333 55.1708 344.025 55.1744 343.659ZM45.6694 343.56C45.673 343.213 46.1007 342.904 46.9619 342.769L49.1466 342.793C50.0031 342.946 50.426 343.264 50.4213 343.62C50.4177 343.975 49.9901 344.276 49.13 344.419L46.9453 344.396C46.0876 344.234 45.6659 343.924 45.6694 343.561V343.56ZM36.161 343.455C36.1645 343.108 36.5934 342.798 37.4558 342.664L39.6405 342.688C40.4982 342.843 40.9188 343.161 40.9152 343.517C40.9116 343.872 40.4828 344.174 39.6227 344.315L37.4368 344.291C36.5791 344.129 36.1574 343.819 36.161 343.455ZM26.6525 343.342C26.6572 342.995 27.0861 342.687 27.9474 342.554L30.1308 342.579C30.9874 342.734 31.4091 343.052 31.4043 343.408C31.4008 343.763 30.9719 344.064 30.1118 344.206L27.9284 344.181C27.0706 344.018 26.6489 343.708 26.6525 343.342ZM17.1452 343.225C17.1499 342.877 17.5788 342.569 18.4401 342.436L20.6259 342.463C21.4836 342.618 21.9042 342.937 21.9006 343.293C21.8959 343.649 21.467 343.949 20.6057 344.091L18.4199 344.064C17.5622 343.9 17.1416 343.589 17.1452 343.225ZM8.90426 344.424C8.5645 344.339 8.25801 344.347 8.11545 342.302L8.13327 342.301L11.1162 342.341C11.9728 342.495 12.3945 342.815 12.3898 343.172C12.385 343.528 11.9561 343.826 11.0949 343.968L10.0031 343.953L9.72989 343.95H9.71207L9.71089 343.947C9.56001 343.638 9.26065 344.51 8.90426 344.424ZM8.90426 354.104C8.56331 354.104 8.25563 353.669 8.11426 352.794V350.571C8.25563 349.696 8.56331 349.264 8.91257 349.264C9.26183 349.264 9.56239 349.696 9.71207 350.571V352.794C9.56239 353.669 9.26302 354.104 8.90426 354.104ZM8.90426 363.783C8.56331 363.783 8.25563 363.349 8.11426 362.474V360.25C8.25563 359.375 8.56331 358.943 8.91257 358.943C9.26183 358.943 9.56239 359.375 9.71207 360.25V362.474C9.56239 363.349 9.26302 363.783 8.90426 363.783ZM8.90426 373.463C8.56331 373.463 8.25563 373.028 8.11426 372.153V369.93C8.25563 369.055 8.56331 368.623 8.91257 368.623C9.26183 368.623 9.56239 369.055 9.71207 369.93V372.153C9.56239 373.028 9.26302 373.463 8.90426 373.463ZM8.90426 383.142C8.56331 383.142 8.25563 382.708 8.11426 381.833V379.609C8.25563 378.734 8.56331 378.302 8.91257 378.302C9.26183 378.302 9.56239 378.734 9.71207 379.609V381.833C9.56239 382.708 9.26302 383.142 8.90426 383.142ZM8.90426 392.822C8.56331 392.822 8.25563 392.387 8.11426 391.513V389.289C8.25563 388.414 8.56331 387.982 8.91257 387.982C9.26183 387.982 9.56239 388.414 9.71207 389.289V391.513C9.56239 392.387 9.26302 392.822 8.90426 392.822ZM10.3322 400.846C10.3358 401.02 10.2312 401.185 10.0257 401.331C9.89264 401.407 9.87958 401.464 9.52794 401.544C9.41865 401.672 9.45666 401.314 9.45072 401.079V400.882C9.44478 400.861 9.43053 400.877 9.41984 400.874L9.35093 400.88C9.25085 400.888 9.1513 400.902 9.05275 400.921C9.00286 400.937 8.93752 400.942 8.91138 400.994L8.91257 401.003V401.008L8.39818 401.631V401.629L8.39581 401.626L8.38393 401.599L8.36017 401.545L8.31027 401.438L8.11426 401.008V398.967C8.25563 398.093 8.56331 397.66 8.91257 397.66C9.26183 397.66 9.56239 398.093 9.71207 398.967V400.041C9.69647 400.061 9.68653 400.085 9.68338 400.11C9.68024 400.135 9.684 400.16 9.69425 400.183C9.66574 400.24 9.91997 400.293 9.99956 400.362C10.2217 400.498 10.3298 400.664 10.3322 400.846ZM19.8264 401.089C19.8133 401.436 19.3774 401.735 18.5149 401.849L16.335 401.772C15.4832 401.597 15.0674 401.268 15.0781 400.913C15.0888 400.557 15.5224 400.268 16.3861 400.145L18.5719 400.223C19.4273 400.404 19.8395 400.725 19.8264 401.089ZM29.2969 401.473C29.2826 401.82 28.8455 402.116 27.9842 402.225L25.8066 402.136C24.9572 401.957 24.5462 401.626 24.5593 401.271C24.5735 400.915 25.0095 400.627 25.8708 400.51L28.0483 400.599C28.8989 400.787 29.3099 401.109 29.2957 401.473H29.2969ZM38.7935 401.836C38.7816 402.183 38.3444 402.481 37.4796 402.593L35.2949 402.513C34.442 402.338 34.0274 402.009 34.0404 401.653C34.0523 401.297 34.4883 401.008 35.3531 400.887L37.5378 400.967C38.392 401.151 38.8054 401.472 38.7935 401.836ZM48.2948 402.108C48.2877 402.455 47.8553 402.758 46.9928 402.88L44.8046 402.825C43.9493 402.66 43.5323 402.335 43.5418 401.98C43.5513 401.624 43.9849 401.33 44.8462 401.198L47.0285 401.254C47.8838 401.428 48.302 401.743 48.2948 402.108ZM57.8009 402.15C57.8081 402.498 57.3875 402.813 56.5251 402.961L54.3309 402.973C53.4684 402.833 53.0443 402.522 53.0467 402.166C53.0491 401.809 53.4744 401.502 54.3297 401.346L56.5061 401.334C57.3638 401.482 57.7938 401.785 57.8009 402.15ZM65.6546 399.365C65.9848 399.406 66.2866 399.832 66.2711 400.815C66.2498 400.923 66.2308 401.023 66.1904 401.168C66.1673 401.348 66.1003 401.519 65.9955 401.665C65.8102 401.951 65.4015 402.161 65.164 402.243C64.7708 402.38 64.3665 402.48 63.9558 402.544C63.0339 402.544 62.5861 402.253 62.5504 401.905C62.5148 401.547 62.9187 401.216 63.6933 400.937C64.0259 400.881 64.3609 400.808 64.608 400.718L64.6603 400.697V400.698L64.7018 400.511C64.9751 399.766 65.2923 399.32 65.6546 399.365ZM66.0609 389.7C66.4018 389.71 66.6976 390.15 66.8129 391.031L66.7475 393.257C66.5812 394.128 66.2605 394.549 65.91 394.536C65.5619 394.523 65.2744 394.079 65.1497 393.203L65.215 390.985C65.3909 390.117 65.7021 389.693 66.0609 389.701V389.7ZM66.2248 380.027C66.5658 380.031 66.8663 380.468 66.997 381.345L66.9649 383.568C66.8105 384.44 66.4969 384.869 66.1476 384.863C65.7983 384.858 65.5049 384.421 65.3671 383.545L65.398 381.322C65.5607 380.449 65.866 380.022 66.2248 380.027ZM66.3115 370.351C66.6525 370.353 66.9578 370.789 67.092 371.665L67.0754 373.889C66.9269 374.762 66.6157 375.193 66.2664 375.189C65.9171 375.187 65.6201 374.751 65.4776 373.876L65.4942 371.653C65.651 370.778 65.954 370.347 66.3115 370.351ZM66.3579 360.674C66.6988 360.675 67.0053 361.109 67.1431 361.985L67.1348 364.21C66.9899 365.084 66.6798 365.517 66.3305 365.515C65.9813 365.513 65.6831 365.079 65.537 364.204L65.5453 361.978C65.6985 361.104 66.0003 360.672 66.3579 360.674ZM66.3757 350.99C66.7178 350.99 67.0243 351.425 67.1645 352.301L67.1621 354.526C67.0196 355.401 66.7107 355.833 66.3614 355.833C66.0122 355.833 65.7128 355.398 65.5643 354.523L65.5667 352.298C65.7176 351.422 66.0181 350.99 66.3757 350.992V350.99Z" fill="#8F9091"/>
<path d="M66.3741 341.304C66.715 341.304 67.0239 341.738 67.1653 342.612L67.1665 344.839C67.0263 345.713 66.7186 346.148 66.3693 346.148C66.0189 346.148 65.7195 345.715 65.5686 344.84V342.613C65.7171 341.738 66.0165 341.304 66.3741 341.304ZM66.3574 331.618C66.6984 331.618 67.0073 332.05 67.151 332.924L67.1558 335.151C67.0156 336.027 66.7091 336.46 66.3598 336.461C66.0106 336.462 65.7088 336.029 65.5568 335.154L65.5532 332.929C65.7005 332.053 65.9999 331.619 66.3574 331.619V331.618ZM66.3277 321.931C66.6687 321.931 66.9787 322.362 67.1237 323.238L67.1308 325.464C66.9918 326.339 66.6853 326.773 66.3349 326.774C65.9856 326.774 65.6851 326.343 65.5318 325.467L65.5247 323.242C65.672 322.366 65.9702 321.932 66.3277 321.931ZM66.2885 312.254C66.6295 312.253 66.9395 312.683 67.0845 313.557L67.094 315.778C66.9562 316.653 66.6509 317.086 66.3016 317.089C65.9512 317.09 65.6506 316.659 65.4962 315.786L65.4867 313.564C65.6328 312.689 65.931 312.255 66.2885 312.254ZM66.2398 302.578C66.5808 302.575 66.892 303.007 67.0381 303.881L67.05 306.105C66.9122 306.981 66.6069 307.415 66.2565 307.416C65.906 307.418 65.6055 306.987 65.451 306.114L65.4391 303.889C65.5853 303.013 65.8823 302.579 66.2398 302.578ZM66.184 292.892C66.5249 292.889 66.8362 293.321 66.9823 294.195L66.9954 296.422C66.86 297.299 66.5546 297.733 66.2042 297.736C65.8549 297.738 65.5532 297.306 65.3976 296.433L65.3857 294.206C65.5282 293.329 65.8252 292.895 66.184 292.892ZM66.1222 283.213C66.4632 283.209 66.7732 283.64 66.9205 284.515L66.936 286.739C66.7994 287.615 66.4952 288.049 66.1448 288.051C65.7943 288.054 65.4938 287.623 65.337 286.749L65.3227 284.526C65.4665 283.65 65.7635 283.215 66.1222 283.213ZM66.0521 273.533C66.3943 273.53 66.7055 273.96 66.8528 274.835L66.8695 277.059C66.734 277.935 66.4299 278.369 66.0795 278.372C65.729 278.374 65.4273 277.945 65.2716 277.071L65.255 274.847C65.3976 273.97 65.6946 273.536 66.0533 273.532L66.0521 273.533ZM65.9785 263.854C66.3194 263.85 66.6319 264.281 66.7792 265.154L66.797 267.379C66.6627 268.254 66.3574 268.69 66.0082 268.692C65.6589 268.696 65.3548 268.265 65.1992 267.392L65.1814 265.168C65.3239 264.291 65.6209 263.857 65.9785 263.854ZM65.9001 254.173C66.241 254.169 66.5523 254.6 66.7008 255.474L66.7198 257.699C66.5855 258.575 66.2802 259.01 65.931 259.013C65.5817 259.015 65.2788 258.586 65.122 257.712L65.103 255.488C65.2455 254.611 65.5437 254.175 65.9001 254.173ZM65.8145 244.491C66.1567 244.489 66.4679 244.918 66.6176 245.793L66.6378 248.018C66.5036 248.893 66.1983 249.33 65.8502 249.332C65.4997 249.336 65.1968 248.905 65.0388 248.033L65.0198 245.806C65.1624 244.93 65.457 244.495 65.8145 244.491ZM65.7266 234.808C66.0676 234.806 66.38 235.235 66.5297 236.11L66.5499 238.335C66.4168 239.211 66.1127 239.646 65.7635 239.65C65.4142 239.654 65.1101 239.223 64.9521 238.351L64.9319 236.124C65.0744 235.247 65.3679 234.812 65.7266 234.808ZM65.634 225.125C65.9749 225.121 66.2874 225.552 66.437 226.425L66.4584 228.649C66.3254 229.525 66.0224 229.961 65.6732 229.965C65.3239 229.968 65.0198 229.539 64.8606 228.666L64.8392 226.441C64.9806 225.564 65.2764 225.128 65.634 225.125ZM65.5366 215.444C65.8775 215.44 66.1899 215.87 66.3396 216.745L66.3634 218.969C66.2303 219.845 65.9262 220.281 65.5769 220.285C65.2277 220.289 64.9236 219.859 64.7644 218.986L64.7418 216.76C64.8832 215.884 65.1778 215.448 65.5366 215.444ZM65.4332 205.756C65.7742 205.752 66.0866 206.182 66.2375 207.056L66.2612 209.282C66.1305 210.159 65.8264 210.595 65.4772 210.599C65.1279 210.603 64.8238 210.174 64.6634 209.3L64.6396 207.074C64.7798 206.197 65.0756 205.761 65.4332 205.756Z" fill="#8F9090"/>
<path d="M336.569 195.287H337.416C338.753 195.287 340.036 194.746 340.981 193.783C341.927 192.819 342.458 191.513 342.459 190.151V173.911C342.459 171.074 340.201 168.774 337.416 168.774H336.569V195.288V195.287ZM135.637 157.646H134.79C133.453 157.646 132.17 158.187 131.224 159.15C130.278 160.114 129.746 161.42 129.746 162.782V179.021C129.746 181.858 132.004 184.158 134.79 184.158H135.637V157.646ZM135.637 123.625H134.79C133.453 123.625 132.17 124.166 131.224 125.129C130.278 126.092 129.746 127.399 129.746 128.761V145.001C129.746 147.838 132.004 150.138 134.79 150.138H135.637V123.625Z" fill="#2E363A"/>
<path d="M336.568 86.9058V433.869C336.568 447.452 325.759 458.37 312.683 458.37H159.699C146.45 458.37 135.641 447.452 135.641 433.869V86.9058C135.641 73.5009 146.45 62.4893 159.699 62.4893H312.683C325.759 62.4893 336.568 73.5009 336.568 86.9058Z" fill="#4A5258"/>
<path d="M312.352 71.1074H250.482C248.084 71.1074 246.17 72.7699 245.26 75.0288C244.48 76.9475 243.157 78.5865 241.46 79.7377C239.763 80.8888 237.768 81.5 235.729 81.4935C231.496 81.4935 227.815 78.8353 226.285 75.0325C225.376 72.7711 223.461 71.1074 221.062 71.1074H159.281C150.374 71.1074 143.154 78.4602 143.154 87.5311V434.497C143.154 443.639 150.476 451.1 159.281 451.1H312.178C321.095 451.1 328.391 443.669 328.391 434.586V87.5323C328.391 78.4759 321.157 71.1074 312.352 71.1074Z" fill="#FC8C29"/>
<path d="M316.707 374.075V146.446C316.707 142.938 313.913 140.092 310.467 140.092H161.743C160.924 140.092 160.112 140.256 159.355 140.576C158.598 140.895 157.911 141.363 157.331 141.953C156.752 142.543 156.292 143.244 155.979 144.015C155.665 144.786 155.504 145.612 155.504 146.446V374.075C155.504 377.583 158.297 380.429 161.743 380.429H310.467C313.913 380.429 316.707 377.583 316.707 374.075Z" fill="#FAE0B9"/>
<path d="M306.609 302.062C306.612 302.657 306.498 303.246 306.273 303.795C306.048 304.344 305.716 304.841 305.299 305.257C304.891 305.682 304.403 306.019 303.864 306.248C303.325 306.478 302.746 306.594 302.163 306.591H173.936C172.757 306.59 171.627 306.112 170.793 305.263C169.959 304.414 169.491 303.263 169.489 302.062C169.489 300.802 169.981 299.676 170.798 298.856C171.208 298.433 171.697 298.097 172.235 297.868C172.773 297.639 173.351 297.521 173.935 297.521H302.164C303.344 297.524 304.475 298.004 305.309 298.855C306.142 299.707 306.61 300.86 306.609 302.062ZM306.609 324.865C306.612 325.46 306.498 326.049 306.273 326.598C306.048 327.146 305.716 327.643 305.299 328.059C304.891 328.484 304.403 328.822 303.864 329.051C303.325 329.28 302.746 329.397 302.163 329.394H173.936C172.757 329.392 171.627 328.914 170.793 328.065C169.96 327.216 169.491 326.066 169.489 324.865C169.489 323.604 169.981 322.478 170.798 321.659C171.208 321.236 171.697 320.9 172.235 320.671C172.773 320.441 173.351 320.324 173.935 320.324H302.164C303.344 320.327 304.475 320.806 305.309 321.658C306.142 322.509 306.61 323.663 306.609 324.865ZM238.043 347.666C238.046 348.261 237.932 348.85 237.707 349.399C237.482 349.948 237.151 350.445 236.734 350.86C236.326 351.286 235.838 351.623 235.299 351.852C234.76 352.082 234.182 352.198 233.598 352.195H173.936C172.757 352.194 171.627 351.716 170.793 350.867C169.959 350.018 169.491 348.867 169.489 347.666C169.489 346.405 169.981 345.279 170.798 344.46C171.208 344.037 171.697 343.701 172.235 343.472C172.773 343.243 173.351 343.125 173.935 343.125H233.598C234.778 343.128 235.91 343.608 236.743 344.459C237.577 345.31 238.044 346.464 238.043 347.666Z" fill="white"/>
<path d="M212.493 210.211L217.744 279.715H293.36L298.61 210.211H212.493Z" fill="#FFCF3D"/>
<path d="M298.395 213.331L298.61 210.211H212.494L212.708 213.333L298.395 213.331Z" fill="#FCC230"/>
<path d="M300.911 210.211L302.725 191.901H208.379L210.193 210.211H300.911Z" fill="#FFCF3D"/>
<path d="M289.791 230.644C284.87 233.037 280.882 237.357 278.826 242.506C274.375 239.296 269.632 235.695 268.097 230.361C267.032 226.673 267.696 222.736 267.96 218.896C268.155 216.025 268.119 213.057 267.689 210.213C267.452 208.628 267.095 207.068 266.599 205.547C265.198 201.276 262.593 197.328 258.897 194.86C258.446 194.561 257.978 194.285 257.5 194.032H265.417C270.083 196.275 273.964 200.266 275.788 205.196C276.752 207.804 277.185 210.614 277.571 213.331C278.177 217.609 278.773 222.052 281.099 225.66C283.012 228.632 286.314 230.9 289.791 230.645V230.644Z" fill="#FCC230"/>
<path d="M277.571 213.331H268.008C267.95 212.287 267.844 211.247 267.689 210.213H277.086C277.27 211.247 277.422 212.289 277.571 213.331Z" fill="#EFAF22"/>
<path d="M249.037 191.904H262.066V279.714H249.037V191.904Z" fill="white"/>
<path d="M249.037 210.213H262.066V213.331H249.037V210.213Z" fill="#F3F6FD"/>
<path d="M260.786 191.901C258.259 185.545 257.444 178.486 258.494 171.709C259.67 164.099 263.343 161.921 269.462 163.027C276.505 164.303 279.33 168.232 277.031 175.255C274.733 182.235 269.777 188.264 263.431 191.797L263.526 191.901H270.704C275.313 187.787 279.148 182.736 282.395 177.475C286.795 170.356 288.476 162.259 282.098 157.021C281.034 156.145 279.94 155.295 278.692 154.605C275.73 152.959 272.468 151.834 269.055 152.018C258.556 152.586 251.519 162.78 252.586 173.563L252.59 173.627C253.241 179.96 255.474 185.986 257.811 191.901H260.786Z" fill="#A98B41"/>
<path d="M230.666 184.871C231.704 187.75 233.969 190.033 236.336 191.832L236.429 191.901H242.394C241.297 191.009 240.292 190.006 239.394 188.906C238.275 187.525 237.287 185.873 237.365 184.088C237.466 181.717 239.387 179.857 241.38 178.628C245.237 176.254 248.277 176.754 251.018 181.585C252.813 184.76 253.971 188.267 254.423 191.901H256.668C256.641 188.324 256.415 184.755 255.502 181.314C255.497 181.301 255.493 181.281 255.487 181.269C253.448 173.695 246.081 168.674 238.837 171.078C236.481 171.86 234.564 173.486 232.984 175.385C232.316 176.185 231.793 177.05 231.299 177.925C230.175 179.906 229.854 182.287 230.532 184.471C230.571 184.606 230.615 184.737 230.666 184.87V184.871Z" fill="#A98B41"/>
<path d="M283.021 223.531C281.109 220.562 280.35 216.986 279.82 213.476C279.289 209.967 278.938 206.386 277.709 203.064C275.887 198.135 272.004 194.144 267.337 191.904H259.419C263.813 194.197 266.938 198.59 268.521 203.417C269.922 207.688 270.188 212.275 269.879 216.766C269.616 220.602 268.954 224.541 270.017 228.232C271.553 233.563 276.294 237.167 280.749 240.374C282.799 235.226 286.79 230.908 291.711 228.513C288.234 228.771 284.933 226.501 283.021 223.531Z" fill="white"/>
<path d="M177.096 247.473H207.213V279.715H177.096V247.473Z" fill="#FE7B73"/>
<path d="M177.096 247.473H207.213V248.921H177.096V247.473Z" fill="#FE4C40"/>
<path d="M177.096 238.979H207.213V247.472H177.096V238.979Z" fill="#FE7B73"/>
<path d="M207.213 247.473H243.94V279.715H207.213V247.473Z" fill="#FE4C40"/>
<path d="M207.213 247.473H243.94V248.921H207.213V247.473Z" fill="#EA241F"/>
<path d="M207.213 238.979H243.94V247.472H207.213V238.979Z" fill="#FE4C40"/>
<path d="M188.842 238.98H195.006V279.715H188.842V238.98Z" fill="white"/>
<path d="M188.842 247.473H195.006V248.921H188.842V247.473Z" fill="#E4ECF9"/>
<path d="M224.794 238.98H230.958V279.715H224.794V238.98Z" fill="white"/>
<path d="M224.794 247.473H230.958V248.921H224.794V247.473Z" fill="#E4ECF9"/>
<path d="M208.011 238.98C208.709 236.736 209.84 234.634 211.027 233.075C212.127 231.536 214.09 229.597 216.235 228.337C216.909 227.964 217.648 227.692 218.386 227.724C219.123 227.751 219.812 228.141 220.292 228.716C221.318 229.893 221.315 231.607 220.798 233.076C220.274 234.555 219.296 235.842 218.372 237.133C217.909 237.76 217.431 238.376 216.94 238.98H218.947C219.2 238.709 219.452 238.435 219.698 238.154C220.241 237.525 220.761 236.913 221.274 236.202C221.834 235.451 222.296 234.629 222.649 233.758C223.94 230.485 222.746 227.367 220.387 226.147C219.794 225.836 219.141 225.662 218.474 225.638C214.709 225.554 208.636 231.401 207.768 238.148C207.74 238.355 207.719 238.563 207.704 238.772C207.698 238.84 207.696 238.911 207.692 238.98H208.011Z" fill="#D1DCF8"/>
<path d="M208.707 238.979C207.824 236.145 206.542 234.11 204.954 232.142C203.669 230.703 202.376 229.448 200.483 228.336C198.622 227.306 197.305 227.664 196.426 228.715C194.245 231.216 196.564 234.645 198.346 237.132C198.809 237.759 199.286 238.375 199.778 238.979H197.771C197.516 238.707 197.266 238.432 197.02 238.153C196.466 237.527 195.94 236.875 195.443 236.201C193.849 234.029 192.982 231.425 193.926 228.9C195.073 225.935 198.271 224.617 201.428 226.573C202.627 227.306 203.916 228.383 205.351 230.082C207.341 232.501 208.6 235.425 208.95 238.146C208.975 238.354 209.002 238.561 209.013 238.771C209.019 238.839 209.022 238.91 209.025 238.979H208.707Z" fill="#D1DCF8"/>
<path d="M97.0832 235.495H11.8644C9.34482 235.495 6.92842 234.476 5.1468 232.661C3.36517 230.847 2.36426 228.386 2.36426 225.819V139.025C2.36426 136.458 3.36517 133.997 5.1468 132.183C6.92842 130.368 9.34482 129.349 11.8644 129.349H97.0832C98.3308 129.349 99.5661 129.599 100.719 130.085C101.871 130.571 102.919 131.284 103.801 132.183C104.683 133.081 105.383 134.148 105.86 135.322C106.338 136.496 106.583 137.754 106.583 139.025V225.819C106.583 227.09 106.338 228.348 105.86 229.522C105.383 230.696 104.683 231.763 103.801 232.661C102.919 233.56 101.871 234.273 100.719 234.759C99.5661 235.245 98.3308 235.495 97.0832 235.495Z" fill="white"/>
<path d="M72.17 159.138C65.4984 154.894 57.9785 153.825 50.3862 155.053C42.2463 156.366 34.749 160.328 28.7938 166.115C27.4357 167.439 26.1103 168.797 24.8188 170.188C23.3212 171.806 21.8762 173.473 20.4863 175.188V186.573L20.522 186.649H88.4617V175.535C84.3086 170.313 77.8045 162.697 72.17 159.138Z" fill="#64D3FF"/>
<path d="M79.2016 164.997C77.8164 168.292 75.3573 171.124 72.4337 173.155C68.5419 175.853 63.8994 177.252 59.2318 177.945C47.3546 179.696 34.9166 176.777 24.8188 170.189C23.3212 171.806 21.8763 173.473 20.4863 175.186V186.574L20.522 186.649H88.4617V175.535C85.5904 171.925 82.3877 168.172 79.2016 164.997Z" fill="#42C1F4"/>
<path d="M63.4071 155.416C62.6432 157.717 59.8111 159.3 57.6656 159.899C55.6307 160.469 53.4745 160.516 51.4324 159.968C46.8338 158.73 46.7197 155.829 46.7197 155.829C47.4967 155.573 47.8744 153.554 48.0514 151.383C48.2771 148.645 48.1892 145.665 48.1892 145.665H60.4039C60.4039 145.665 60.7627 149.446 61.1499 152.357C61.3163 153.564 61.9803 154.551 62.8309 155.109C63.1624 155.326 63.4071 155.416 63.4071 155.416Z" fill="#FEC9AC"/>
<g opacity="0.5">
<path d="M61.7464 153.994C57.5719 155.531 52.6442 155.031 49.11 152.303C48.7402 152.018 48.3872 151.711 48.0527 151.383C48.2761 148.645 48.1894 145.665 48.1894 145.665H60.404C60.404 145.665 60.7628 149.446 61.1501 152.357C61.2308 152.944 61.4316 153.507 61.7464 153.994Z" fill="#FFAB90"/>
</g>
<path d="M64.1564 159.046C64.2775 159.156 64.0899 159.648 63.44 160.434C62.789 161.207 61.6521 162.279 59.8132 163.21C56.6484 164.674 52.9812 164.936 49.6442 163.979C47.7102 163.37 46.325 162.411 45.7061 161.495C45.0717 160.578 45.1513 159.959 45.2939 159.927C45.478 159.858 45.7191 160.292 46.401 160.833C47.0758 161.383 48.2673 161.985 50.073 162.411C53.0596 163.266 56.3336 163.034 59.1574 161.727C60.8562 161.023 62.0204 160.23 62.808 159.709C63.5921 159.18 64.0198 158.918 64.1564 159.046Z" fill="white"/>
<path d="M64.5029 141.462C64.1738 143.846 63.6986 146.358 62.1008 148.129C60.6836 149.701 58.5488 150.448 56.4544 150.549C55.3175 150.606 54.1664 150.486 53.0925 150.102C50.9137 149.328 49.228 147.564 47.7146 145.795C47.1526 145.143 46.6002 144.476 46.0787 143.787C45.5382 143.073 44.8634 142.486 44.14 141.969L44.1293 141.962C43.5519 141.548 43.0803 140.998 42.6348 140.446C42.276 140.007 41.9149 139.542 41.8234 138.987C41.7403 138.485 41.8923 137.96 42.1774 137.547C42.3533 137.301 42.5647 137.088 42.8071 136.909C42.3341 134.312 42.6149 131.63 43.6149 129.192C44.983 125.944 47.5429 123.369 50.7486 122.016L62.5808 120.125C62.6307 121.927 63.3886 123.613 63.9255 125.325C65.5554 130.492 65.2406 136.083 64.5029 141.462Z" fill="#FEC9AC"/>
<path d="M69.2887 125.881C68.8135 127.003 68.2195 128.097 67.338 128.927C66.4566 129.755 65.2532 130.289 64.0628 130.134C63.0733 130.001 62.206 129.423 61.2877 129.012C60.6795 128.734 59.8562 128.821 59.1185 129.063C58.3131 129.337 57.4672 129.473 56.6214 129.395L55.8789 129.332C55.9906 128.785 56.7509 128.762 57.1762 128.406C54.1778 128.083 51.0772 129.988 49.9581 132.841C49.5518 133.889 48.2985 137.644 48.2985 137.644C48.2985 137.644 47.0595 136.788 46.5178 136.573C45.7978 136.29 44.9782 136.086 44.2131 136.282C43.6132 136.432 43.0584 136.87 42.8885 137.476C42.6034 136.249 41.9999 135.258 41.4843 134.195C40.7098 132.598 40.4461 130.781 40.6064 129.008C40.6694 128.302 40.7906 127.604 40.9426 126.912C41.1707 125.868 41.4748 124.838 41.779 123.812C42.2446 122.259 42.7234 120.682 43.6001 119.323C44.8261 117.429 46.7684 116.083 48.8711 115.322C50.9703 114.561 53.2298 114.347 55.4584 114.37C56.8899 114.388 58.3309 114.503 59.6994 114.935C61.0656 115.368 62.3533 116.147 63.2253 117.305C63.9167 118.228 64.3064 119.314 64.9003 120.299C65.7784 121.752 67.064 122.905 68.5914 123.608C68.8598 123.731 69.1461 123.845 69.3386 124.077C69.7413 124.561 69.5393 125.299 69.2887 125.881Z" fill="#2E363A"/>
<g opacity="0.5">
<path d="M45.9931 141.071C46.0025 141.207 45.9614 141.343 45.8778 141.45C45.7943 141.557 45.6744 141.629 45.5416 141.65C45.4127 141.664 45.2827 141.642 45.165 141.586C44.7445 141.417 44.4226 141.062 44.1458 140.698C43.6397 140.036 43.1918 139.27 43.174 138.433C43.1705 138.168 43.2144 137.886 43.389 137.69C43.635 137.412 44.0698 137.394 44.4273 137.494C44.787 137.597 45.115 137.792 45.3804 138.06C45.6458 138.327 45.8399 138.66 45.9444 139.025L45.9931 141.071Z" fill="#FFAB90"/>
</g>
<path d="M62.9839 123.804C62.0929 124.369 60.9394 124.173 59.9237 123.904C58.339 123.484 56.7328 122.924 55.1089 123.133C54.3027 123.242 53.5311 123.534 52.8521 123.99C52.1731 124.446 51.6043 125.052 51.1886 125.764C50.9866 126.118 50.8215 126.497 50.5804 126.825C49.9899 127.623 48.992 128.014 48.0167 128.088C47.0367 128.161 46.0661 127.95 45.1086 127.741C41.9712 127.072 41.6195 126.945 40.9424 126.912C41.1705 125.868 41.4746 124.838 41.7787 123.812C42.2444 122.259 42.7231 120.682 43.5999 119.323C44.8258 117.429 46.7682 116.083 48.8709 115.322C50.97 114.561 53.2295 114.347 55.4581 114.37C56.8896 114.388 58.3306 114.503 59.6992 114.935C61.0653 115.368 62.3531 116.147 63.2251 117.305C63.4983 117.669 63.7264 118.066 63.9414 118.471C64.0222 119.147 64.1552 119.825 64.2051 120.504C64.3002 121.738 64.0174 123.152 62.9839 123.804Z" fill="#3A4146"/>
<path d="M52.031 134.778C51.9835 134.75 51.9764 134.644 52.0512 134.466C52.1273 134.293 52.2912 134.045 52.6036 133.815C52.88 133.638 53.189 133.519 53.5117 133.468C53.8345 133.416 54.1642 133.432 54.4806 133.515C54.8477 133.636 55.0782 133.82 55.2029 133.962C55.3276 134.107 55.3514 134.211 55.3146 134.254C55.229 134.357 54.9451 134.156 54.3499 134.045C54.1037 133.98 53.8469 133.967 53.5956 134.007C53.3442 134.048 53.1037 134.14 52.8887 134.279C52.3542 134.571 52.1451 134.851 52.031 134.779V134.778ZM59.7005 133.211C59.6293 133.14 59.7885 132.776 60.43 132.425C60.99 132.178 61.6025 132.081 62.2095 132.143C62.9247 132.275 63.1872 132.573 63.1385 132.666C63.0863 132.786 62.7655 132.702 62.1573 132.686C61.6404 132.634 61.119 132.718 60.6426 132.928C60.0676 133.133 59.7873 133.311 59.7005 133.211ZM57.1987 142.516C57.2438 142.473 57.3959 142.597 57.6774 142.798C57.8188 142.893 58.0018 143.006 58.2168 143.052C58.4223 143.098 58.7145 143.058 58.8654 142.887C59.1386 142.638 58.9426 141.883 58.8749 141.295C58.7787 140.68 58.6526 140.07 58.4971 139.468C58.1681 138.038 57.959 137.33 58.0778 137.283C58.1764 137.241 58.5803 137.881 59.0163 139.329C59.2634 140.292 59.4297 141.224 59.5295 142.166C59.5449 142.334 59.5532 142.515 59.5212 142.711C59.4886 142.924 59.3914 143.121 59.2432 143.276C58.8452 143.628 58.3997 143.589 58.0944 143.487C57.8511 143.395 57.6346 143.241 57.4648 143.041C57.2129 142.738 57.1571 142.552 57.1987 142.516ZM58.0516 146.054C58.0659 146.106 57.953 146.203 57.6881 146.288C57.2845 146.409 56.8607 146.445 56.4431 146.391C55.5011 146.246 54.6006 145.811 53.9365 145.078C53.5647 144.624 53.4376 144.153 53.4542 143.852C53.4697 143.547 53.573 143.421 53.6241 143.433C53.7572 143.449 53.6479 144.005 54.3369 144.714C54.8893 145.328 55.6971 145.728 56.5227 145.852C57.4992 146.033 58.0219 145.912 58.0516 146.054Z" fill="#4F2D2A"/>
<path d="M61.5949 138.039C61.9347 138.039 62.2102 137.535 62.2102 136.913C62.2102 136.292 61.9347 135.788 61.5949 135.788C61.255 135.788 60.9795 136.292 60.9795 136.913C60.9795 137.535 61.255 138.039 61.5949 138.039Z" fill="#4F2D2A"/>
<path d="M54.3878 138.657C54.7277 138.657 55.0032 138.153 55.0032 137.531C55.0032 136.91 54.7277 136.406 54.3878 136.406C54.048 136.406 53.7725 136.91 53.7725 137.531C53.7725 138.153 54.048 138.657 54.3878 138.657Z" fill="#4F2D2A"/>
<path d="M17.3851 146.756C17.0453 146.696 16.8125 146.222 16.6105 145.389C16.4109 144.529 16.2102 143.43 15.8609 141.759C15.7492 140.75 15.4523 138.361 15.8312 137.46C15.947 137.147 16.1293 136.864 16.365 136.631C16.6008 136.397 16.8842 136.22 17.195 136.111C17.5039 135.996 17.8603 135.952 18.2238 135.937L22.2379 135.707C25.6628 135.799 27.3854 136.329 27.4234 137.041C27.4626 137.751 25.8078 138.456 22.4173 138.957L18.8439 139.162L18.8498 139.309C18.876 139.963 18.9544 140.657 19.0363 141.395C19.1136 143.181 18.8724 144.698 18.5077 145.557C18.1489 146.449 17.7331 146.819 17.3851 146.756ZM27.1014 198.464C27.042 198.81 26.5764 199.048 25.759 199.253C24.9132 199.457 23.8357 199.661 22.1951 200.017C21.4824 200.099 20.7256 200.191 19.919 200.225C19.6071 200.237 19.2949 200.238 18.9829 200.228C18.6289 200.205 18.2737 200.178 17.9731 200.047C17.6658 199.929 17.3879 199.743 17.1591 199.503C16.9304 199.263 16.7564 198.974 16.6497 198.658C16.5369 198.343 16.4929 197.98 16.4775 197.61L16.3741 195.73L16.2518 193.522C16.3432 190.034 16.8636 188.279 17.5609 188.24C18.2582 188.202 18.952 189.886 19.4426 193.339L19.6446 196.979L19.7895 196.973C20.431 196.946 21.1129 196.866 21.8376 196.783C23.591 196.705 25.0807 196.95 25.9242 197.321C26.7997 197.686 27.1632 198.11 27.1014 198.464ZM91.5629 188.895C91.9026 188.955 92.1366 189.43 92.3374 190.262C92.537 191.122 92.7378 192.22 93.0882 193.892C93.2034 194.942 93.3377 196.089 93.2949 197.162C93.2723 197.524 93.245 197.886 93.1167 198.191C93.0009 198.504 92.8185 198.787 92.5828 199.021C92.3471 199.254 92.0637 199.431 91.7529 199.54C91.4441 199.655 91.0877 199.699 90.7242 199.714L88.8781 199.821L86.71 199.944C83.2851 199.852 81.5626 199.322 81.5245 198.611C81.4853 197.901 83.1402 197.195 86.5306 196.694L90.104 196.49L90.0993 196.342C90.0732 195.689 89.9936 194.994 89.9116 194.255C89.8356 192.47 90.0755 190.953 90.4402 190.093C90.799 189.201 91.2148 188.833 91.5629 188.895ZM81.8477 137.187C81.9071 136.841 82.3716 136.603 83.1889 136.398C84.0347 136.195 85.1134 135.99 86.7528 135.633C87.7198 135.525 90.0862 135.216 90.9736 135.604C91.2812 135.722 91.5593 135.908 91.7883 136.148C92.0172 136.388 92.1914 136.677 92.2982 136.993C92.4111 137.308 92.455 137.671 92.4705 138.041L92.6962 142.13C92.6047 145.618 92.0844 147.372 91.387 147.411C90.6897 147.45 89.9959 145.765 89.5053 142.312L89.3033 138.673L89.1596 138.679C88.5181 138.704 87.8362 138.785 87.1104 138.869C85.3569 138.946 83.8672 138.702 83.0238 138.33C82.1482 137.965 81.7871 137.542 81.8477 137.187Z" fill="#BBCAEA"/>
<path d="M68.1313 215.284H20.2527C19.7596 215.284 19.2868 215.085 18.9381 214.73C18.5894 214.375 18.3936 213.893 18.3936 213.391C18.3936 212.889 18.5894 212.407 18.9381 212.052C19.2868 211.697 19.7596 211.497 20.2527 211.497H68.1313C68.6244 211.497 69.0973 211.697 69.4459 212.052C69.7946 212.407 69.9905 212.889 69.9905 213.391C69.9905 213.893 69.7946 214.375 69.4459 214.73C69.0973 215.085 68.6244 215.284 68.1313 215.284ZM40.466 219.405H20.2527C19.7596 219.405 19.2868 219.605 18.9381 219.96C18.5894 220.315 18.3936 220.797 18.3936 221.299C18.3936 221.801 18.5894 222.283 18.9381 222.638C19.2868 222.993 19.7596 223.193 20.2527 223.193H40.466C40.9591 223.193 41.4319 222.993 41.7806 222.638C42.1293 222.283 42.3251 221.801 42.3251 221.299C42.3251 220.797 42.1293 220.315 41.7806 219.96C41.4319 219.605 40.9591 219.405 40.466 219.405ZM89.8473 219.405H48.3933C47.9002 219.405 47.4273 219.605 47.0786 219.96C46.73 220.315 46.5341 220.797 46.5341 221.299C46.5341 221.801 46.73 222.283 47.0786 222.638C47.4273 222.993 47.9002 223.193 48.3933 223.193H89.8497C90.3428 223.193 90.8157 222.993 91.1643 222.638C91.513 222.283 91.7089 221.801 91.7089 221.299C91.7089 220.797 91.513 220.315 91.1643 219.96C90.8157 219.605 90.3428 219.405 89.8497 219.405H89.8473ZM40.523 193.604L41.743 197.428H45.6918L42.4962 199.792L43.7174 203.618L40.5218 201.254L37.3274 203.618L38.5474 199.792L35.353 197.428H39.3018L40.523 193.604Z" fill="#D1DCF8"/>
<path d="M52.9608 193.604L54.1821 197.428H58.1309L54.9352 199.792L56.1565 203.618L52.9608 201.254L49.7664 203.618L50.9876 199.792L47.792 197.428H51.7408L52.9608 193.604ZM65.4012 193.604L66.6213 197.428H70.57L67.3744 199.792L68.5956 203.618L65.4 201.254L62.2056 203.618L63.4268 199.792L60.2312 197.428H64.18L65.4012 193.604Z" fill="#FFCF3D"/>
<path d="M379.245 153.339H456.502C459.022 153.339 461.438 152.319 463.22 150.505C465.001 148.69 466.002 146.229 466.002 143.663V64.9755C466.002 62.4095 465.001 59.9487 463.219 58.1344C461.438 56.32 459.021 55.3008 456.502 55.3008H379.245C376.726 55.3008 374.31 56.3201 372.528 58.1344C370.747 59.9488 369.746 62.4096 369.746 64.9755V143.663C369.746 144.933 369.992 146.191 370.469 147.365C370.946 148.539 371.646 149.606 372.528 150.504C373.41 151.403 374.457 152.116 375.61 152.602C376.762 153.088 377.998 153.339 379.245 153.339Z" fill="white"/>
<path d="M395.524 87.7621C396.814 86.4929 398.092 85.3144 399.338 84.3041C400.253 83.5516 401.146 82.9006 402.017 82.3501C408.18 78.4299 415.126 77.4426 422.138 78.5775C429.657 79.7899 436.58 83.4499 442.081 88.7954C443.335 90.018 444.559 91.2723 445.752 92.5571C447.135 94.0506 448.47 95.5901 449.753 97.173V107.691L449.721 107.76H386.973V97.4949C389.622 94.1603 392.58 90.6938 395.524 87.7621Z" fill="#FE4C40"/>
<path d="M395.524 87.7617C396.803 90.8047 399.073 93.4206 401.775 95.296C405.368 97.7885 409.657 99.0807 413.968 99.7208C424.938 101.337 436.425 98.6415 445.752 92.5567C447.135 94.0502 448.47 95.5897 449.753 97.1726V107.691L449.721 107.76H386.973V97.4945C389.622 94.1599 392.58 90.6934 395.524 87.7617Z" fill="#EA241F"/>
<path d="M410.11 78.9118C410.816 81.0377 413.432 82.4981 415.413 83.0522C417.293 83.5786 419.284 83.6221 421.17 83.1152C425.418 81.973 425.523 79.2917 425.523 79.2917C424.807 79.057 424.457 77.1925 424.293 75.1864C424.086 72.6576 424.166 69.9062 424.166 69.9062H412.884C412.884 69.9062 412.554 73.3981 412.195 76.0866C412.124 76.626 411.936 77.1426 411.645 77.599C411.277 78.1855 410.741 78.6435 410.11 78.9118Z" fill="#FEC9AC"/>
<g opacity="0.5">
<path d="M411.646 77.599C415.5 79.0183 420.052 78.5549 423.316 76.037C423.661 75.772 423.984 75.4889 424.294 75.1864C424.086 72.6576 424.167 69.9062 424.167 69.9062H412.885C412.885 69.9062 412.554 73.3981 412.196 76.0866C412.124 76.626 411.936 77.1426 411.646 77.599Z" fill="#FFAB90"/>
</g>
<path d="M409.431 82.2531C409.562 82.1321 409.966 82.3668 410.693 82.846C411.424 83.3179 412.498 84.039 414.062 84.6851C416.656 85.8853 419.667 86.0995 422.411 85.3131C424.073 84.9222 425.164 84.3814 425.789 83.8877C426.423 83.4038 426.659 83.0105 426.841 83.0783C426.986 83.1134 427.069 83.6905 426.484 84.5496C425.914 85.4086 424.631 86.3076 422.841 86.8799C419.745 87.768 416.343 87.5272 413.406 86.1685C411.705 85.2961 410.656 84.2931 410.061 83.5707C409.467 82.8351 409.304 82.3705 409.431 82.2531Z" fill="white"/>
<path d="M409.101 66.0259C409.404 68.2267 409.842 70.5474 411.318 72.1844C412.628 73.6352 414.599 74.326 416.533 74.418C417.583 74.47 418.648 74.3599 419.64 74.0066C421.651 73.2903 423.207 71.6605 424.605 70.0283C425.124 69.4246 425.635 68.8099 426.116 68.1735C426.615 67.5141 427.239 66.9708 427.908 66.4929L427.917 66.4868C428.451 66.1045 428.886 65.5963 429.298 65.0869C429.628 64.6816 429.963 64.2521 430.046 63.7391C430.125 63.2757 429.983 62.7905 429.719 62.4081C429.557 62.1827 429.361 61.9847 429.139 61.8213C429.575 59.422 429.316 56.9451 428.393 54.6936C427.129 51.6931 424.764 49.3142 421.803 48.0643L410.876 46.3184C410.828 47.982 410.13 49.5392 409.633 51.1218C408.128 55.8938 408.418 61.0578 409.1 66.0259H409.101Z" fill="#FEC9AC"/>
<path d="M404.679 51.6344C405.119 52.6701 405.667 53.6792 406.481 54.4463C407.296 55.2122 408.407 55.7046 409.507 55.5618C410.42 55.4396 411.221 54.9048 412.069 54.5261C412.631 54.2696 413.392 54.3495 414.073 54.5721C414.817 54.825 415.599 54.9508 416.379 54.8794L417.066 54.8201C416.963 54.3156 416.259 54.295 415.866 53.9659C418.635 53.6671 421.499 55.4263 422.533 58.0616C422.91 59.0295 424.065 62.4984 424.065 62.4984C424.065 62.4984 425.211 61.7071 425.711 61.5087C426.376 61.2485 427.133 61.0586 427.84 61.2401C428.393 61.3792 428.905 61.7833 429.063 62.3423C429.327 61.2098 429.884 60.2951 430.36 59.3114C431.074 57.8377 431.319 56.1595 431.171 54.5225C431.109 53.871 431.005 53.2243 430.861 52.5866C430.65 51.6223 430.369 50.67 430.088 49.7227C429.658 48.2877 429.215 46.8309 428.406 45.5774C427.273 43.8266 425.479 42.584 423.537 41.881C421.599 41.1793 419.512 40.9809 417.454 41.0014C416.131 41.0184 414.8 41.1236 413.536 41.5241C412.276 41.9234 411.086 42.6433 410.279 43.7129C410.027 44.0493 409.816 44.4147 409.619 44.7897C409.325 45.3499 409.06 45.9356 408.734 46.4776C407.922 47.8205 406.735 48.885 405.324 49.5339C405.076 49.6476 404.812 49.7517 404.635 49.9671C404.262 50.4147 404.449 51.0959 404.679 51.6344Z" fill="#2E363A"/>
<g opacity="0.5">
<path d="M426.196 65.6639C426.188 65.7897 426.226 65.9142 426.303 66.0131C426.38 66.112 426.49 66.1782 426.612 66.1987C426.733 66.2156 426.849 66.1866 426.96 66.1394C427.349 65.9833 427.646 65.6554 427.902 65.319C428.369 64.708 428.783 64.0002 428.799 63.2258C428.804 62.9826 428.763 62.7213 428.601 62.541C428.374 62.2845 427.972 62.2676 427.642 62.3595C427.31 62.4545 427.007 62.6343 426.761 62.8817C426.516 63.1292 426.337 63.4363 426.24 63.7739L426.196 65.6639Z" fill="#FFAB90"/>
</g>
<path d="M410.504 49.7154C411.326 50.2369 412.392 50.0554 413.331 49.8074C414.793 49.4202 416.277 48.9023 417.777 49.0959C418.522 49.196 419.234 49.4666 419.861 49.8874C420.488 50.3082 421.013 50.8682 421.397 51.5255C421.584 51.8522 421.737 52.203 421.96 52.5055C422.506 53.2424 423.427 53.6041 424.328 53.6719C425.233 53.7385 426.13 53.5449 427.014 53.3513C427.881 53.1661 428.746 52.9762 429.61 52.7874C430.027 52.6955 430.436 52.6059 430.862 52.5854C430.651 51.6223 430.37 50.67 430.09 49.7227C429.66 48.2877 429.216 46.8309 428.407 45.5774C427.274 43.8266 425.48 42.584 423.538 41.881C421.6 41.1793 419.513 40.9809 417.456 41.0014C416.132 41.0184 414.802 41.1236 413.538 41.5241C412.277 41.9234 411.087 42.6433 410.28 43.7129C410.028 44.0493 409.817 44.4147 409.62 44.7897C409.545 45.4129 409.421 46.0396 409.375 46.6676C409.288 47.8085 409.548 49.1128 410.504 49.7154Z" fill="#3A4146"/>
<path d="M420.619 59.8513C420.663 59.8247 420.67 59.7267 420.6 59.5633C420.484 59.3208 420.308 59.1135 420.089 58.962C419.834 58.7978 419.548 58.6884 419.25 58.6405C418.952 58.5927 418.647 58.6074 418.355 58.6837C418.101 58.7596 417.872 58.9019 417.69 59.0963C417.574 59.2306 417.552 59.3262 417.586 59.3673C417.665 59.4617 417.927 59.2766 418.477 59.1737C418.936 59.0528 419.427 59.1314 419.827 59.3903C420.32 59.6601 420.513 59.9179 420.619 59.8513ZM413.535 58.4042C413.602 58.3377 413.454 58.0001 412.862 57.6783C412.344 57.4501 411.778 57.3602 411.217 57.4169C410.557 57.5379 410.315 57.8138 410.36 57.8997C410.408 58.0098 410.704 57.9336 411.266 57.919C411.739 57.8706 412.228 57.9481 412.664 58.1417C413.195 58.3316 413.454 58.4962 413.535 58.4042ZM415.846 66.9972C415.804 66.9585 415.664 67.0722 415.403 67.2573C415.273 67.3457 415.104 67.4509 414.905 67.4933C414.715 67.5344 414.446 67.4993 414.306 67.3408C414.054 67.1109 414.235 66.4128 414.298 65.8708C414.387 65.3021 414.503 64.7395 414.647 64.1829C414.951 62.8616 415.144 62.2083 415.034 62.1635C414.943 62.126 414.571 62.7165 414.167 64.0546C413.945 64.9146 413.786 65.7902 413.692 66.6742C413.679 66.8302 413.671 66.9972 413.701 67.1775C413.732 67.3743 413.821 67.5566 413.958 67.699C414.326 68.0257 414.737 67.9894 415.019 67.895C415.306 67.7861 415.479 67.6167 415.599 67.4836C415.833 67.2029 415.884 67.0311 415.846 66.9972ZM415.058 70.264C415.046 70.3124 415.15 70.402 415.394 70.4818C415.637 70.5581 416.025 70.6355 416.544 70.5786C417.414 70.4431 418.245 70.0402 418.86 69.3639C419.202 68.944 419.319 68.5096 419.304 68.2314C419.291 67.9494 419.195 67.8333 419.148 67.8442C419.025 67.8599 419.125 68.3729 418.49 69.0275C417.979 69.5937 417.233 69.9652 416.471 70.0789C415.568 70.2471 415.085 70.1346 415.057 70.2653L415.058 70.264Z" fill="#4F2D2A"/>
<path d="M411.786 62.8619C412.099 62.8619 412.353 62.3966 412.353 61.8225C412.353 61.2485 412.099 60.7832 411.786 60.7832C411.472 60.7832 411.218 61.2485 411.218 61.8225C411.218 62.3966 411.472 62.8619 411.786 62.8619Z" fill="#4F2D2A"/>
<path d="M418.443 63.4341C418.756 63.4341 419.011 62.9688 419.011 62.3948C419.011 61.8208 418.756 61.3555 418.443 61.3555C418.129 61.3555 417.875 61.8208 417.875 62.3948C417.875 62.9688 418.129 63.4341 418.443 63.4341Z" fill="#4F2D2A"/>
<path d="M452.587 70.9195C452.254 70.9788 451.85 70.6412 451.5 69.8148C451.143 69.0199 450.903 67.6006 450.972 65.9491C451.048 65.2667 451.121 64.6278 451.144 64.0301V64.0168L447.964 63.8353C444.833 63.3671 443.307 62.6508 443.347 61.9406C443.386 61.2303 444.978 60.7088 448.144 60.5854L450.147 60.6992L451.148 60.756L451.97 60.8044C452.305 60.8226 452.626 60.8794 452.903 60.9907C453.452 61.194 453.935 61.6732 454.149 62.2334C454.385 62.7827 454.351 63.5219 454.338 64.1632C454.307 64.9279 454.221 65.643 454.148 66.3133C453.807 67.8499 453.605 68.8505 453.396 69.6467C453.187 70.4138 452.943 70.8566 452.587 70.9195ZM443.64 118.64C443.581 118.301 443.913 117.889 444.725 117.532C445.505 117.169 446.898 116.925 448.52 116.995C449.19 117.073 449.818 117.146 450.403 117.171H450.417L450.596 113.932C451.055 110.742 451.759 109.189 452.456 109.229C453.155 109.269 453.664 110.89 453.786 114.114L453.675 116.154L453.618 117.174L453.571 118.012C453.56 118.336 453.499 118.657 453.389 118.961C453.189 119.52 452.719 120.014 452.167 120.231C451.629 120.471 450.903 120.436 450.272 120.424C449.523 120.392 448.821 120.306 448.163 120.231C446.653 119.882 445.672 119.676 444.89 119.463C444.137 119.251 443.702 119.002 443.64 118.64ZM384.14 109.829C384.471 109.768 384.876 110.107 385.227 110.933C385.583 111.728 385.822 113.146 385.754 114.799C385.678 115.482 385.606 116.12 385.582 116.717V116.731L388.762 116.913C391.893 117.381 393.418 118.096 393.378 118.808C393.34 119.518 391.749 120.038 388.583 120.163L386.58 120.049L385.578 119.991L384.755 119.944C384.437 119.932 384.122 119.869 383.824 119.757C383.543 119.649 383.287 119.482 383.073 119.268C382.858 119.054 382.689 118.797 382.576 118.514C382.341 117.966 382.376 117.226 382.389 116.584C382.419 115.82 382.504 115.105 382.579 114.435C382.92 112.897 383.122 111.898 383.329 111.102C383.539 110.334 383.783 109.892 384.14 109.829ZM393.086 62.1087C393.144 62.4463 392.813 62.8589 392.002 63.2158C391.221 63.5788 389.828 63.822 388.206 63.753C387.536 63.6756 386.909 63.6018 386.322 63.5776H386.309L386.131 66.8166C385.671 70.006 384.968 71.5584 384.27 71.5184C383.573 71.4785 383.061 69.8584 382.94 66.6339L383.051 64.594L383.107 63.574L383.155 62.7355C383.173 62.3943 383.228 62.0688 383.338 61.7869C383.537 61.2279 384.008 60.7342 384.558 60.5165C385.097 60.2769 385.822 60.312 386.453 60.3253C387.203 60.3567 387.904 60.4426 388.562 60.5177C390.074 60.8649 391.055 61.0718 391.836 61.2836C392.588 61.4965 393.024 61.7458 393.086 62.1087Z" fill="#BBCAEA"/>
<path d="M405.749 134.209H449.97C450.425 134.209 450.862 134.024 451.184 133.697C451.505 133.369 451.686 132.924 451.686 132.46C451.686 131.997 451.505 131.552 451.184 131.224C450.862 130.896 450.425 130.712 449.97 130.712H405.749C405.294 130.712 404.857 130.896 404.535 131.224C404.213 131.552 404.032 131.997 404.032 132.46C404.032 132.924 404.213 133.369 404.535 133.697C404.857 134.024 405.294 134.209 405.749 134.209ZM431.301 138.014H449.97C450.425 138.014 450.862 138.198 451.184 138.526C451.505 138.854 451.686 139.299 451.686 139.762C451.686 140.226 451.505 140.671 451.184 140.999C450.862 141.326 450.425 141.511 449.97 141.511H431.301C430.846 141.511 430.409 141.326 430.087 140.999C429.765 140.671 429.584 140.226 429.584 139.762C429.584 139.299 429.765 138.854 430.087 138.526C430.409 138.198 430.846 138.014 431.301 138.014ZM385.691 138.014H423.979C424.205 138.014 424.428 138.059 424.636 138.147C424.845 138.235 425.034 138.364 425.193 138.526C425.353 138.688 425.479 138.881 425.565 139.093C425.652 139.305 425.696 139.533 425.696 139.762C425.696 139.992 425.652 140.219 425.565 140.431C425.479 140.643 425.353 140.836 425.193 140.999C425.034 141.161 424.845 141.29 424.636 141.378C424.428 141.465 424.205 141.511 423.979 141.511H385.691C385.236 141.511 384.799 141.326 384.477 140.999C384.155 140.671 383.975 140.226 383.975 139.762C383.975 139.299 384.155 138.854 384.477 138.526C384.799 138.198 385.236 138.014 385.691 138.014Z" fill="#D1DCF8"/>
<path d="M408.269 114.184L409.398 117.717H413.045L410.094 119.899L411.221 123.432L408.271 121.25L405.32 123.432L406.447 119.899L403.496 117.717H407.143L408.269 114.184ZM419.759 114.184L418.632 117.717H414.985L417.936 119.899L416.808 123.432L419.759 121.25L422.71 123.432L421.583 119.899L424.534 117.717H420.887L419.759 114.184Z" fill="#FFCF3D"/>
<path d="M431.248 114.184L432.377 117.717H436.024L433.072 119.899L434.2 123.432L431.248 121.25L428.297 123.432L429.426 119.899L426.474 117.717H430.121L431.248 114.184Z" fill="#D1DCF8"/>
<path d="M367.368 323.988H455.607C456.854 323.988 458.09 323.738 459.242 323.251C460.395 322.765 461.442 322.052 462.324 321.154C463.206 320.255 463.906 319.189 464.384 318.015C464.861 316.841 465.107 315.583 465.107 314.312V224.441C465.107 221.875 464.105 219.414 462.324 217.6C460.542 215.786 458.126 214.767 455.607 214.767H367.369C364.85 214.767 362.434 215.786 360.652 217.6C358.871 219.414 357.869 221.875 357.869 224.441V314.312C357.869 316.878 358.871 319.339 360.652 321.153C362.434 322.967 364.85 323.987 367.369 323.987L367.368 323.988Z" fill="white"/>
<path d="M449.616 232.684C449.286 232.744 448.871 232.361 448.512 231.444C448.147 230.558 447.906 229.003 447.997 227.168C448.082 226.408 448.163 225.692 448.191 225.017L448.198 224.819L444.475 224.606C440.985 224.118 439.283 223.392 439.321 222.682C439.359 221.972 441.13 221.46 444.655 221.356L446.886 221.484L448.002 221.548C448.194 221.586 449.186 221.541 449.805 221.76C450.444 221.968 450.99 222.504 451.213 223.15C451.344 223.467 451.367 223.842 451.388 224.215C451.399 224.4 451.39 224.592 451.392 224.78L451.384 225.15C451.348 225.992 451.256 226.783 451.174 227.531L450.409 231.276C450.208 232.134 449.974 232.621 449.616 232.684ZM439.648 285.849C439.59 285.513 439.965 285.09 440.866 284.725C441.735 284.354 443.263 284.108 445.064 284.201C445.81 284.286 446.513 284.37 447.175 284.397L447.37 284.404L447.579 280.614C448.059 277.058 448.772 275.325 449.469 275.364C450.168 275.404 450.669 277.205 450.77 280.796L450.645 283.069L450.582 284.205C450.544 284.401 450.588 285.412 450.373 286.041C450.267 286.37 450.089 286.669 449.852 286.918C449.616 287.166 449.328 287.357 449.009 287.476C448.698 287.61 448.33 287.634 447.964 287.653C447.781 287.665 447.593 287.657 447.408 287.659L447.044 287.649C446.219 287.613 445.441 287.519 444.706 287.435L441.031 286.657C440.187 286.452 439.71 286.213 439.648 285.849ZM373.358 276.032C373.689 275.974 374.103 276.355 374.463 277.272C374.828 278.157 375.069 279.713 374.978 281.548C374.893 282.308 374.811 283.024 374.784 283.699L374.777 283.897L378.5 284.11C381.99 284.598 383.691 285.324 383.653 286.034C383.615 286.744 381.845 287.256 378.319 287.36L376.088 287.232L374.973 287.168C374.78 287.13 373.788 287.175 373.17 286.956C372.847 286.847 372.553 286.666 372.309 286.425C372.066 286.184 371.878 285.891 371.762 285.566C371.631 285.249 371.607 284.874 371.587 284.501C371.575 284.316 371.585 284.125 371.582 283.936L371.591 283.566C371.626 282.724 371.719 281.932 371.801 281.185L372.566 277.44C372.767 276.582 373.001 276.095 373.358 276.032ZM383.327 222.867C383.385 223.203 383.009 223.626 382.109 223.992C381.239 224.362 379.712 224.609 377.911 224.516C377.165 224.43 376.461 224.347 375.8 224.319L375.605 224.312L375.396 228.102C374.916 231.658 374.203 233.392 373.506 233.352C372.808 233.312 372.306 231.511 372.205 227.92L372.33 225.647L372.393 224.511C372.431 224.315 372.387 223.305 372.602 222.675C372.708 222.346 372.886 222.047 373.122 221.798C373.358 221.55 373.647 221.359 373.966 221.24C374.277 221.106 374.645 221.082 375.011 221.063C375.194 221.051 375.382 221.06 375.567 221.058L375.93 221.066C376.756 221.103 377.534 221.197 378.268 221.281L381.944 222.06C382.786 222.264 383.265 222.503 383.327 222.867Z" fill="#BBCAEA"/>
<path d="M397.435 303.191H446.7C447.207 303.191 447.694 302.986 448.053 302.62C448.411 302.255 448.613 301.76 448.613 301.243C448.613 300.726 448.411 300.231 448.053 299.865C447.694 299.5 447.207 299.295 446.7 299.295H397.435C396.928 299.295 396.442 299.5 396.083 299.865C395.724 300.231 395.523 300.726 395.523 301.243C395.523 301.76 395.724 302.255 396.083 302.62C396.442 302.986 396.928 303.191 397.435 303.191ZM425.901 307.432H446.7C447.207 307.432 447.694 307.637 448.053 308.002C448.411 308.368 448.613 308.863 448.613 309.38C448.613 309.896 448.411 310.392 448.053 310.757C447.694 311.123 447.207 311.328 446.7 311.328H425.901C425.394 311.328 424.908 311.123 424.549 310.757C424.19 310.392 423.989 309.896 423.989 309.38C423.989 308.863 424.19 308.368 424.549 308.002C424.908 307.637 425.394 307.432 425.901 307.432ZM375.09 307.432H417.746C418.253 307.432 418.74 307.637 419.098 308.002C419.457 308.368 419.659 308.863 419.659 309.38C419.659 309.896 419.457 310.392 419.098 310.757C418.74 311.123 418.253 311.328 417.746 311.328H375.088C374.581 311.328 374.095 311.123 373.736 310.757C373.377 310.392 373.176 309.896 373.176 309.38C373.176 308.863 373.377 308.368 373.736 308.002C374.095 307.637 374.581 307.432 375.088 307.432H375.09Z" fill="#D1DCF8"/>
<path d="M400.243 280.972L401.499 284.908H405.562L402.276 287.34L403.532 291.276L400.243 288.844L396.956 291.276L398.212 287.34L394.925 284.908H398.988L400.243 280.972ZM413.044 280.972L414.299 284.908H418.362L415.075 287.34L416.331 291.276L413.044 288.844L409.757 291.276L411.012 287.34L407.724 284.908H411.787L413.044 280.972Z" fill="#FFCF3D"/>
<path d="M425.843 280.883L427.099 284.819H431.161L427.876 287.251L429.131 291.187L425.843 288.755L422.556 291.187L423.812 287.251L420.524 284.819H424.587L425.843 280.883Z" fill="#D1DCF8"/>
<path d="M379.776 275.86C380.882 269.065 384.112 254.397 388.285 249.926C393.244 244.61 418.478 247.388 425.555 250.962C433.749 253.883 438.899 263.694 443.011 275.86H379.776Z" fill="#71C687"/>
<path d="M399.859 224.862C402.144 229.346 403.533 234.247 403.945 239.281C404.214 242.547 404.045 245.963 402.682 248.891C400.752 253.042 396.722 255.586 392.646 257.067C391.161 257.608 389.615 258.043 388.049 257.987C386.482 257.931 384.879 257.334 383.827 256.08C382.773 254.825 382.395 252.857 383.157 251.378C383.617 250.484 384.41 249.862 385.104 249.166C385.798 248.471 386.443 247.584 386.438 246.561C386.432 244.715 384.394 243.539 384.142 241.713C383.926 240.145 385.097 238.768 386.28 237.829C387.463 236.89 388.834 236.005 389.339 234.517C389.959 232.69 389.04 230.728 388.65 228.827C388.121 226.245 388.632 223.436 390.025 221.26C390.882 219.92 393.933 216.63 395.698 217.483C396.512 217.875 397.082 219.847 397.512 220.628C398.29 222.042 399.12 223.423 399.859 224.862Z" fill="#65362D"/>
<path d="M408.009 256.379C400.786 256.829 400.635 251.932 400.635 251.932C400.402 252.147 401.752 250.024 402.227 248.934C402.31 248.728 402.368 248.565 402.385 248.457C402.476 247.782 401.918 244.686 401.918 244.686C401.918 244.686 401.843 244.686 401.71 244.668C400.701 244.595 396.251 243.92 394.927 238.077C393.426 231.46 394.21 225.294 396.168 222.971C398.119 220.648 410.835 221.945 413.251 225.069C415.674 228.193 416.734 229.047 416.842 230.281C416.95 231.506 418.05 235.34 413.592 236.367C413.592 236.367 412.992 246.278 414.483 247.026C415.968 247.782 417.851 248.871 418.359 248.691C418.868 248.511 415.235 255.928 408.01 256.379H408.009Z" fill="#FEC9AC"/>
<path d="M406.369 229.372C406.412 229.345 406.418 229.242 406.35 229.07C406.238 228.819 406.065 228.603 405.846 228.441C405.599 228.27 405.317 228.155 405.022 228.105C404.727 228.055 404.425 228.071 404.136 228.15C403.883 228.232 403.656 228.381 403.479 228.582C403.365 228.723 403.342 228.824 403.377 228.865C403.454 228.965 403.713 228.771 404.256 228.663C404.707 228.535 405.193 228.619 405.586 228.89C406.073 229.172 406.263 229.443 406.368 229.372H406.369ZM399.265 228.138C399.313 228.054 399.083 227.756 398.435 227.603C397.883 227.524 397.32 227.597 396.806 227.816C396.211 228.131 396.054 228.478 396.119 228.552C396.194 228.649 396.454 228.487 396.984 228.308C397.422 228.121 397.901 228.058 398.37 228.126C398.924 228.162 399.214 228.254 399.266 228.138H399.265ZM401.76 237.218C401.718 237.178 401.582 237.296 401.324 237.49C401.177 237.604 401.01 237.688 400.832 237.737C400.645 237.78 400.378 237.743 400.242 237.577C399.992 237.335 400.17 236.605 400.233 236.038C400.32 235.445 400.435 234.855 400.578 234.273C400.877 232.891 401.067 232.206 400.958 232.16C400.87 232.12 400.502 232.738 400.105 234.138C399.885 235.04 399.729 235.956 399.636 236.88C399.623 237.042 399.614 237.218 399.644 237.406C399.673 237.61 399.761 237.8 399.897 237.952C400.259 238.293 400.666 238.255 400.944 238.158C401.228 238.044 401.397 237.867 401.516 237.726C401.747 237.433 401.798 237.254 401.76 237.218ZM400.827 240.216C400.815 240.267 400.919 240.36 401.16 240.442C401.399 240.522 401.782 240.603 402.293 240.543C403.177 240.405 403.986 239.955 404.578 239.272C404.916 238.833 405.031 238.379 405.017 238.088C405.003 237.792 404.908 237.671 404.863 237.683C404.742 237.698 404.839 238.235 404.213 238.921C403.709 239.514 402.974 239.901 402.222 240.02C401.331 240.196 400.856 240.079 400.827 240.216Z" fill="#4F2D2A"/>
<path d="M397.754 232.893C398.064 232.893 398.315 232.406 398.315 231.806C398.315 231.205 398.064 230.718 397.754 230.718C397.444 230.718 397.193 231.205 397.193 231.806C397.193 232.406 397.444 232.893 397.754 232.893Z" fill="#4F2D2A"/>
<path d="M404.32 233.49C404.63 233.49 404.881 233.003 404.881 232.402C404.881 231.801 404.63 231.314 404.32 231.314C404.011 231.314 403.76 231.801 403.76 232.402C403.76 233.003 404.011 233.49 404.32 233.49Z" fill="#4F2D2A"/>
<path d="M399.873 225.685C402.311 227.548 405.056 228.881 407.781 230.199C408.447 230.521 409.237 231.161 409.939 231.24C410.768 230.934 411.099 229.291 411.718 228.622C412.609 227.661 414.097 227.424 415.205 228.069C416.313 228.714 416.951 230.185 416.698 231.517C416.429 232.945 415.321 233.973 414.509 235.135C411.967 238.767 411.649 244.524 414.806 247.541C416.882 249.528 420.544 250.243 423.008 251.621C427.023 253.869 430.141 257.919 431.454 262.596C432.547 266.489 432.704 271.227 435.787 273.567C437.972 275.225 441.047 274.991 443.387 273.604C445.727 272.215 447.443 269.858 448.837 267.398C449.9 265.524 450.83 263.502 451.073 261.319C451.317 259.136 450.773 256.76 449.268 255.281C447.391 253.439 444.467 253.318 442.563 251.509C440.41 249.464 440.218 245.975 440.194 242.877C440.17 239.78 440.011 236.3 437.892 234.214C435.929 232.279 432.928 232.224 430.666 230.717C427.693 228.739 426.584 224.756 424.825 221.498C421.864 216.012 416.459 212.148 410.629 211.347C406.124 210.728 401.373 211.939 397.587 214.65C392.6 218.22 396.148 222.836 399.873 225.685Z" fill="#65362D"/>
<g opacity="0.5">
<path d="M415.769 230.459C415.596 229.684 414.991 229.046 414.272 228.876C413.965 228.804 413.602 228.833 413.399 229.092C413.162 229.394 413.259 229.874 413.487 230.185C413.715 230.496 414.045 230.7 414.319 230.963C414.593 231.227 414.827 231.607 414.759 231.998C414.714 232.259 414.525 232.663 414.888 232.764C415.156 232.839 415.214 232.57 415.33 232.374C415.681 231.774 415.932 231.19 415.769 230.459Z" fill="#FFAB90"/>
</g>
<g opacity="0.5">
<path d="M410.551 241.337C409.459 244.011 407.543 246.27 405.176 247.683C404.243 248.232 403.252 248.656 402.227 248.934C402.31 248.728 402.368 248.565 402.385 248.457C402.476 247.782 401.918 244.686 401.918 244.686C401.918 244.686 401.843 244.686 401.71 244.668C404.859 244.425 407.943 243.263 410.551 241.337Z" fill="#FFAB90"/>
</g>
<path d="M403.648 258.645C403.678 258.412 405.323 258.83 408.55 258.383C411.293 258.018 413.893 256.92 416.085 255.201C418.687 253.206 419.616 251.772 419.795 251.918C419.9 251.973 419.211 253.628 416.57 255.847C414.267 257.653 411.535 258.806 408.653 259.19C406.953 259.373 405.675 259.227 404.849 259.069C404.021 258.905 403.633 258.727 403.65 258.645H403.648Z" fill="white"/>
<path d="M8.91212 379.98C13.8341 379.98 17.8242 375.916 17.8242 370.903C17.8242 365.89 13.8341 361.826 8.91212 361.826C3.99009 361.826 0 365.89 0 370.903C0 375.916 3.99009 379.98 8.91212 379.98Z" fill="#8F9091"/>
<path d="M65.9121 302.894C70.8341 302.894 74.8242 298.83 74.8242 293.817C74.8242 288.804 70.8341 284.74 65.9121 284.74C60.9901 284.74 57 288.804 57 293.817C57 298.83 60.9901 302.894 65.9121 302.894Z" fill="#8F9091"/>
<path d="M283.335 420.806C283.335 429.019 276.798 435.69 268.723 435.69H207.613C199.537 435.69 193 429.019 193 420.806C193 412.581 199.537 405.923 207.612 405.923H268.722C272.76 405.923 276.413 407.587 279.057 410.279C280.416 411.66 281.494 413.301 282.228 415.107C282.962 416.914 283.338 418.851 283.335 420.806Z" fill="#223A74"/>
<path d="M219.828 428.463C219.755 428.389 219.697 428.301 219.658 428.203C219.619 428.106 219.6 428.001 219.603 427.896V417.134C219.603 416.909 219.678 416.717 219.828 416.559C219.979 416.4 220.165 416.319 220.387 416.319H224.495C225.736 416.319 226.697 416.609 227.376 417.188C228.054 417.767 228.394 418.546 228.394 419.528C228.394 420.214 228.233 420.784 227.915 421.239C227.605 421.686 227.181 422.038 226.688 422.257C227.384 422.482 227.955 422.843 228.402 423.339C228.849 423.835 229.073 424.462 229.073 425.218C229.073 426.307 228.713 427.158 227.993 427.771C227.273 428.386 226.142 428.693 224.599 428.693H220.387C220.283 428.696 220.18 428.677 220.084 428.637C219.988 428.597 219.901 428.538 219.828 428.463ZM224.077 421.673C225.11 421.673 225.835 421.495 226.253 421.141C226.671 420.786 226.879 420.29 226.879 419.652C226.879 419.096 226.656 418.653 226.209 418.321C225.761 417.991 225.151 417.825 224.372 417.825H221.187V421.673H224.077ZM224.443 427.187C225.568 427.187 226.367 427.009 226.836 426.654C227.306 426.3 227.54 425.798 227.54 425.148C227.54 423.8 226.513 423.127 224.46 423.127H221.187V427.187H224.443ZM234.19 428.339C233.427 427.987 232.776 427.425 232.31 426.717C231.822 425.99 231.579 425.101 231.579 424.048V417.045C231.579 416.821 231.653 416.629 231.804 416.469C231.955 416.309 232.142 416.231 232.363 416.231C232.584 416.231 232.771 416.309 232.928 416.469C233.085 416.629 233.163 416.82 233.163 417.045V424.101C233.163 424.81 233.323 425.413 233.641 425.91C233.961 426.406 234.381 426.779 234.904 427.027C235.426 427.275 235.984 427.4 236.575 427.4C237.167 427.4 237.724 427.275 238.245 427.027C238.767 426.779 239.189 426.406 239.508 425.91C239.827 425.414 239.987 424.81 239.987 424.101V417.045C239.987 416.821 240.062 416.629 240.213 416.469C240.362 416.309 240.55 416.231 240.771 416.231C240.992 416.231 241.179 416.309 241.335 416.469C241.492 416.629 241.571 416.82 241.571 417.045V424.048C241.571 425.101 241.327 425.99 240.84 426.717C240.353 427.444 239.725 427.984 238.959 428.339C238.212 428.69 237.398 428.871 236.575 428.871C235.751 428.871 234.938 428.69 234.19 428.339ZM248.177 428.551C248.101 428.479 248.04 428.391 247.999 428.293C247.959 428.196 247.939 428.09 247.94 427.984V423.464L243.78 417.523C243.691 417.38 243.642 417.214 243.641 417.045C243.641 416.821 243.713 416.629 243.86 416.469C243.929 416.392 244.013 416.33 244.108 416.289C244.202 416.248 244.304 416.228 244.406 416.231C244.697 416.231 244.929 416.366 245.104 416.637L248.741 422.027L252.38 416.637C252.553 416.366 252.785 416.231 253.077 416.231C253.296 416.231 253.482 416.309 253.633 416.469C253.784 416.629 253.854 416.82 253.842 417.045C253.842 417.212 253.796 417.372 253.703 417.524L249.525 423.464V427.984C249.528 428.089 249.509 428.194 249.47 428.292C249.431 428.39 249.373 428.479 249.3 428.553C249.147 428.705 248.962 428.783 248.741 428.783C248.52 428.783 248.333 428.705 248.177 428.553V428.551Z" fill="white"/>
<path d="M284 421.883C284 430.648 277.27 437.767 268.957 437.767H206.044C197.73 437.767 191 430.648 191 421.883C191 413.106 197.73 406 206.043 406H268.956C273.113 406 276.873 407.775 279.596 410.648C280.995 412.122 282.104 413.873 282.86 415.801C283.616 417.729 284.003 419.797 284 421.883Z" fill="#223A74"/>
<path d="M224.891 422.814V414.76H226.391V422.814C226.391 423.564 226.237 424.197 225.93 424.713C225.622 425.229 225.198 425.622 224.656 425.893C224.12 426.158 223.503 426.291 222.805 426.291C222.107 426.291 221.487 426.171 220.945 425.932C220.404 425.692 219.979 425.327 219.672 424.838C219.365 424.348 219.211 423.731 219.211 422.986H220.719C220.719 423.465 220.807 423.859 220.984 424.166C221.161 424.473 221.406 424.7 221.719 424.846C222.036 424.992 222.398 425.064 222.805 425.064C223.201 425.064 223.555 424.981 223.867 424.814C224.185 424.643 224.435 424.39 224.617 424.057C224.799 423.718 224.891 423.304 224.891 422.814ZM237.703 420.088V420.807C237.703 421.661 237.596 422.426 237.383 423.104C237.169 423.781 236.862 424.356 236.461 424.83C236.06 425.304 235.578 425.666 235.016 425.916C234.458 426.166 233.833 426.291 233.141 426.291C232.469 426.291 231.852 426.166 231.289 425.916C230.732 425.666 230.247 425.304 229.836 424.83C229.43 424.356 229.115 423.781 228.891 423.104C228.667 422.426 228.555 421.661 228.555 420.807V420.088C228.555 419.234 228.664 418.471 228.883 417.799C229.107 417.122 229.422 416.546 229.828 416.072C230.234 415.593 230.716 415.229 231.273 414.979C231.836 414.729 232.453 414.604 233.125 414.604C233.818 414.604 234.443 414.729 235 414.979C235.562 415.229 236.044 415.593 236.445 416.072C236.852 416.546 237.161 417.122 237.375 417.799C237.594 418.471 237.703 419.234 237.703 420.088ZM236.211 420.807V420.072C236.211 419.395 236.141 418.796 236 418.275C235.865 417.755 235.664 417.317 235.398 416.963C235.133 416.609 234.807 416.34 234.422 416.158C234.042 415.976 233.609 415.885 233.125 415.885C232.656 415.885 232.232 415.976 231.852 416.158C231.477 416.34 231.154 416.609 230.883 416.963C230.617 417.317 230.411 417.755 230.266 418.275C230.12 418.796 230.047 419.395 230.047 420.072V420.807C230.047 421.489 230.12 422.093 230.266 422.619C230.411 423.14 230.62 423.58 230.891 423.939C231.167 424.294 231.492 424.562 231.867 424.744C232.247 424.926 232.672 425.018 233.141 425.018C233.63 425.018 234.065 424.926 234.445 424.744C234.826 424.562 235.146 424.294 235.406 423.939C235.672 423.58 235.872 423.14 236.008 422.619C236.143 422.093 236.211 421.489 236.211 420.807ZM241.578 414.76V426.135H240.07V414.76H241.578ZM253.07 414.76V426.135H251.555L245.828 417.361V426.135H244.32V414.76H245.828L251.578 423.557V414.76H253.07Z" fill="white"/>
</g>
<defs>
<clipPath id="clip0_662_984">
<rect width="497" height="500" fill="white"/>
</clipPath>
</defs>
</svg>
