<svg width="141" height="140" viewBox="0 0 141 140" fill="none" xmlns="http://www.w3.org/2000/svg">
<circle cx="70.5" cy="70" r="68.5" fill="white" stroke="#A53FCE" stroke-width="3"/>
<path d="M92.3281 57.1629H46.0156C45.3692 57.1629 44.7492 57.4197 44.2921 57.8768C43.8349 58.3339 43.5781 58.9539 43.5781 59.6004V66.9129C43.5781 67.233 43.6412 67.5499 43.7637 67.8457C43.8862 68.1414 44.0657 68.4101 44.2921 68.6364C44.5184 68.8628 44.7871 69.0423 45.0828 69.1648C45.3786 69.2873 45.6955 69.3504 46.0156 69.3504H92.3281C92.9746 69.3504 93.5946 69.0936 94.0517 68.6364C94.5088 68.1793 94.7656 67.5593 94.7656 66.9129V59.6004C94.7656 58.9539 94.5088 58.3339 94.0517 57.8768C93.5946 57.4197 92.9746 57.1629 92.3281 57.1629Z" fill="#E29BFF"/>
<path d="M92.3281 57.1629H87.4531C88.0996 57.1629 88.7196 57.4197 89.1767 57.8768C89.6338 58.3339 89.8906 58.9539 89.8906 59.6004V66.9129C89.8906 67.233 89.8276 67.5499 89.7051 67.8457C89.5826 68.1414 89.403 68.4101 89.1767 68.6364C88.9504 68.8628 88.6816 69.0423 88.3859 69.1648C88.0902 69.2873 87.7732 69.3504 87.4531 69.3504H92.3281C92.9746 69.3504 93.5946 69.0936 94.0517 68.6364C94.5088 68.1793 94.7656 67.5593 94.7656 66.9129V59.6004C94.7656 58.9539 94.5088 58.3339 94.0517 57.8768C93.5946 57.4197 92.9746 57.1629 92.3281 57.1629Z" fill="#A53FCE"/>
<path d="M71.6094 69.3504H89.8906V96.1629C89.8906 96.8093 89.6338 97.4293 89.1767 97.8864C88.7196 98.3436 88.0996 98.6004 87.4531 98.6004H50.8906C50.2442 98.6004 49.6242 98.3436 49.1671 97.8864C48.7099 97.4293 48.4531 96.8093 48.4531 96.1629V69.3504H66.7344" fill="#E29BFF"/>
<path d="M85.0156 69.3504H48.4531V74.2254H75.2656C77.8515 74.2254 80.3314 75.2526 82.1599 77.0811C83.9884 78.9096 85.0156 81.3895 85.0156 83.9754V98.6004H87.4531C88.0996 98.6004 88.7196 98.3436 89.1767 97.8864C89.6338 97.4293 89.8906 96.8093 89.8906 96.1629V69.3504H85.0156Z" fill="#A53FCE"/>
<path d="M63.0781 44.9754C62.2779 44.9754 61.4855 45.133 60.7461 45.4392C60.0068 45.7455 59.3351 46.1943 58.7692 46.7602C58.2033 47.326 57.7545 47.9978 57.4482 48.7371C57.142 49.4765 56.9844 50.2689 56.9844 51.0691C56.9844 51.8694 57.142 52.6618 57.4482 53.4011C57.7545 54.1404 58.2033 54.8122 58.7692 55.3781C59.3351 55.9439 60.0068 56.3928 60.7461 56.699C61.4855 57.0053 62.2779 57.1629 63.0781 57.1629H69.1719V51.0691C69.1719 49.453 68.5299 47.903 67.3871 46.7602C66.2443 45.6174 64.6943 44.9754 63.0781 44.9754ZM66.7344 54.7254H63.0781C62.355 54.7254 61.6481 54.5109 61.0468 54.1092C60.4456 53.7074 59.9769 53.1364 59.7002 52.4683C59.4235 51.8002 59.3511 51.0651 59.4921 50.3558C59.6332 49.6466 59.9814 48.9951 60.4928 48.4838C61.0041 47.9724 61.6556 47.6242 62.3648 47.4831C63.0741 47.342 63.8092 47.4145 64.4773 47.6912C65.1454 47.9679 65.7164 48.4366 66.1182 49.0378C66.5199 49.6391 66.7344 50.346 66.7344 51.0691V54.7254ZM75.2656 44.9754C73.6495 44.9754 72.0995 45.6174 70.9567 46.7602C69.8139 47.903 69.1719 49.453 69.1719 51.0691V57.1629H75.2656C76.0659 57.1629 76.8583 57.0053 77.5976 56.699C78.3369 56.3928 79.0087 55.9439 79.5746 55.3781C80.1404 54.8122 80.5893 54.1404 80.8955 53.4011C81.2018 52.6618 81.3594 51.8694 81.3594 51.0691C81.3594 50.2689 81.2018 49.4765 80.8955 48.7371C80.5893 47.9978 80.1404 47.326 79.5746 46.7602C79.0087 46.1943 78.3369 45.7455 77.5976 45.4392C76.8583 45.133 76.0659 44.9754 75.2656 44.9754ZM75.2656 54.7254H71.6094V51.0691C71.6094 50.346 71.8238 49.6391 72.2256 49.0378C72.6273 48.4366 73.1983 47.9679 73.8664 47.6912C74.5345 47.4145 75.2697 47.342 75.9789 47.4831C76.6882 47.6242 77.3396 47.9724 77.851 48.4838C78.3623 48.9951 78.7105 49.6466 78.8516 50.3558C78.9927 51.0651 78.9203 51.8002 78.6436 52.4683C78.3668 53.1364 77.8982 53.7074 77.2969 54.1092C76.6957 54.5109 75.9888 54.7254 75.2656 54.7254Z" fill="#FFE6DD"/>
<path d="M75.2656 54.7257H76.4844C77.4541 54.7257 78.3841 54.3405 79.0697 53.6548C79.7554 52.9691 80.1406 52.0392 80.1406 51.0695C80.1406 50.0998 79.7554 49.1698 79.0697 48.4841C78.3841 47.7984 77.4541 47.4132 76.4844 47.4132C76.2747 47.4132 76.0749 47.44 75.875 47.4742C76.7835 47.6201 77.6033 48.1039 78.1703 48.8286C78.7372 49.5534 79.0095 50.4655 78.9324 51.3825C78.8554 52.2994 78.4347 53.1533 77.7548 53.7733C77.0748 54.3933 76.1857 54.7334 75.2656 54.7257ZM63.0781 47.4132H61.8594C60.8897 47.4132 59.9597 47.7984 59.274 48.4841C58.5883 49.1698 58.2031 50.0998 58.2031 51.0695C58.2031 52.0392 58.5883 52.9691 59.274 53.6548C59.9597 54.3405 60.8897 54.7257 61.8594 54.7257C62.069 54.7257 62.2689 54.6989 62.4688 54.6648C61.5602 54.5188 60.7404 54.0351 60.1735 53.3103C59.6065 52.5856 59.3343 51.6734 59.4113 50.7565C59.4884 49.8395 59.909 48.9856 60.589 48.3656C61.2689 47.7457 62.158 47.4055 63.0781 47.4132Z" fill="#E13340"/>
<path d="M66.7344 57.1629H71.6094V98.6004H66.7344V57.1629Z" fill="#FFE6DD"/>
<path d="M87.2094 42.2941L91.1094 41.3191L87.2094 40.3441L86.2344 36.4441L85.2594 40.3441L81.3594 41.3191L85.2594 42.2941L86.2344 46.1941L87.2094 42.2941ZM91.5969 49.1191L93.5469 48.6316L91.5969 48.1441L91.1094 46.1941L90.6219 48.1441L88.6719 48.6316L90.6219 49.1191L91.1094 51.0691L91.5969 49.1191ZM94.0344 39.3691L95.9844 38.8816L94.0344 38.3941L93.5469 36.4441L93.0594 38.3941L91.1094 38.8816L93.0594 39.3691L93.5469 41.3191L94.0344 39.3691Z" fill="#FFBE20"/>
<circle cx="70.5" cy="70" r="61" stroke="#E29BFF" stroke-width="2" stroke-dasharray="4 4"/>
</svg>
