<svg width="226" height="225" viewBox="0 0 226 225" fill="none" xmlns="http://www.w3.org/2000/svg">
<path d="M48.2004 93.3751C54.9504 88.2001 62.7504 85.1251 70.4754 82.5751C88.4754 76.5751 106.775 73.2001 124.475 72.6001C137.075 72.1501 149.9 73.3501 159.05 79.8001C168.65 86.6251 173.225 98.9251 172.1 111.975C170.3 133.425 153.8 160.2 120.875 177.525C114.125 181.05 107.15 183.975 100.1 186.15C93.9504 188.025 87.8004 189.375 81.7254 190.2C77.7504 190.725 70.5504 191.175 76.1754 185.55C83.7504 177.975 89.1504 168.525 86.9004 159.375C84.8754 151.125 77.6004 146.175 69.8004 143.025C62.0004 139.875 53.3754 138.15 46.3254 134.025C39.2004 129.9 33.6504 122.625 34.8504 113.55C35.8254 106.05 41.4504 98.5501 48.2004 93.3751Z" fill="#F8F7FC"/>
<path d="M26.0746 183L26.4496 180.975L22.9246 180.375L19.4746 184.35L23.8246 188.1C24.9496 186.075 26.4496 184.425 28.3996 183.375L26.0746 183Z" fill="#F6A285"/>
<path d="M30.1998 197.475C30.0498 197.625 29.7498 197.625 29.5998 197.475L17.1498 186.75C16.9998 186.6 16.9248 186.3 17.1498 186.15L20.3748 182.4C20.9748 181.725 22.1748 181.875 22.4748 182.775C22.4748 182.775 22.6998 183.675 23.4498 184.275C23.8998 184.65 24.5748 184.95 25.5498 184.725C25.9248 184.65 26.4498 184.2 27.1248 184.8C27.6498 185.25 27.8748 188.025 28.6248 189.75C28.7748 190.2 28.9998 190.5 29.2248 190.8C30.1248 191.7 31.6248 193.2 31.4748 195.075C31.3248 195.825 30.9498 196.65 30.1998 197.475Z" fill="#FFD375"/>
<path d="M30.9499 196.425C30.7249 196.8 30.4999 197.1 30.1999 197.475C30.0499 197.625 29.7499 197.625 29.5999 197.475L17.1499 186.75C16.9999 186.6 16.9249 186.3 17.0749 186.15L17.8999 185.175L30.9499 196.425ZM20.8999 184.95C20.4499 185.475 20.5249 186.225 21.0499 186.675C21.5749 187.125 22.3249 187.05 22.7749 186.525C23.2249 186 23.1499 185.25 22.6249 184.8C22.0999 184.425 21.2749 184.425 20.8999 184.95ZM26.1499 186C26.1499 185.85 26.2249 185.7 26.3749 185.625L27.5749 185.4C27.7249 185.4 27.8749 185.475 27.9499 185.625C27.9499 185.775 27.8749 185.925 27.7249 186L26.5249 186.225C26.3749 186.225 26.2249 186.15 26.1499 186ZM26.5249 187.275C26.5249 187.125 26.5999 186.975 26.7499 186.9L27.9499 186.675C28.0999 186.675 28.2499 186.75 28.3249 186.9C28.3249 187.05 28.2499 187.2 28.0999 187.275L26.8999 187.5C26.7499 187.575 26.5999 187.425 26.5249 187.275ZM26.8249 188.625C26.8249 188.475 26.8999 188.325 27.0499 188.25L28.2499 188.025C28.3999 188.025 28.5499 188.1 28.6249 188.25C28.6249 188.4 28.5499 188.55 28.3999 188.625L27.1999 188.85C27.0499 188.85 26.8999 188.775 26.8249 188.625ZM31.3999 195C30.7249 194.85 30.1249 194.625 29.5999 194.1C28.3249 192.975 27.9499 191.175 28.5499 189.675C28.6999 190.125 28.9249 190.425 29.1499 190.725C30.0499 191.625 31.5499 193.2 31.3999 195Z" fill="#DF8236"/>
<path d="M61.6246 190.2L55.7746 189.45L55.4746 195.975L61.1746 196.2C60.8746 194.25 61.0246 192.075 61.6246 190.2Z" fill="#F6A285"/>
<path d="M72.1251 199.576C72.1251 199.801 71.9001 199.951 71.6751 199.951L55.2501 199.276C55.0251 199.276 54.8001 199.051 54.8751 198.826L55.1001 193.876C55.1751 192.976 56.1501 192.376 56.9751 192.826C57.0501 192.826 59.1501 194.401 60.5751 192.451C60.8001 192.151 61.0251 191.476 61.8501 191.551C62.6001 191.551 64.9251 194.101 66.6501 194.776C66.8001 194.851 67.0251 194.926 67.1751 194.926C68.3751 195.076 70.5501 195.376 71.6001 196.951C71.9751 197.551 72.2001 198.451 72.1251 199.576Z" fill="#FFD375"/>
<path d="M72.05 198.3C72.125 198.675 72.125 199.125 72.125 199.575C72.125 199.8 71.9 199.95 71.675 199.95L55.25 199.275C55.025 199.275 54.875 199.05 54.875 198.825L54.95 197.55L72.05 198.3ZM57.05 195.6C57.05 196.275 57.5 196.8 58.175 196.875C58.85 196.875 59.375 196.425 59.45 195.75C59.45 195.075 59 194.55 58.325 194.475C57.65 194.4 57.05 194.925 57.05 195.6ZM62.225 193.425C62.075 193.35 62.075 193.125 62.225 192.975L62.975 192.075C63.05 191.925 63.275 191.925 63.425 192.075C63.575 192.15 63.575 192.375 63.425 192.525L62.675 193.425C62.525 193.5 62.375 193.575 62.225 193.425ZM63.35 194.25C63.2 194.175 63.2 193.95 63.35 193.8L64.1 192.9C64.175 192.75 64.4 192.75 64.55 192.9C64.7 192.975 64.7 193.2 64.55 193.35L63.8 194.25C63.65 194.325 63.425 194.325 63.35 194.25ZM64.4 195.075C64.25 195 64.25 194.775 64.4 194.625L65.15 193.725C65.225 193.575 65.45 193.575 65.6 193.725C65.75 193.8 65.75 194.025 65.6 194.175L64.85 195.075C64.7 195.15 64.475 195.15 64.4 195.075ZM71.525 196.95C71 197.175 70.4 197.325 69.8 197.325C68.225 197.25 67.025 196.2 66.575 194.85C66.725 194.925 66.95 195 67.1 195C68.375 195.075 70.475 195.375 71.525 196.95Z" fill="#DF8236"/>
<path d="M62.5997 189.75C61.0997 191.85 54.6497 191.4 54.7247 189.375C54.7247 189.375 55.0997 160.65 55.9997 154.2C56.8997 147.675 53.4497 136.875 53.4497 136.875C53.4497 136.875 51.1247 149.1 49.7747 158.4C48.3497 167.7 29.2997 183.9 29.2997 183.9C28.0247 185.55 21.8747 181.125 22.4747 179.175C22.4747 179.1 22.5497 179.025 22.5497 178.875C30.4997 171.825 38.7497 158.4 37.9997 142.65C37.2497 126.9 40.9247 123 40.9247 123L41.8247 117.525L68.4497 122.1C68.4497 122.1 68.7497 123.075 69.0497 125.175C69.5747 128.625 70.3247 135 70.0997 144.975C69.7247 160.95 62.5997 189.75 62.5997 189.75Z" fill="#46656E"/>
<path d="M69.0504 125.175C66.3504 126.525 63.3504 126.975 60.3504 126.975C56.0754 126.975 52.5504 127.425 48.3504 126.6C46.0254 126.15 42.5004 124.35 41.0754 126.225C39.7254 127.95 40.4004 130.425 40.9254 132.525C43.1754 141.075 42.7254 150.3 39.5004 158.625C36.3504 166.875 30.5004 174.075 23.0004 178.875C22.7754 179.025 22.6254 179.1 22.4004 179.25C22.4004 179.175 22.4754 179.1 22.4754 178.95C30.5004 171.825 38.7504 158.4 38.0004 142.65C37.2504 126.9 40.9254 123 40.9254 123L41.8254 117.525L68.4504 122.1C68.4504 122.1 68.6754 123.075 69.0504 125.175Z" fill="#395B64"/>
<path d="M53.4502 136.875C53.6002 135.3 52.8502 132.375 51.9502 129.375C55.3252 135.15 57.7252 141.525 55.9252 148.425L53.4502 136.875Z" fill="#395B64"/>
<path d="M83.7496 64.4257C83.7496 64.4257 83.5996 59.8507 84.5746 60.0007C85.0246 60.0757 85.1746 61.6507 85.1746 62.0257C85.3246 61.9507 85.0996 60.2257 85.6996 60.3007C86.2996 60.3757 86.2996 61.5757 86.2246 61.9507C86.3746 61.8757 86.4496 60.6757 86.8246 60.6757C87.1996 60.6757 87.5746 61.8007 87.4246 62.5507C87.5746 62.4757 87.4996 61.2007 87.8746 61.1257C88.7746 61.0507 89.2996 63.9007 89.3746 64.5007C89.3746 65.1757 89.4496 66.0757 89.4496 67.2007C89.4496 67.2007 92.0746 82.2757 89.8996 84.0757C87.0496 86.4757 74.5246 88.5757 74.5246 88.5757L72.3496 81.6007C88.2496 77.1757 82.7746 78.6757 83.9746 78.3757V67.3507" fill="#F6A285"/>
<path d="M89.4496 67.125C89.4496 67.125 92.0746 82.2 89.8996 84C87.0496 86.4 74.5246 88.5 74.5246 88.5L72.3496 81.525L75.4246 80.7C76.1746 82.05 76.3246 83.7 77.4496 84.75C78.1996 85.5 79.3246 85.8 80.2996 85.65C81.3496 85.5 82.3246 84.975 82.9996 84.15C83.5996 83.4 84.0496 82.425 84.8746 81.9C86.0746 81.15 87.9496 81.375 88.6246 80.1C89.2246 78.9 88.0996 77.55 88.1746 76.275C88.2496 74.4 89.9746 74.175 88.7746 70.65C88.3996 69.675 89.4496 67.125 89.4496 67.125Z" fill="url(#paint0_linear_662_619)"/>
<path d="M71.5248 121.576C71.3748 121.951 71.1498 122.251 70.8498 122.551C65.9748 126.376 45.8748 126.151 40.7748 122.551C37.6998 120.376 42.4998 111.301 42.4998 107.551C42.4998 104.776 40.8498 100.201 39.2748 95.7758C37.3998 90.6008 35.6748 85.5758 36.7998 83.8508C38.8248 80.7758 50.1498 79.0508 54.9498 79.0508C59.8248 79.0508 71.5998 79.9508 71.3748 85.2758C71.1498 90.0008 68.0748 102.001 68.7498 107.551C69.1248 110.926 72.8748 118.351 71.5248 121.576Z" fill="#FFDED3"/>
<path d="M60.5002 72V79.575L58.2502 84.525L52.3252 79.35V72H60.5002Z" fill="url(#paint1_linear_662_619)"/>
<path d="M61.4755 78.5246C58.5505 77.9246 55.4755 76.2746 53.1505 74.5496C52.5505 74.0996 52.3255 73.8746 52.3255 73.8746C52.3255 73.8746 52.4005 72.2996 52.2505 71.8496C52.0255 71.2496 51.2755 70.7996 50.9755 69.5996C50.6755 68.6246 50.7505 67.6496 52.1005 67.1996L52.6255 62.8496L64.3255 65.0996C64.2505 65.0246 66.4255 79.4996 61.4755 78.5246Z" fill="url(#paint2_linear_662_619)"/>
<path opacity="0.3" d="M61.475 78.5254C61.025 78.4504 60.575 78.3004 60.125 78.1504C60.425 78.2254 60.725 78.3004 61.025 78.3754C65.75 79.3504 64.25 65.0254 64.25 65.0254C64.25 65.0254 66.425 79.5004 61.475 78.5254Z" fill="#FDE0BB"/>
<path d="M54.5006 66.3756C53.2256 66.0006 52.7006 64.9506 52.9256 64.5006C53.0756 64.2756 53.3756 64.2006 53.6006 64.2006C55.6256 64.0506 57.6506 64.4256 59.5256 65.1756C59.7506 65.2506 60.0506 65.4006 60.1256 65.6256C60.2006 65.9256 59.8256 65.9256 59.6006 66.0006C58.4006 66.3756 55.7006 66.6756 54.5006 66.3756Z" fill="url(#paint3_linear_662_619)"/>
<path d="M50.0751 66.8251C50.4501 67.9501 50.7501 68.7751 50.7501 68.7751C50.7501 68.0251 51.0501 67.3501 52.1001 67.2001C52.7751 67.0501 53.3001 67.2001 53.6751 69.4501C54.1251 70.2001 54.5001 70.1251 54.8751 69.4501C54.8751 69.4501 55.9251 67.3501 54.7251 64.6501C54.7251 64.6501 60.8751 66.9001 63.9501 65.5501C65.3001 64.9501 67.2501 63.6751 66.8751 60.9751C66.8751 60.9751 66.8751 60.9751 66.8751 60.9001C66.8001 60.3751 66.6501 59.7751 66.3501 59.1751C64.7751 55.5001 54.6501 56.1001 54.5001 58.6501C54.5001 58.6501 51.1251 56.4751 50.6751 61.0501C50.6751 61.0501 50.6001 60.9751 50.4501 60.9751C50.0001 60.9751 49.2501 60.9751 49.1001 62.2501C49.0251 63.2251 49.6251 65.3251 50.0751 66.8251Z" fill="#4C5C75"/>
<path d="M59.375 68.6252C58.4 68.8502 57.725 69.6002 57.5 69.3752C57.5 69.3752 57.5 69.3002 57.5 69.2252C57.65 68.0252 59.675 67.0502 61.025 67.5752C61.475 67.7252 61.625 68.1002 61.55 68.3252C61.475 69.0752 60.65 68.4002 59.375 68.6252ZM62.9 67.6502C63.35 67.3502 64.175 67.1252 65.075 67.3502C65.3 67.4252 65.525 67.6502 65.525 67.8752C65.525 68.1752 65.225 68.4002 64.925 68.4002C63.575 68.3252 62.825 69.2252 62.525 68.5502C62.45 68.2502 62.525 67.9502 62.9 67.6502Z" fill="#111D33"/>
<path d="M63.8005 74.175C63.2005 74.175 61.4755 74.175 60.0505 73.875C59.9005 73.875 59.8255 73.95 59.9005 74.1C60.2005 74.7 60.9505 75.975 62.3755 75.9C63.3505 75.825 63.8005 74.85 63.9505 74.4C63.9505 74.25 63.8755 74.175 63.8005 74.175Z" fill="#E17659"/>
<path d="M60.5752 74.4746C60.9502 74.9246 61.4752 75.3746 62.2252 75.4496C62.7502 75.4496 63.1252 75.0746 63.3502 74.7746C62.5252 74.7746 61.5502 74.6996 60.5752 74.4746Z" fill="#FBFBFB"/>
<path d="M61.4004 71.7002C61.3254 71.7002 61.3254 71.7002 61.3254 71.7752C61.4004 72.1502 61.6254 72.4502 61.8504 72.6002C62.1504 72.8252 62.4504 72.9002 62.7504 72.7502C63.0504 72.5252 63.2754 72.0002 63.1254 71.9252C62.9754 71.8502 62.7504 72.3002 62.6004 72.3002C61.8504 72.3002 61.5504 71.7752 61.4004 71.7002ZM62.5254 77.0252C62.5254 77.0252 61.7004 76.3502 61.1004 76.9502L62.5254 77.0252ZM53.1504 69.6002C53.1504 69.1502 53.0754 68.8502 52.8504 68.5502C52.6254 68.1752 52.3254 67.9502 51.9504 67.9502C51.8004 67.9502 51.5754 67.9502 51.3504 68.0252C51.2754 68.0252 51.2754 68.1002 51.2754 68.1002C51.2754 68.1752 51.3504 68.1752 51.3504 68.1752C51.5004 68.1002 51.7254 68.1002 51.8754 68.1002C52.1754 68.1752 52.4754 68.3252 52.7004 68.6252C52.8504 68.8502 52.9254 69.2252 52.9254 69.6002C52.8504 69.5252 52.7754 69.4502 52.6254 69.3752C52.4004 69.3002 52.1004 69.3002 52.0254 69.3752C51.9504 69.4502 51.8754 69.5252 51.8754 69.6002C51.8754 69.6752 51.8754 69.6752 51.9504 69.6752C52.0254 69.6752 52.0254 69.6002 52.0254 69.6002C52.0254 69.6002 52.0254 69.5252 52.1004 69.5252C52.1754 69.4502 52.4004 69.4502 52.6254 69.5252C52.7754 69.6002 52.8504 69.6752 52.9254 69.8252C52.9254 70.1252 52.8504 70.3502 52.8504 70.6502C52.8504 70.7252 52.8504 70.7252 52.9254 70.7252C52.9254 70.7252 53.0004 70.7252 53.0004 70.6502" fill="#E17659"/>
<path d="M59.6001 69.9004C59.6001 70.1254 59.8251 70.3504 60.0501 70.3504C60.2751 70.3504 60.5001 70.2004 60.5001 69.9004C60.5001 69.6754 60.2751 69.4504 60.0501 69.4504C59.8251 69.5254 59.6001 69.6754 59.6001 69.9004ZM50.0751 66.8254C50.4501 67.9504 50.7501 68.7754 50.7501 68.7754C50.7501 68.0254 51.0501 67.3504 52.1001 67.2004C52.7751 67.0504 53.3001 67.2004 53.6751 69.4504C54.1251 70.2004 54.5001 70.1254 54.8751 69.4504C54.8751 69.4504 55.9251 67.3504 54.7251 64.6504C54.7251 64.6504 60.8751 66.9004 63.9501 65.5504C65.3001 64.9504 67.2501 63.6754 66.8751 60.9754C66.8751 60.9754 66.8751 60.9754 66.8751 60.9004L66.8001 60.9754C66.6501 62.0254 65.8251 62.8504 64.8501 63.3004C63.8751 63.7504 62.8251 63.9004 61.8501 63.9754C59.9001 64.1254 57.9501 64.2754 56.0751 63.9004C54.1251 63.6004 52.2501 62.7754 50.9001 61.3504C50.7501 61.2004 50.6001 61.0504 50.4501 60.9004C50.0001 60.9754 49.2501 60.9754 49.1001 62.2504C49.0251 63.2254 49.6251 65.3254 50.0751 66.8254Z" fill="#111D33"/>
<path d="M60.8756 69.825C60.5756 69.75 60.2756 69.675 60.0506 69.6H60.1256C59.7506 69.825 59.4506 70.125 58.8506 70.125C59.2256 69.675 59.6756 69.6 60.0506 69.45C60.1256 69.375 60.2006 69.45 60.8756 69.825ZM63.4256 69.9C63.4256 70.125 63.6506 70.35 63.8756 70.35C64.1006 70.35 64.3256 70.2 64.3256 69.9C64.3256 69.675 64.1006 69.45 63.8756 69.45C63.5756 69.45 63.4256 69.675 63.4256 69.9Z" fill="#111D33"/>
<path d="M63.9499 70.0502C64.0999 70.0502 64.0999 69.8252 63.9499 69.8252C63.7999 69.8252 63.7999 70.0502 63.9499 70.0502ZM60.1999 70.0502C60.3499 70.0502 60.3499 69.8252 60.1999 69.8252C60.1249 69.8252 60.0499 70.0502 60.1999 70.0502Z" fill="#FBFBFB"/>
<path d="M64.6256 69.8252C64.3256 69.7502 64.0256 69.6752 63.8006 69.6002H63.8756C63.5006 69.8252 63.2006 70.1252 62.6006 70.1252C62.9756 69.6752 63.4256 69.6002 63.8006 69.4502H63.8756C64.1756 69.5252 64.4006 69.6002 64.6256 69.8252C64.7006 69.7502 64.7006 69.7502 64.6256 69.8252C64.7006 69.8252 64.7006 69.8252 64.6256 69.8252Z" fill="#111D33"/>
<path d="M71.5254 121.576C71.3754 121.951 71.1504 122.251 70.8504 122.551C65.9754 126.376 45.8754 126.151 40.7754 122.551C37.7004 120.376 42.5004 111.301 42.5004 107.551C42.5004 104.776 40.8504 100.201 39.2754 95.7759C40.8504 95.1009 43.0254 96.0759 43.7004 97.7259C44.0754 98.6259 43.7004 99.9009 43.7754 100.876C44.0754 104.551 45.6504 105.751 45.9504 107.701C46.1754 109.426 45.2754 111.076 44.6004 112.726C43.9254 114.376 43.7004 116.476 44.9004 117.676C45.9504 118.726 47.6004 118.726 49.0254 118.501C50.4504 118.276 52.0254 117.976 53.3004 118.576C54.7254 119.176 55.4754 120.601 56.6004 121.726C58.5504 123.676 61.5504 124.426 64.1754 123.676C65.7504 123.226 67.1004 122.326 68.6004 121.801C69.5754 121.501 70.6254 121.351 71.5254 121.576Z" fill="#FDC0AB"/>
<path d="M63.5746 79.8009C65.1496 79.5009 76.6246 78.3009 77.5246 79.7259C78.5746 81.3759 79.6246 84.4509 79.9246 88.0509C79.9996 88.8009 70.6996 90.1509 70.6996 90.1509C70.6996 90.1509 60.7246 80.4009 63.5746 79.8009Z" fill="#FDC0AB"/>
<path d="M136.025 149.025C135.875 149.1 137.3 149.625 113.9 140.175C113.75 140.1 113.675 139.95 113.75 139.8L125.825 117.975C125.9 117.9 125.975 117.825 126.125 117.9L142.4 124.5C142.475 124.575 142.55 124.65 142.55 124.8C135.65 150.525 136.25 148.95 136.025 149.025Z" fill="#F35170"/>
<path d="M126.5 140.701C126.425 140.926 128.075 140.176 98.825 150.376C98.75 150.376 98.675 150.376 98.6 150.376C98.525 150.301 98.45 150.226 98.45 150.151L92 120.076C92 119.926 92.075 119.776 92.225 119.701L112.7 112.651C112.85 112.576 113 112.651 113.075 112.801C127.325 142.276 126.575 140.476 126.5 140.701Z" fill="#6EB854"/>
<path d="M107.675 118.876C107.9 119.401 107.6 120.001 107 120.226L100.55 122.476C100.025 122.701 99.4247 122.401 99.1997 121.801C98.9747 121.276 99.2747 120.676 99.8747 120.451L106.325 118.201C106.85 118.051 107.45 118.351 107.675 118.876Z" fill="white"/>
<path d="M129.875 139.426C129.8 139.651 129.8 139.501 126.425 140.701C126.65 140.401 127.1 141.901 112.925 112.801C112.85 112.726 112.775 112.651 112.7 112.651L113.825 112.276C113.975 112.201 114.05 112.276 114.125 112.426C130.7 140.776 129.95 139.201 129.875 139.426Z" fill="#4B9434"/>
<path d="M136.175 125.701C136.025 126.151 135.5 126.376 135.05 126.151L129.95 124.051C129.5 123.901 129.275 123.376 129.5 122.926C129.65 122.476 130.175 122.251 130.625 122.476L135.725 124.576C136.1 124.726 136.325 125.251 136.175 125.701Z" fill="white"/>
<path d="M138.575 150.15L135.95 149.1C136.325 149.1 135.95 149.25 142.625 124.8C142.625 124.725 142.625 124.65 142.55 124.575L143.45 124.95C143.525 125.025 143.6 125.1 143.6 125.175C138.575 151.35 138.95 150.3 138.575 150.15Z" fill="#DA2157"/>
<path d="M98.7498 152.175C98.7498 152.25 98.6748 152.325 98.5998 152.325C98.5248 152.325 98.4498 152.325 98.3748 152.325L75.9498 142.95C75.8748 142.95 75.7998 142.875 75.7998 142.8C75.7998 142.725 75.7998 142.65 75.7998 142.575L88.4748 120.3C88.5498 120.225 88.6998 120.15 88.7748 120.225L105.425 127.2C105.575 127.275 105.575 127.35 105.575 127.5L98.7498 152.175Z" fill="#FFD375"/>
<path d="M99.05 128.25C98.9 128.7 98.375 128.925 97.925 128.7L92.675 126.525C92.225 126.375 92 125.85 92.225 125.4C92.375 124.95 92.9 124.725 93.35 124.95L98.6 127.125C98.975 127.35 99.2 127.875 99.05 128.25Z" fill="white"/>
<path d="M101.525 153.3C101.525 153.375 101.45 153.45 101.45 153.45C101.375 153.45 101.3 153.45 101.3 153.45L98.5996 152.325H98.6746C98.7496 152.325 98.7496 152.25 98.8246 152.175L105.725 127.5C105.725 127.425 105.725 127.35 105.65 127.275L106.55 127.65C106.625 127.725 106.7 127.8 106.7 127.875L101.525 153.3Z" fill="#DF8236"/>
<path d="M122.9 195.225C122.9 198.375 125.45 201 128.675 201C131.825 201 134.45 198.45 134.45 195.225C134.45 192.075 131.9 189.45 128.675 189.45C125.45 189.45 122.9 192 122.9 195.225Z" fill="#4C5C75"/>
<path d="M125.075 195.225C125.075 197.175 126.65 198.825 128.675 198.825C130.625 198.825 132.275 197.25 132.275 195.225C132.275 193.275 130.7 191.625 128.675 191.625C126.65 191.625 125.075 193.2 125.075 195.225Z" fill="#111D33"/>
<path d="M89.375 195.225C89.375 198.375 91.925 201 95.15 201C98.3 201 100.925 198.45 100.925 195.225C100.925 192.075 98.375 189.45 95.15 189.45C92 189.45 89.375 192 89.375 195.225Z" fill="#4C5C75"/>
<path d="M91.5498 195.225C91.5498 197.175 93.1248 198.825 95.1498 198.825C97.0998 198.825 98.7498 197.25 98.7498 195.225C98.7498 193.275 97.1748 191.625 95.1498 191.625C93.1998 191.625 91.5498 193.2 91.5498 195.225Z" fill="#111D33"/>
<path d="M117.5 132.825H74.0753L73.5503 130.575C72.8753 127.8 70.7003 125.7 68.0003 125.025L60.6503 123.3C60.2003 123.225 59.7503 123.45 59.6753 123.9C59.6003 124.35 59.8253 124.8 60.2753 124.875L67.6253 126.6C69.8003 127.125 71.4503 128.775 71.9753 130.95L72.6503 133.8L84.5003 176.925H83.7503C80.5253 176.925 77.8253 179.55 77.8253 182.85C77.8253 186.15 80.4503 188.775 83.7503 188.775H89.0753L93.5753 195.45C93.9503 196.05 94.5503 196.35 95.2253 196.35C95.4503 196.35 95.6003 196.35 95.8253 196.275C96.6503 196.05 97.2503 195.225 97.2503 194.325V188.85H122.45L126.95 195.525C127.325 196.125 127.925 196.425 128.6 196.425C128.825 196.425 128.975 196.425 129.2 196.35C130.025 196.05 130.625 195.3 130.625 194.4V188.925H135.35C135.8 188.925 136.175 188.55 136.175 188.1C136.175 187.65 135.8 187.275 135.35 187.275H83.7503C81.4253 187.275 79.4753 185.4 79.4753 183C79.4753 180.675 81.3503 178.725 83.7503 178.725H139.025C140.45 178.725 141.725 177.75 142.1 176.4L152.9 136.875C153.425 134.85 151.925 132.9 149.825 132.9H117.5" fill="#BE7D5A"/>
<path d="M109.475 174.375C99.4252 174.375 90.0502 172.5 82.3252 169.2L84.4252 177H83.7502C80.5252 177 77.8252 179.625 77.8252 182.925C77.8252 186.15 80.4502 188.85 83.7502 188.85H89.0752L93.5752 195.525C93.9502 196.125 94.5502 196.425 95.2252 196.425C95.4502 196.425 95.6002 196.425 95.8252 196.35C96.7252 196.125 97.2502 195.3 97.2502 194.4V188.85H122.45L126.95 195.525C127.325 196.125 127.925 196.425 128.6 196.425C128.825 196.425 128.975 196.425 129.2 196.35C130.025 196.125 130.625 195.3 130.625 194.4V188.85H135.35C135.8 188.85 136.175 188.475 136.175 188.025C136.175 187.575 135.8 187.2 135.35 187.2H83.7502C81.4252 187.2 79.4752 185.325 79.4752 182.925C79.4752 180.6 81.3502 178.65 83.7502 178.65H139.025C140.45 178.65 141.725 177.675 142.1 176.325L145.325 164.475C136.475 170.55 123.65 174.375 109.475 174.375Z" fill="#C4967C"/>
<path d="M95.5998 142.875V166.425C95.5998 167.925 94.3998 169.2 92.8248 169.2C91.3248 169.2 90.0498 168 90.0498 166.425V142.875C90.0498 141.375 91.2498 140.1 92.8248 140.1C94.3998 140.1 95.5998 141.375 95.5998 142.875ZM109.475 142.875V166.425C109.475 167.925 108.275 169.2 106.7 169.2C105.2 169.2 103.925 168 103.925 166.425V142.875C103.925 141.375 105.125 140.1 106.7 140.1C108.2 140.1 109.475 141.375 109.475 142.875ZM123.275 142.875V166.425C123.275 167.925 122.075 169.2 120.5 169.2C119 169.2 117.725 168 117.725 166.425V142.875C117.725 141.375 118.925 140.1 120.5 140.1C122.075 140.1 123.275 141.375 123.275 142.875ZM137.15 142.875V166.425C137.15 167.925 135.95 169.2 134.375 169.2C132.875 169.2 131.6 168 131.6 166.425V142.875C131.6 141.375 132.8 140.1 134.375 140.1C135.875 140.1 137.15 141.375 137.15 142.875Z" fill="white"/>
<path d="M55.175 125.475C64.775 127.575 64.325 127.5 64.85 127.5C65.375 127.5 65.825 127.35 66.275 127.05C66.875 126.675 67.25 126.075 67.4 125.4C67.55 124.725 67.4 123.975 67.025 123.375C66.65 122.775 66.05 122.4 65.375 122.25L56.225 120.225C55.55 120.075 54.8 120.225 54.2 120.6C52.4 121.875 52.85 124.95 55.175 125.475Z" fill="#111D33"/>
<path d="M64.85 45.3758L63.575 43.0508L59.6 45.2258C59.15 45.4508 58.775 45.9008 58.625 46.3508C58.4 46.8758 58.475 47.5508 58.775 48.1508L62.15 54.4508C62.375 54.8258 62.675 55.1258 63.05 55.3508L63.575 55.6508L66.725 57.3008C67.325 57.6008 68.075 57.6008 68.75 57.3008L70.625 56.2508L69.35 53.9258L67.7 54.7508L64.325 53.0258L61.25 47.3258L64.85 45.3758Z" fill="#FF7E36"/>
<path d="M62.9746 43.3506L64.2496 45.6756L64.9996 45.3006L63.7246 42.9756L62.9746 43.3506ZM70.0996 56.5506L70.8496 56.1756L69.5746 53.8506L68.8246 54.2256L70.0996 56.5506Z" fill="#FFC6A7"/>
<path d="M87.0504 28.7256L94.2504 42.1506C96.7254 46.8006 95.0004 52.5006 90.4254 55.0506L83.0004 59.0256C81.8004 59.7006 80.5254 60.0006 79.2504 60.1506C78.7254 60.2256 78.2004 60.2256 77.6754 60.1506C74.6004 59.8506 71.6754 58.1256 70.1004 55.2006L62.9004 41.7756L87.0504 28.7256Z" fill="#FF7E36"/>
<path d="M87.0504 28.7256L94.2504 42.1506C96.1254 45.6006 95.6004 49.6506 93.3504 52.5756C94.0254 50.2506 93.8004 47.7006 92.6004 45.4506L86.0004 33.1506C85.6254 32.5506 84.8754 32.2506 84.2754 32.6256L63.8754 43.5756L62.9004 41.7756L87.0504 28.7256Z" fill="#FF9458"/>
<path d="M86.5249 24.5254L88.0249 27.3004C88.2499 27.6754 88.0999 28.2004 87.7249 28.4254L62.2249 42.1504C61.8499 42.3754 61.3249 42.2254 61.0999 41.8504L59.5999 39.0754C59.3749 38.7004 59.5249 38.1754 59.8999 37.9504L85.3999 24.2254C85.7749 23.9254 86.2999 24.0754 86.5249 24.5254ZM91.6999 27.9004L87.7249 30.0754L88.9999 32.4004L92.5249 30.4504L95.5999 36.2254L95.2249 39.9754L93.5749 40.8754L94.8499 43.2004L96.7249 42.1504C97.3249 41.7754 97.7749 41.1754 97.8499 40.5004L98.2998 36.3754C98.3748 35.9254 98.2999 35.4754 98.0749 35.1004L94.6999 28.8004C94.0999 27.7504 92.7499 27.3004 91.6999 27.9004Z" fill="#FF7E36"/>
<path d="M88.6765 29.5198L87.752 30.0176L88.9964 32.3288L89.9209 31.831L88.6765 29.5198Z" fill="#FFC6A7"/>
<path d="M94.4811 40.4231L93.5566 40.9209L94.8011 43.2322L95.7256 42.7344L94.4811 40.4231Z" fill="#FFC6A7"/>
<path d="M95.4502 62.0254L96.2002 63.4504L86.8252 68.5504L86.0752 67.1254C85.8502 66.7504 86.0002 66.3004 86.3752 66.1504L86.8252 65.9254L83.0752 59.0254L90.2002 55.2004L93.9502 62.1004L94.4002 61.8754C94.8502 61.5754 95.3002 61.6504 95.4502 62.0254Z" fill="#FFC6A7"/>
<path d="M95.4502 62.0253L96.2002 63.4503L94.8502 64.1253L94.4002 63.2253C94.1752 62.8503 93.8002 62.7003 93.4252 62.9253C93.1252 63.0753 92.8252 63.0003 92.6752 62.7003L89.4502 56.7753C89.3002 56.4753 88.9252 56.4003 88.7002 56.5503L83.3752 59.4003L83.0752 58.8003L90.2002 54.9753L93.9502 61.8753L94.4002 61.6503C94.8502 61.5753 95.3002 61.6503 95.4502 62.0253Z" fill="#FFAA7B"/>
<path d="M102.575 62.8505L105.875 69.0005L86.075 79.6505L82.775 73.5005C82.7 73.3505 82.625 73.1255 82.55 72.9755C82.25 71.9255 82.775 70.8005 83.75 70.2755L99.35 61.8755C100.55 61.2005 101.975 61.6505 102.575 62.8505Z" fill="#4C5C75"/>
<path d="M102.575 62.8504L105.875 69.0004L86.075 79.6504L85.625 78.8254L100.7 70.7254C101.75 70.1254 102.125 68.8504 101.6 67.8004L98.6 62.3254L99.35 61.9504C100.55 61.2004 101.975 61.6504 102.575 62.8504Z" fill="#1D2943"/>
<path d="M108.95 70.5004L107.975 68.7004C107.75 68.3254 107.3 68.1754 106.925 68.4004L85.0249 80.1754C84.6499 80.4004 84.4999 80.8504 84.7249 81.2254L85.6999 83.0254C85.9249 83.4004 86.3749 83.5504 86.7499 83.3254L108.65 71.5504C109.025 71.3254 109.175 70.8754 108.95 70.5004Z" fill="#4C5C75"/>
<path d="M98.6748 67.5003C99.2748 68.7003 97.6248 70.8003 94.9248 72.2253C92.2248 73.6503 89.5248 73.8753 88.9248 72.6753C88.3248 71.4753 89.9748 69.3753 92.6748 67.9503C95.2998 66.6003 97.9998 66.3753 98.6748 67.5003Z" fill="#FFD475"/>
<path d="M97.8502 67.9502C98.2252 68.7002 96.8002 70.2752 94.5502 71.4752C92.3002 72.6752 90.2002 73.0502 89.7502 72.3002C89.3752 71.5502 90.8002 69.9752 93.0502 68.7752C95.3002 67.5752 97.4002 67.2002 97.8502 67.9502Z" fill="#FFB961"/>
<path d="M85.4746 41.9258C87.2746 45.3008 85.9996 49.5008 82.6996 51.3008C79.3246 53.1008 75.1246 51.8258 73.3246 48.5258C71.5246 45.1508 72.7996 40.9508 76.0996 39.1508C79.4746 37.3508 83.6746 38.6258 85.4746 41.9258Z" fill="#FFB961"/>
<path d="M84.1993 42.6007C85.6243 45.3007 84.6493 48.6757 81.9493 50.1007C79.2493 51.5257 75.8743 50.5507 74.4493 47.8507C73.0243 45.1507 73.9993 41.7757 76.6993 40.3507C79.3993 38.9257 82.7743 39.9007 84.1993 42.6007Z" fill="white"/>
<path d="M82.0244 43.5005C82.0244 43.5755 81.4994 45.1505 81.4994 45.0755C81.5744 45.1505 82.5494 46.4255 82.5494 46.3505C82.7744 46.5755 82.6244 46.9505 82.3994 47.1005C82.2494 47.1755 80.4494 47.1755 80.5244 47.1755L79.6244 48.5255C79.3994 48.8255 78.8744 48.8255 78.7994 48.4505C78.7244 48.2255 78.2744 46.8005 78.2744 46.8755C78.1994 46.8755 76.5494 46.3505 76.6994 46.4255C76.3244 46.3505 76.2494 45.8255 76.5494 45.6005C76.6244 45.5255 77.9744 44.5505 77.8994 44.6255L77.8244 42.9755C77.8244 42.6005 78.2744 42.3755 78.5744 42.6005C78.7994 42.7505 79.9994 43.6505 79.9244 43.5755L81.4994 42.9755C81.7244 42.7505 82.0994 43.1255 82.0244 43.5005Z" fill="#FF7E36"/>
<path d="M83.8999 68.2509C82.3999 67.0509 82.8499 58.4259 85.4749 59.4009C86.3749 59.7759 85.0249 65.4009 86.1499 66.3009C86.1499 66.3759 84.4999 68.8509 83.8999 68.2509Z" fill="#F6A285"/>
<path d="M164.45 195.15C165.575 192.975 168.95 193.575 171.8 193.575C173.3 193.575 173.75 192.525 173.825 191.475L179.375 191.25C180.35 192.825 180.8 195.825 180.8 197.7C180.8 198.6 180.05 199.35 179.15 199.35H166.175C165.575 199.35 164.975 198.975 164.675 198.45C164.225 197.7 163.775 196.425 164.45 195.15ZM184.85 195.15C185.975 192.975 189.35 193.575 192.2 193.575C193.7 193.575 194.15 192.525 194.225 191.475L199.775 191.25C200.75 192.825 201.2 195.825 201.2 197.7C201.2 198.6 200.45 199.35 199.55 199.35H186.5C185.9 199.35 185.3 198.975 185 198.45C184.55 197.7 184.175 196.425 184.85 195.15Z" fill="#BF7D5A"/>
<path d="M164.149 197.175C164.224 197.7 164.449 198.15 164.599 198.525C164.899 199.05 165.499 199.425 166.099 199.425H179.074C179.974 199.425 180.724 198.675 180.724 197.775C180.724 197.55 180.724 197.4 180.724 197.175H164.149ZM184.549 197.175C184.624 197.7 184.849 198.15 184.999 198.525C185.299 199.05 185.899 199.425 186.499 199.425H199.474C200.374 199.425 201.124 198.675 201.124 197.775C201.124 197.55 201.124 197.4 201.124 197.175H184.549ZM181.324 155.775C177.424 169.95 183.274 183.525 180.574 191.1C180.424 191.55 179.974 191.925 179.449 191.925H173.974C173.449 191.925 172.999 191.625 172.849 191.175C169.249 181.05 167.149 168.525 167.524 152.925C167.749 142.95 168.649 133.425 169.324 127.575C169.399 127.2 169.399 126.75 169.474 126.375C169.699 124.5 169.849 123.15 169.924 122.475C169.999 122.1 169.999 121.875 169.999 121.875L175.324 122.7H175.399L180.049 123.45C180.124 123.45 180.124 123.45 180.199 123.45L182.599 123.825L183.124 123.9C183.124 123.9 183.349 124.8 183.649 126.45C183.724 126.75 183.724 127.05 183.799 127.425C184.849 134.925 184.324 144.75 181.324 155.775Z" fill="#395B64"/>
<path d="M180.125 162.75C180.275 160.425 180.725 158.1 181.325 155.775C183.35 148.5 184.1 142.275 184.25 137.25L182.45 138.3C182.45 138.375 179 157.35 180.125 162.75Z" fill="#51383C"/>
<path d="M183.2 153.9C184.85 169.875 187.175 183.825 193.175 191.25C194.3 192.6 199.85 192.975 200.225 191.25C202.175 181.65 195.575 170.1 197.3 155.025C199.475 136.05 195.125 122.775 195.125 122.775H182.675C182.675 122.775 182.675 123.15 182.6 123.825C182.375 127.5 181.85 140.4 183.2 153.9Z" fill="#395B64"/>
<path d="M200.225 191.25C199.925 192.6 196.4 192.675 194.375 191.925C197.6 184.725 196.775 175.95 193.775 168.6C190.925 161.625 191.375 153.075 192.5 145.65C192.95 142.5 193.7 139.35 193.625 136.2C193.55 133.05 192.5 129.675 190.025 127.725C189.575 127.35 187.1 127.35 183.8 127.35C179.375 127.35 173.45 127.575 169.25 127.5C169.325 127.125 169.325 126.675 169.4 126.3C169.625 124.425 169.775 123.075 169.85 122.4C171.575 122.325 173.45 122.4 175.25 122.625H175.325C177.05 122.85 178.7 123.15 179.975 123.375C180.05 123.375 180.05 123.375 180.125 123.375C181.55 123.675 182.525 123.825 182.525 123.75C182.6 123.075 182.6 122.7 182.6 122.7H195.05C195.05 122.7 199.4 135.975 197.225 154.95C195.575 170.1 202.175 181.65 200.225 191.25Z" fill="#46656E"/>
<path d="M144.2 98.0252C144.2 98.0252 156.05 109.275 161.75 107.925C167.45 106.575 172.625 97.5752 172.625 97.5752L165.5 91.5752C164.9 92.3252 167.6 88.9502 159.875 98.7002C159.875 98.7002 152.075 97.1252 149.6 96.0002C147.125 94.8752 145.775 94.0502 145.775 94.0502C145.7 94.2002 144.125 98.3252 144.2 98.0252Z" fill="#F6A285"/>
<path d="M144.2 98.0252C144.2 98.0252 156.05 109.275 161.75 107.925C167.45 106.575 172.625 97.5752 172.625 97.5752L165.5 91.5752L162.8 95.0252C163.7 96.6752 165.35 96.5252 166.625 97.5752C167.675 98.4752 167.9 100.05 167.45 101.325C165.425 106.8 153.35 105.9 147.05 98.4002C146.675 98.0252 146.375 97.5752 145.925 97.2752C145.55 97.0502 145.1 96.9002 144.725 96.9752L144.2 98.0252Z" fill="url(#paint4_linear_662_619)"/>
<path d="M168.2 120C168.05 123.075 169.55 125.625 175.775 125.25C187.1 124.575 192.575 128.175 196.175 124.5C199.925 120.675 195.05 108.225 196.175 103.05C196.475 101.55 199.775 98.2498 199.775 98.2498L199.475 97.0498L195.5 81.1498C195.5 81.1498 193.625 80.3998 192.95 80.3248C192.725 80.3248 192.5 80.2498 192.2 80.2498C188.6 80.0248 180.875 80.7748 178.925 80.9248C178.625 80.9248 178.475 80.9998 178.475 80.9998C178.475 80.9998 171.5 81.7498 168.875 85.7248C166.325 89.6998 164.6 92.4748 164.6 92.4748L171.125 99.8998C171.125 99.8998 172.4 108.3 170.6 112.5C169.7 114.525 168.35 117.45 168.2 120Z" fill="#FDC0AB"/>
<path d="M198.05 92.6256L195.35 81.9756C195.35 81.9756 193.475 81.2256 192.8 81.1506C192.575 81.1506 192.35 81.0756 192.05 81.0756C188.6 80.8506 181.775 81.5256 178.325 81.8256C178.325 81.8256 171.35 82.5756 168.725 86.5506C166.925 89.3256 165.575 91.5006 164.9 92.6256H164.525L164.45 92.5506C164.45 92.5506 166.175 89.7756 168.725 85.8006C171.275 81.8256 178.325 81.0756 178.325 81.0756C178.325 81.0756 178.475 81.0756 178.775 81.0006C180.725 80.7756 188.45 80.0256 192.05 80.2506C192.35 80.2506 192.575 80.2506 192.8 80.3256C193.475 80.4006 195.35 81.1506 195.35 81.1506L198.2 92.6256H198.05ZM175.775 125.326C187.1 124.651 192.575 128.251 196.175 124.576C199.925 120.751 195.05 108.301 196.175 103.126C196.475 101.626 199.775 98.3256 199.775 98.3256L199.475 97.1256C199.4 97.1256 199.325 97.1256 199.175 97.1256C198.425 97.2006 197.6 97.3506 196.85 97.5006C195.125 97.9506 193.625 99.1506 192.875 100.726C191.9 102.826 192.2 105.226 192.125 107.476C192.05 109.801 191.45 112.351 189.425 113.476C187.925 114.301 185.975 114.076 184.625 115.126C183.2 116.176 182.9 118.576 184.1 119.926C184.475 120.376 185 120.676 185.3 121.126C185.675 121.576 185.9 122.176 185.675 122.701C185.375 123.376 184.55 123.601 183.875 123.676C179.15 124.276 174.275 123.226 170.225 120.751C169.625 120.376 168.95 120.001 168.275 120.001C168.05 123.151 169.55 125.626 175.775 125.326Z" fill="#FFC370"/>
<path d="M184.324 124.725C182.374 132.075 174.799 136.35 167.524 134.4C160.174 132.45 155.824 124.875 157.849 117.6C159.799 110.25 167.374 105.975 174.649 107.925C181.999 109.875 186.274 117.45 184.324 124.725Z" fill="#EE9545"/>
<path d="M185.824 124.725C183.874 132.075 176.299 136.35 169.024 134.4C161.674 132.45 157.324 124.875 159.349 117.6C161.299 110.25 168.874 105.975 176.149 107.925C183.424 109.875 187.774 117.45 185.824 124.725Z" fill="#FFDE9E"/>
<path d="M183.35 124.125C181.775 130.125 175.625 133.65 169.625 132C163.625 130.425 160.1 124.275 161.75 118.275C163.325 112.275 169.475 108.75 175.475 110.4C181.475 111.975 185 118.125 183.35 124.125Z" fill="#FFD375"/>
<g style="mix-blend-mode:soft-light" clip-path="url(#clip0_662_619)">
<path d="M172.188 119.081C172.186 119.08 172.185 119.079 172.183 119.078C172.163 119.065 172.142 119.052 172.12 119.039C172.119 119.038 172.117 119.037 172.116 119.036C172.093 119.023 172.07 119.01 172.047 118.997C171.759 118.84 171.441 118.76 171.095 118.758C171.038 118.838 170.985 118.919 170.934 118.998C170.437 119.782 169.997 120.682 170.073 121.907C170.12 122.667 170.39 123.23 170.775 123.77C170.775 123.77 170.776 123.771 170.776 123.771C170.789 123.773 170.802 123.775 170.815 123.777C170.823 123.779 170.831 123.78 170.839 123.781C170.861 123.785 170.882 123.787 170.903 123.79C170.911 123.791 170.919 123.792 170.927 123.793C170.94 123.795 170.954 123.796 170.967 123.797C170.968 123.797 170.968 123.797 170.968 123.797V123.797C170.968 123.797 170.968 123.797 170.968 123.797C170.619 122.196 171.386 120.833 172.14 119.879C172.274 119.709 172.413 119.542 172.557 119.38C172.445 119.267 172.322 119.167 172.188 119.081Z" fill="white"/>
<path d="M176.101 120.223C176.519 119.888 176.979 119.466 177.384 118.979C177.851 118.418 178.556 117.415 178.092 116.492C177.631 115.576 176.347 115.468 175.164 115.726C174.15 115.947 173.297 116.441 172.676 116.989C172.414 117.22 172.12 117.513 171.834 117.832C171.843 117.835 171.853 117.837 171.862 117.84C172.128 117.925 172.398 118.061 172.672 118.249L172.672 118.249C172.672 118.249 172.672 118.249 172.672 118.249L172.821 117.824L173.254 117.821L173.439 118.498C173.439 118.498 173.439 118.498 173.439 118.498L173.439 118.498C174.095 117.92 174.833 117.437 175.661 117.104C175.588 116.45 174.837 116.474 174.149 116.434C175.035 116.312 176.176 116.307 175.91 117.334C175.81 117.718 175.549 118.075 175.317 118.405C174.887 119.018 174.382 119.577 173.865 120.1L173.964 120.463L173.535 120.582C173.535 120.582 173.535 120.582 173.535 120.582L173.315 120.643C173.255 120.701 173.195 120.759 173.135 120.817C173.082 120.868 172.957 120.915 172.982 121.008C174.26 121.17 175.748 122.058 175.125 123.534C175.857 122.982 176.438 122.182 176.35 120.874C176.781 122.629 175.746 123.746 174.685 124.396C173.771 124.955 172.697 125.383 171.413 125.295C170.334 125.221 169.497 124.835 168.906 124.194C168.884 124.175 168.862 124.155 168.841 124.135C168.84 124.135 168.84 124.134 168.839 124.134C168.733 124.037 168.631 123.93 168.534 123.814C168.356 123.603 168.209 123.378 168.092 123.139C168.092 123.139 168.092 123.138 168.092 123.138C168.082 123.117 168.072 123.096 168.062 123.074C168.061 123.073 168.061 123.072 168.06 123.07C168.051 123.05 168.041 123.029 168.033 123.009C168.032 123.007 168.031 123.004 168.03 123.002C168.021 122.982 168.013 122.963 168.005 122.943C168.004 122.94 168.002 122.937 168.001 122.933C167.994 122.915 167.986 122.896 167.979 122.876C167.977 122.872 167.976 122.868 167.974 122.864C167.967 122.846 167.961 122.828 167.954 122.809C167.952 122.805 167.951 122.8 167.949 122.795C167.943 122.777 167.937 122.759 167.931 122.741C167.929 122.736 167.927 122.731 167.926 122.725C167.92 122.708 167.915 122.69 167.909 122.673C167.907 122.667 167.905 122.661 167.904 122.655C167.899 122.638 167.894 122.621 167.889 122.604C167.887 122.597 167.885 122.59 167.883 122.584C167.879 122.567 167.874 122.551 167.87 122.534C167.868 122.527 167.866 122.519 167.865 122.512C167.861 122.496 167.857 122.48 167.853 122.464C167.851 122.456 167.849 122.448 167.847 122.44C167.844 122.424 167.84 122.409 167.837 122.393C167.835 122.384 167.833 122.376 167.832 122.367C167.829 122.352 167.825 122.337 167.823 122.321C167.821 122.312 167.819 122.303 167.818 122.294C167.815 122.279 167.812 122.264 167.81 122.249C167.808 122.239 167.806 122.23 167.805 122.22C167.803 122.206 167.8 122.191 167.798 122.176C167.797 122.166 167.795 122.156 167.794 122.146C167.792 122.131 167.79 122.117 167.788 122.102C167.787 122.092 167.786 122.082 167.784 122.071C167.783 122.057 167.781 122.042 167.779 122.027C167.778 122.017 167.777 122.006 167.776 121.996C167.775 121.981 167.774 121.967 167.772 121.952C167.771 121.941 167.771 121.931 167.77 121.92C167.769 121.905 167.768 121.891 167.767 121.876C167.766 121.865 167.765 121.854 167.765 121.843C167.764 121.829 167.763 121.814 167.763 121.8C167.762 121.788 167.762 121.777 167.761 121.766C167.761 121.751 167.76 121.737 167.76 121.722C167.76 121.711 167.759 121.699 167.759 121.688C167.759 121.684 167.759 121.681 167.759 121.677C167.74 124.545 169.345 126.207 172.121 126.386C173.735 126.49 175.189 126.028 176.255 125.371C177.199 124.789 178.342 123.756 178.226 122.156C178.137 120.945 177.252 120.419 176.101 120.223Z" fill="white"/>
<path d="M172.82 118.109H173.152L173.737 120.254L173.308 120.374C173.078 119.879 172.902 119.547 172.782 119.378C172.586 119.104 172.34 118.887 172.047 118.727C171.753 118.567 171.429 118.487 171.075 118.487C170.66 118.487 170.278 118.599 169.929 118.822C169.58 119.045 169.297 119.372 169.08 119.803C168.863 120.234 168.754 120.719 168.754 121.258C168.754 121.812 168.864 122.306 169.084 122.74C169.304 123.174 169.602 123.508 169.977 123.742C170.352 123.976 170.757 124.093 171.191 124.093C171.6 124.093 172.018 123.976 172.446 123.741C172.873 123.507 173.244 123.178 173.558 122.755L173.927 123.009C173.736 123.292 173.53 123.532 173.308 123.729C172.958 124.045 172.593 124.279 172.215 124.43C171.837 124.581 171.421 124.656 170.969 124.656C169.969 124.656 169.157 124.285 168.533 123.544C168.016 122.929 167.758 122.197 167.758 121.348C167.758 120.723 167.901 120.158 168.187 119.652C168.473 119.146 168.867 118.744 169.37 118.446C169.873 118.147 170.415 117.998 170.997 117.998C171.307 117.998 171.596 118.04 171.862 118.125C172.128 118.21 172.398 118.346 172.672 118.533L172.82 118.109Z" fill="white"/>
</g>
<path d="M172.55 132.6C171.575 132.6 170.6 132.45 169.625 132.225C163.55 130.575 159.95 124.35 161.6 118.275C163.25 112.2 169.475 108.6 175.55 110.25C181.625 111.9 185.225 118.125 183.575 124.2C182.15 129.225 177.575 132.6 172.55 132.6ZM172.55 110.175C170.675 110.175 168.8 110.7 167.075 111.675C164.525 113.175 162.725 115.5 161.975 118.35C160.4 124.2 163.85 130.275 169.775 131.85C175.625 133.425 181.7 129.975 183.275 124.05C184.85 118.2 181.4 112.125 175.475 110.55C174.5 110.325 173.525 110.175 172.55 110.175Z" fill="#EE9545"/>
<path d="M178.85 81.0006L181.55 86.9256C181.625 87.1506 181.85 87.2256 182.075 87.0756L192.2 80.2506C188.525 80.0256 180.8 80.7756 178.85 81.0006Z" fill="white"/>
<path d="M179.899 80.9254C179.899 81.0004 182.224 86.1004 182.074 85.8004L190.249 80.2504C188.749 77.7754 189.799 71.7754 189.799 71.7754C177.124 76.4254 181.249 74.9254 180.349 75.2254C180.724 78.4504 179.899 80.9254 179.899 80.9254Z" fill="url(#paint5_linear_662_619)"/>
<path d="M181.7 84.8254L182.15 85.8004L190.325 80.2504C188.825 77.7754 189.875 71.7754 189.875 71.7754L187.7 72.6004C187.4 74.1754 187.7 75.8254 187.025 76.6504C186.65 77.1004 185.975 77.2504 185.3 77.4004C182.3 78.1504 184.175 80.0254 184.1 81.3754C183.95 82.8754 182.225 83.5504 181.7 84.8254Z" fill="url(#paint6_linear_662_619)"/>
<path d="M178.4 81C178.4 81 171.425 81.75 168.8 85.725C166.25 89.7 164.375 90.525 164.525 92.475C164.75 94.95 168.575 99.9 171.05 99.9C174.125 99.975 179.525 91.125 179.525 91.125L178.4 81Z" fill="#FFDED3"/>
<path d="M164.525 92.5502C164.525 92.8502 164.6 93.0752 164.675 93.4502C164.375 91.5002 166.4 90.6002 168.95 86.5502C171.35 82.8002 177.65 81.9002 178.4 81.8252L178.325 81.0752C178.325 81.0752 171.35 81.8252 168.725 85.8002C166.25 89.7752 164.375 90.5252 164.525 92.5502Z" fill="#FFC370"/>
<path d="M133.25 92.1006C133.025 92.3256 133.25 93.1506 134.975 93.8256C135.125 94.2006 135.725 94.7256 137.15 95.1006C137.15 95.1006 139.325 97.2756 141.95 97.5756C143 97.7256 143.675 97.7256 144.2 98.0256L145.775 94.1256C145.775 94.1256 145.4 93.3006 144.275 91.4256C142.925 89.1756 143.825 88.4256 143.3 87.5256C142.85 86.8506 140.6 87.4506 141.725 90.3756C141.725 90.3756 142.1 91.2756 142.025 91.8756C142.025 91.8756 141.05 91.2006 137.9 91.2006C135.275 91.2006 134.825 90.2256 133.7 89.9256C133.325 89.8506 133.025 90.4506 134 91.2006C133.775 91.0506 133.475 90.9756 133.25 90.9006C132.8 90.9006 132.5 91.4256 133.25 92.1006Z" fill="#F6A285"/>
<path d="M144.125 91.8005C142.775 89.5505 143.675 88.8005 143.15 87.9005C142.925 87.4505 141.95 87.5255 141.5 88.3505C141.875 87.3005 143 87.1505 143.3 87.6005C143.825 88.4255 142.925 89.2505 144.275 91.5005C145.4 93.3755 145.775 94.2005 145.775 94.2005L145.7 94.4255C145.7 94.3505 145.025 93.2255 144.125 91.8005ZM133.7 90.0005C134.825 90.3005 135.275 91.2755 137.9 91.2755C138.95 91.2755 141.125 91.3505 142.025 91.9505V92.0255C141.125 91.5005 139.025 91.3505 137.9 91.3505C135.275 91.3505 134.75 90.3755 133.7 90.0005C133.55 90.0005 133.4 90.1505 133.325 90.3755C133.325 90.1505 133.475 90.0005 133.7 90.0005Z" fill="#FDE0BB"/>
<path d="M137.375 92.2506C136.625 92.2506 135.875 92.1756 135.2 91.8756C134.825 91.7256 134.525 91.5756 134.225 91.4256C133.925 91.2756 133.55 91.0506 133.175 90.9756C133.55 91.0506 133.85 91.2756 134.15 91.4256C134.45 91.5756 134.825 91.8006 135.125 91.8756C135.875 92.1756 136.625 92.2506 137.375 92.2506ZM139.7 93.0006C137.675 92.8506 136.55 93.3006 134.9 92.6256C136.55 93.3756 137.6 92.9256 139.7 93.0006ZM141.575 93.9756C139.325 93.9756 138.35 94.5756 136.325 93.6756C136.1 93.6006 135.275 93.2256 135.05 93.4506C134.9 93.5256 134.9 93.7506 134.975 93.8256C134.9 93.6756 134.975 93.5256 135.05 93.4506C135.2 93.3756 135.35 93.4506 135.5 93.4506C136.175 93.6006 136.85 94.1256 138.05 94.2006C139.175 94.2006 139.925 93.9756 141.575 93.9756Z" fill="#E17659"/>
<path d="M178.849 64.8002C178.474 65.7002 178.024 66.9002 178.549 68.6252C179.074 70.2752 178.249 70.5002 178.249 71.1002C178.174 72.3002 179.374 77.2502 181.399 78.0002C184.774 79.1252 187.849 77.7002 189.799 72.9002C191.749 68.1002 190.249 63.6002 190.249 63.6002L180.574 61.6502C180.649 61.5752 179.224 63.9752 178.849 64.8002Z" fill="url(#paint7_linear_662_619)"/>
<path d="M178.55 65.5501C178.775 64.9501 178.925 64.4251 179.225 64.1251C183.8 65.5501 187.475 66.2251 188.825 64.9501C190.7 66.0001 191.45 67.7251 192.35 69.3001C192.35 69.3001 195.2 62.7751 193.475 60.7501C192.35 59.4751 190.55 62.4001 190.55 62.4001C190.55 62.4001 187.325 53.4001 178.7 57.6001C177.05 58.3501 173.075 61.3501 178.55 65.5501Z" fill="#111D33"/>
<path d="M179.075 70.0502C179.075 70.0502 179.525 70.8002 179.825 70.9502C180.275 71.1002 181.55 70.1252 181.55 70.1252L180.05 69.6002L179.075 70.0502ZM183.875 69.5252C183.875 69.5252 184.325 70.2752 184.625 70.4252C185.075 70.5752 186.35 69.6002 186.35 69.6002L184.85 69.0752L183.875 69.5252Z" fill="#FDE0BB"/>
<path d="M190.4 72.5247C190.55 72.5247 190.7 72.3747 190.85 72.2247C191.825 71.1747 192.575 70.0497 191.975 68.6997C191.75 68.0997 191.3 67.9497 191 68.0247C190.85 68.0997 190.7 68.2497 190.55 68.3997C189.8 69.2997 189.875 70.1247 189.8 70.4247C189.725 70.7247 189.575 70.9497 189.575 71.2497C189.5 72.0747 190.025 72.5997 190.4 72.5247Z" fill="#F6A285"/>
<path d="M188.75 65.0252C188.75 65.0252 188.15 66.1502 189.05 67.0502C189.95 67.9502 188.75 71.1002 189.35 71.1752C189.875 71.2502 190.25 68.1752 191.9 67.8752C191.375 65.6252 190.55 64.1252 188.75 65.0252Z" fill="#111D33"/>
<path d="M184.174 74.5499C183.574 74.8499 182.149 75.3749 180.799 74.8499C180.724 74.7749 180.574 74.9249 180.649 74.9999C180.724 75.4499 181.099 76.1999 182.374 76.1999C183.649 76.1999 184.174 75.2249 184.399 74.6999C184.399 74.5499 184.249 74.4749 184.174 74.5499Z" fill="#E17659"/>
<path d="M184.475 68.0254C184.1 68.1004 183.65 68.2504 183.425 68.2504C183.2 68.2504 183.275 67.8754 183.275 67.5754C183.275 67.2754 183.425 67.2004 183.65 67.2004C184.775 67.1254 185.9 67.2754 186.95 67.6504C187.175 67.7254 187.325 67.8004 187.55 67.9504C187.625 68.0254 187.775 68.2504 187.625 68.3254C187.475 68.4004 187.4 68.3254 186.275 68.1754C185.3 68.0254 184.85 67.9504 184.475 68.0254ZM181.475 67.4254C181.25 67.2004 180.5 67.5004 180.05 67.6504C178.55 68.2504 178.55 68.1754 178.475 68.6254C178.475 69.0004 178.625 69.0754 178.85 69.0004C179.075 68.9254 179.225 68.7004 180.05 68.7004C181.025 68.6254 181.4 68.7004 181.55 68.1754C181.625 68.0254 181.625 67.5754 181.475 67.4254ZM185.45 69.5254C185.45 69.8254 185.3 70.0504 185 70.1254C184.7 70.1254 184.475 69.9754 184.4 69.6754C184.4 69.3754 184.55 69.1504 184.85 69.0754C185.15 69.0004 185.375 69.2254 185.45 69.5254Z" fill="#111D33"/>
<path d="M183.8 69.6C184.175 69.45 184.475 69.3 184.85 69.15H184.775C185.3 69.375 185.75 69.675 186.5 69.675C185.975 69.15 185.375 69.15 184.85 69H184.775C184.4 69.15 184.1 69.375 183.8 69.6ZM180.65 69.975C180.65 70.275 180.5 70.5 180.2 70.575C179.9 70.575 179.675 70.425 179.6 70.125C179.6 69.825 179.75 69.6 180.05 69.525C180.35 69.525 180.575 69.675 180.65 69.975Z" fill="#111D33"/>
<path d="M179.825 70.2C179.675 70.2 179.6 69.975 179.825 69.9C179.9 69.975 179.975 70.2 179.825 70.2ZM184.625 69.675C184.475 69.675 184.4 69.45 184.625 69.375C184.7 69.375 184.85 69.675 184.625 69.675Z" fill="#FBFBFB"/>
<path d="M179 70.1247C179.375 69.9747 179.675 69.8247 180.05 69.6747H179.975C180.5 69.8997 180.95 70.1997 181.7 70.1997C181.25 69.7497 180.725 69.6747 180.05 69.5247C179.975 69.3747 179.975 69.3747 179 70.1247C179 70.0497 179 70.0497 179 70.1247Z" fill="#111D33"/>
<path d="M183.35 72.4502C183.425 72.4502 183.425 72.4502 183.425 72.5252C183.2 73.4252 182.45 73.7252 182.075 73.4252C181.775 73.2002 181.55 72.7502 181.775 72.6002C181.925 72.5252 182.15 72.9002 182.3 72.9752C182.975 72.9752 183.2 72.5252 183.35 72.4502Z" fill="#E17659"/>
<path d="M159.875 98.7752C159.875 98.7752 161.675 100.2 162.5 102.45C161.6 100.8 160.55 99.3752 159.35 98.7002L159.875 98.7752Z" fill="#FDE0BB"/>
<path d="M191.45 70.5756C191.825 69.7506 191.6 68.9256 190.7 68.8506C190.625 68.8506 190.625 68.9256 190.7 69.0006C191.45 69.0756 191.675 69.8256 191.3 70.5756C191.225 70.2006 190.625 70.0506 190.55 70.2756V70.3506H190.625C190.7 70.2006 191.225 70.4256 191.15 70.8006C191.075 71.0256 190.925 71.1756 190.775 71.3256V71.4006H190.85" fill="#E17659"/>
<path d="M187.475 114.75L188.9 118.425L189.05 118.725C189.05 118.725 205.25 117 207.95 111.825C210.65 106.65 207.125 96.8252 207.125 96.8252L197.9 98.3252L198.65 101.925C198.65 102 199.775 107.55 199.7 107.25C197.9 108.675 193.1 112.35 191 113.325C188.525 114.525 187.475 114.75 187.475 114.75Z" fill="#F6A285"/>
<path d="M207.649 105.375C207.949 106.65 207.574 108.075 206.749 109.2C205.924 110.325 204.649 111.075 203.374 111.825C201.799 112.725 200.299 113.625 198.724 114.525C197.749 115.125 196.699 115.65 195.574 115.725C194.524 115.8 193.324 115.35 192.424 115.875C191.374 116.475 191.074 117.975 189.949 118.35C189.574 118.5 189.199 118.425 188.824 118.425L188.974 118.725C188.974 118.725 205.174 117 207.874 111.825C210.574 106.65 207.049 96.8252 207.049 96.8252L197.824 98.3252L198.574 101.925C200.599 102.6 203.074 101.55 205.099 102.3C206.449 102.825 207.424 104.025 207.649 105.375Z" fill="url(#paint8_linear_662_619)"/>
<path d="M178.699 113.926C178.699 114.001 178.624 114.076 178.699 114.226C178.699 114.526 178.924 114.901 179.224 115.276C178.999 115.276 178.849 115.351 178.849 115.651C178.849 116.026 179.149 116.476 179.524 116.851C179.299 116.851 179.074 116.926 179.149 117.226C179.224 118.126 180.499 119.101 181.174 119.326C182.149 119.551 187.774 118.801 189.049 118.801L187.624 114.976C187.624 114.976 187.174 113.626 185.074 112.426C183.574 111.601 183.274 110.101 183.274 109.576C183.274 109.426 183.124 109.351 182.974 109.351C182.374 109.501 181.024 110.251 183.274 113.551C183.424 113.776 181.624 114.601 178.699 113.926C178.774 113.926 178.774 113.926 178.699 113.926Z" fill="#F6A285"/>
<path d="M182.749 117.675C182.299 117.75 181.849 117.75 181.399 117.75C180.949 117.75 180.499 117.525 180.124 117.3C179.749 117 179.374 116.7 179.149 116.325C178.999 116.1 178.924 115.95 178.849 115.725C178.849 115.65 178.849 115.5 178.849 115.425C178.774 115.5 178.774 115.65 178.849 115.8C178.849 116.025 178.999 116.25 179.149 116.475C179.374 116.85 179.749 117.15 180.124 117.45C180.349 117.6 180.499 117.675 180.724 117.75C180.949 117.825 181.174 117.825 181.399 117.9C181.849 117.825 182.299 117.75 182.749 117.675Z" fill="#E17659"/>
<path d="M182.524 116.251C182.149 116.326 181.699 116.326 181.324 116.326C180.949 116.326 180.499 116.251 180.199 116.026C179.824 115.801 179.524 115.576 179.299 115.276C178.999 114.976 178.774 114.676 178.774 114.226C178.774 114.601 179.074 114.976 179.299 115.276C179.599 115.576 179.899 115.801 180.199 116.026C180.574 116.251 180.949 116.326 181.324 116.326C181.699 116.401 182.074 116.326 182.524 116.251Z" fill="#E17659"/>
<path d="M178.699 113.925C178.774 114.075 178.849 114.15 178.924 114.3C179.149 114.525 179.374 114.675 179.599 114.825C179.899 114.975 180.199 114.975 180.499 114.975C180.799 114.975 181.099 114.9 181.399 114.9C181.099 114.975 180.799 114.975 180.499 114.975C180.199 114.975 179.899 114.975 179.674 114.825C179.449 114.675 179.149 114.525 178.999 114.3C178.924 114.15 178.849 114.075 178.699 113.925C178.774 113.925 178.774 113.925 178.699 113.925Z" fill="#E17659"/>
<path d="M190.175 87.2256L195.2 90.9756C196.325 95.5506 195.95 102.151 198.2 103.351C200.9 104.851 209.6 101.626 208.925 98.6256C206.675 88.5006 204.725 85.7256 201.65 83.6256C199.85 82.4256 194.75 80.8506 194.75 80.8506L190.175 87.2256Z" fill="#FFDED3"/>
<path d="M194.3 81.6006C195.8 82.1256 198.95 83.1756 200.3 84.0756C203.45 86.1756 205.325 88.9506 207.575 99.0756C207.95 100.726 205.475 102.451 202.7 103.351C205.925 102.526 209.375 100.501 208.925 98.6256C206.675 88.5006 204.725 85.7256 201.65 83.6256C199.85 82.4256 194.75 80.8506 194.75 80.8506L194.3 81.6006Z" fill="#FFDED3"/>
<path d="M60.3497 124.8C59.8997 125.175 58.1747 124.275 57.8747 123.975C57.8747 124.2 59.8247 125.175 59.2997 125.7C58.7747 126.3 57.4997 125.4 57.1997 125.1C57.1997 125.4 58.3997 126.225 58.1747 126.675C57.8747 127.125 56.5247 126.75 55.7747 126C55.7747 126.225 57.2747 127.05 56.8997 127.425C56.3747 128.1 54.1997 127.425 53.5247 127.275C53.4497 127.275 52.9997 126.975 52.3247 126.6C47.9747 123.9 33.4247 113.85 32.8997 110.775C32.2247 106.725 32.7497 97.2754 33.5747 93.1504L42.5747 94.7254L42.1997 101.025V101.475L41.6747 109.875L52.6247 119.1C54.2747 118.8 58.3247 117 58.8497 118.425C59.0747 119.025 55.3247 119.925 56.3747 120.825C56.3747 120.825 61.2497 123.9 60.3497 124.8Z" fill="#F6A285"/>
<path d="M52.3247 126.676C47.9747 123.976 33.4247 113.926 32.8997 110.851C32.2247 106.801 32.7497 97.3506 33.5747 93.2256L42.5747 94.8006L42.1997 101.101V101.551C40.9247 101.926 39.5747 101.776 38.2997 101.851C36.9497 101.926 35.4497 102.376 34.7747 103.501C34.0997 104.551 34.3247 106.051 34.9997 107.101C36.2747 109.276 39.0497 110.326 40.1747 112.651C40.6997 113.701 40.8497 114.901 41.2997 115.951C42.8747 119.326 47.1497 120.226 49.9247 121.951C51.4247 122.926 52.6247 126.526 52.3247 126.676Z" fill="url(#paint9_linear_662_619)"/>
<path d="M36.7996 83.8508C35.8996 84.9758 32.2246 93.4508 32.8246 95.7008C33.4246 98.1008 39.7246 100.351 41.9746 99.3008C43.9246 98.4008 44.6746 91.1258 44.6746 91.1258C44.6746 91.1258 38.5996 81.6008 36.7996 83.8508Z" fill="#FDC0AB"/>
<path d="M141.35 49.125V64.8C141.35 65.4 141.875 65.925 142.475 65.925H158.675L164.225 69.375C164.6 69.675 165.125 69.375 165.125 68.925V65.925H167.825C168.425 65.925 168.95 65.4 168.95 64.8V49.125C168.95 48.525 168.425 48 167.825 48H142.55C141.875 48.075 141.35 48.525 141.35 49.125Z" fill="#FF7E36"/>
<path d="M150.65 57.0004C150.65 58.2004 149.675 59.1754 148.475 59.1754C147.275 59.1754 146.3 58.2004 146.3 57.0004C146.3 55.8004 147.275 54.8254 148.475 54.8254C149.675 54.8254 150.65 55.8004 150.65 57.0004ZM157.325 57.0004C157.325 58.2004 156.35 59.1754 155.15 59.1754C153.95 59.1754 152.975 58.2004 152.975 57.0004C152.975 55.8004 153.95 54.8254 155.15 54.8254C156.35 54.8254 157.325 55.8004 157.325 57.0004ZM163.925 57.0004C163.925 58.2004 162.95 59.1754 161.75 59.1754C160.55 59.1754 159.575 58.2004 159.575 57.0004C159.575 55.8004 160.55 54.8254 161.75 54.8254C162.95 54.8254 163.925 55.8004 163.925 57.0004Z" fill="white"/>
<defs>
<linearGradient id="paint0_linear_662_619" x1="82.8559" y1="87.3654" x2="80.1021" y2="68.5617" gradientUnits="userSpaceOnUse">
<stop stop-color="#F6A285"/>
<stop offset="1" stop-color="#FC6B58"/>
</linearGradient>
<linearGradient id="paint1_linear_662_619" x1="61.1722" y1="79.2375" x2="51.3067" y2="73.7745" gradientUnits="userSpaceOnUse">
<stop stop-color="#FDE0BB"/>
<stop offset="1" stop-color="#FC6B58"/>
</linearGradient>
<linearGradient id="paint2_linear_662_619" x1="64.7305" y1="70.7434" x2="50.7648" y2="70.6556" gradientUnits="userSpaceOnUse">
<stop stop-color="#FDE0BB"/>
<stop offset="1" stop-color="#FC6B58"/>
</linearGradient>
<linearGradient id="paint3_linear_662_619" x1="52.8596" y1="65.3473" x2="60.1054" y2="65.3473" gradientUnits="userSpaceOnUse">
<stop stop-color="#F6A285"/>
<stop offset="1" stop-color="#FC6B58"/>
</linearGradient>
<linearGradient id="paint4_linear_662_619" x1="172.594" y1="99.8649" x2="144.217" y2="99.8649" gradientUnits="userSpaceOnUse">
<stop stop-color="#F6A285"/>
<stop offset="1" stop-color="#FC6B58"/>
</linearGradient>
<linearGradient id="paint5_linear_662_619" x1="175.227" y1="80.2069" x2="199.192" y2="77.0246" gradientUnits="userSpaceOnUse">
<stop stop-color="#FDE0BB"/>
<stop offset="1" stop-color="#FC6B58"/>
</linearGradient>
<linearGradient id="paint6_linear_662_619" x1="190.318" y1="78.7706" x2="181.69" y2="78.7706" gradientUnits="userSpaceOnUse">
<stop stop-color="#F6A285"/>
<stop offset="1" stop-color="#FC6B58"/>
</linearGradient>
<linearGradient id="paint7_linear_662_619" x1="177.131" y1="70.1852" x2="200.043" y2="69.1697" gradientUnits="userSpaceOnUse">
<stop stop-color="#FDE0BB"/>
<stop offset="1" stop-color="#FC6B58"/>
</linearGradient>
<linearGradient id="paint8_linear_662_619" x1="207.065" y1="113.316" x2="193.788" y2="105.1" gradientUnits="userSpaceOnUse">
<stop stop-color="#F6A285"/>
<stop offset="1" stop-color="#FC6B58"/>
</linearGradient>
<linearGradient id="paint9_linear_662_619" x1="32.5907" y1="109.939" x2="52.3764" y2="109.939" gradientUnits="userSpaceOnUse">
<stop stop-color="#F6A285"/>
<stop offset="1" stop-color="#FC6B58"/>
</linearGradient>
<clipPath id="clip0_662_619">
<rect width="12" height="12" fill="white" transform="translate(167 115)"/>
</clipPath>
</defs>
</svg>
