<svg width="226" height="225" viewBox="0 0 226 225" fill="none" xmlns="http://www.w3.org/2000/svg">
<path d="M97.7031 200.774H131.231L118.86 183.065H107.618L97.7031 200.774Z" fill="#2B4C54"/>
<path opacity="0.2" d="M105.142 191.565C106.262 192.185 107.557 192.634 108.92 192.939C110.379 193.265 111.895 193.416 113.421 193.473C114.746 193.524 116.079 193.593 117.381 193.778C118.497 193.937 119.596 194.187 120.559 194.617C121.542 195.056 122.319 195.673 122.875 196.383C123.573 197.271 124.021 198.309 124.098 199.319C124.136 199.812 124.072 200.303 123.898 200.775H131.23L118.859 183.066H107.618L103.506 190.41C103.984 190.836 104.53 191.226 105.142 191.565Z" fill="#324177"/>
<path d="M89.2479 205.383H138.453C138.453 205.383 137.166 196.631 113.85 196.631C90.5349 196.631 89.2479 205.383 89.2479 205.383ZM184.283 105.822V174.626C184.283 182.216 178.109 188.391 170.519 188.391H58.4169C50.8269 188.391 44.6484 182.216 44.6484 174.626V105.822C44.6484 98.2285 50.8269 92.0537 58.4169 92.0537H170.519C178.109 92.0537 184.283 98.2285 184.283 105.822Z" fill="#395B64"/>
<path d="M58.4161 186.4C51.9226 186.4 46.6396 181.119 46.6396 174.627V105.822C46.6396 99.3289 51.9226 94.0459 58.4161 94.0459H170.517C177.009 94.0459 182.291 99.3289 182.291 105.822V174.627C182.291 181.119 177.009 186.4 170.517 186.4H58.4161Z" fill="#FFF4F0"/>
<path opacity="0.2" d="M170.518 94.0459H125.326C121.536 95.6539 117.806 97.4464 114.528 99.9222C112.419 101.514 110.462 103.446 109.27 105.836C108.033 108.316 107.776 111.085 108.33 113.787C109.749 120.705 101.36 134.861 119.45 130.591C121.1 130.202 121.088 133.561 121.53 135.201C121.911 136.611 122.152 138.139 121.905 139.593C121.494 142.019 119.851 143.824 118.054 145.38C116.519 146.71 114.492 148.025 113.777 150.023C113.418 151.025 113.52 152.176 113.859 153.172C114.268 154.373 115.157 155.31 116.15 156.063C118.386 157.758 121.09 158.736 123.249 160.544C124.283 161.409 125.178 162.461 125.661 163.734C126.219 165.207 126.249 166.894 126.104 168.444C125.948 170.113 125.546 171.846 124.664 173.289C123.755 174.776 122.144 175.423 120.517 175.815C118.974 176.186 117.089 176.338 116.001 177.644C114.959 178.897 114.723 180.603 114.528 182.168C114.351 183.58 114.228 185.014 113.888 186.399H170.519C177.011 186.399 182.292 181.117 182.292 174.626V105.822C182.291 99.3289 177.01 94.0459 170.518 94.0459Z" fill="#FF9D17"/>
<path d="M81.3457 118.86L74.9932 186.4H109.385L90.7949 115.54L81.3457 118.86Z" fill="#FFDED3"/>
<path d="M90.7944 115.54L81.3451 118.86L79.1716 141.969C82.7169 147.741 88.5924 151.671 93.9001 155.714C94.6494 156.285 95.3926 156.864 96.1284 157.452C96.8004 157.991 97.4664 158.569 97.9636 159.279C98.6109 160.204 98.9199 161.322 98.4414 162.394C97.9689 163.452 97.0111 164.227 96.0871 164.879C94.9546 165.677 93.7419 166.352 92.5824 167.108C91.5481 167.782 90.2814 168.597 89.7451 169.755C89.2936 170.732 89.6904 171.699 90.2064 172.559C90.8206 173.583 91.5939 174.505 92.1376 175.574C92.7301 176.738 92.9716 178.02 92.6311 179.298C91.9111 182.003 89.1279 183.339 86.6364 183.979C83.9446 184.671 81.1029 184.773 78.3369 184.691C77.2801 184.659 76.2256 184.582 75.1749 184.473L74.9941 186.399H109.386L90.7944 115.54Z" fill="#FDAE88"/>
<path d="M90.795 115.54C90.795 115.54 94.5135 108.956 92.6963 107.075C90.8783 105.194 87.0518 112.655 87.0518 112.655L88.0688 119.688L90.795 115.54Z" fill="#FDAE88"/>
<path d="M101.881 103.187C100.049 102.869 98.4711 101.929 97.2246 100.391L99.6426 98.4299C100.887 99.9636 102.568 100.491 104.776 100.04C109.999 98.9766 116.47 92.6324 118.091 86.9856C118.755 84.6749 118.477 82.9184 117.262 81.7649C113.634 78.3179 108.607 83.0256 108.394 83.2274L106.243 80.9789C108.774 78.5489 114.785 75.1154 119.407 79.5081C121.469 81.4686 122.065 84.4289 121.084 87.8444C119.16 94.5434 111.683 101.81 105.397 103.09C104.146 103.346 102.969 103.376 101.881 103.187Z" fill="#FFC6A7"/>
<g opacity="0.2">
<path d="M114.895 80.5756C114.826 79.5053 115.039 78.4351 115.576 77.5186C111.874 76.8563 108.111 79.1858 106.243 80.9791L108.394 83.2276C108.564 83.0678 111.766 80.0813 114.895 80.5756ZM103.614 100.178C101.969 100.251 100.658 99.6811 99.6426 98.4301L97.2246 100.391C98.4719 101.929 100.049 102.869 101.881 103.187C102.131 103.231 102.386 103.259 102.645 103.28C102.677 102.176 103.04 101.119 103.614 100.178Z" fill="#395B64"/>
</g>
<path d="M71.6117 97.9311C73.4439 98.2491 75.2462 97.8959 76.9382 96.8684L75.3227 94.2074C73.6337 95.2319 71.8742 95.1614 69.9467 93.9936C65.3882 91.2314 61.4342 83.0766 61.8114 77.2139C61.9659 74.8146 62.8194 73.2554 64.3517 72.5781C68.9297 70.5561 72.0752 76.6829 72.2079 76.9446L74.9919 75.5534C73.4282 72.4116 68.9259 67.1534 63.0939 69.7311C60.4914 70.8816 58.9329 73.4676 58.7049 77.0144C58.2579 83.9699 62.8479 93.3321 68.3342 96.6561C69.4254 97.3169 70.5242 97.7421 71.6117 97.9311Z" fill="#FFC6A7"/>
<g opacity="0.2">
<path d="M66.9834 72.2557C67.4094 71.2717 67.5699 70.1917 67.3734 69.1484C71.0814 69.7724 73.8391 73.2344 74.9926 75.5527L72.2086 76.9439C72.1044 76.7369 70.0959 72.8452 66.9834 72.2557ZM70.9959 94.5149C72.5199 95.1374 73.9464 95.0437 75.3242 94.2074L76.9396 96.8684C75.2476 97.8959 73.4446 98.2492 71.6131 97.9312C71.3634 97.8877 71.1136 97.8284 70.8631 97.7602C71.2044 96.7102 71.2186 95.5927 70.9959 94.5149Z" fill="#395B64"/>
</g>
<path d="M90.1234 131.399C84.1181 131.687 78.1234 130.647 72.5674 128.35C75.6079 120.991 80.3284 114.119 81.6904 106.274C84.1196 106.696 86.5489 107.118 88.9781 107.539C87.6154 115.384 89.7431 123.446 90.1234 131.399Z" fill="#FF7E36"/>
<path d="M114.058 71.1974C114.582 68.1787 105.218 64.0319 93.143 61.9349C81.068 59.8379 70.8545 60.5857 70.3303 63.6044C62.9345 93.2264 84.158 113.679 84.158 113.679C84.158 113.679 111.034 101.579 114.058 71.1974Z" fill="#FF7E36"/>
<path opacity="0.37" d="M114.057 71.1974C114.262 70.0199 112.946 68.6706 110.567 67.3379C111.768 71.9271 110.978 76.8756 109.118 81.2519C108.132 83.5701 105.03 83.4944 102.322 93.0224C97.6624 109.42 91.0444 94.6896 89.1964 104.113C88.9241 105.499 88.4944 106.788 87.6169 107.89C86.7641 108.961 85.6391 109.897 85.3444 111.298C85.0211 112.834 85.3616 114.511 85.5776 116.038C85.9714 118.822 86.0284 121.729 84.1301 124.019C81.6409 127.023 77.3591 126.156 74.1379 124.858C73.5874 126.014 73.0526 127.174 72.5674 128.349C78.1237 130.645 84.1183 131.686 90.1234 131.398C89.8016 124.676 88.2401 117.877 88.5844 111.197C96.3446 106.293 111.807 93.8136 114.057 71.1974Z" fill="#FFC6A7"/>
<g opacity="0.2">
<path d="M91.7776 70.876L93.6159 77.1145L99.7974 79.1372L94.4319 82.813L94.4184 89.3162L89.2644 85.3502L83.0754 87.3467L85.2549 81.2192L81.4434 75.9497L87.9444 76.1297L91.7776 70.876Z" fill="white"/>
</g>
<path d="M63.2861 124.696L100.818 131.214L98.2418 146.052L60.7094 139.535L63.2861 124.696Z" fill="#FF7E36"/>
<path d="M92.3006 132.356L70.9248 128.644C68.2331 128.177 65.6718 129.98 65.2046 132.672C64.7373 135.363 66.5403 137.925 69.2321 138.392L90.6086 142.104C93.3003 142.571 95.8608 140.768 96.3288 138.076C96.7953 135.384 94.9923 132.823 92.3006 132.356Z" fill="#FFC6A7"/>
<path d="M87.4261 120.252C86.7878 118.914 83.2996 118.77 83.2996 118.77C83.2996 118.77 88.2961 118.372 87.7553 116.793C87.3196 115.519 84.4133 115.485 83.3011 115.521C84.5693 115.434 87.5026 114.591 87.3871 113.202C87.2573 111.647 82.2526 111.412 82.2526 111.412C82.2526 111.412 86.8733 110.736 86.4683 109.013C86.0671 107.306 81.2693 107.215 79.4971 107.44C77.8613 107.648 71.1983 109.401 75.3263 112.549C75.3263 112.549 73.5061 112.525 73.7596 114.567C74.0176 116.641 75.7403 116.145 75.7403 116.145C75.7403 116.145 73.6313 117.093 74.0731 118.392C74.5141 119.692 75.6481 119.7 75.6481 119.7C75.6481 119.7 73.6861 121.044 75.3698 122.046C76.7108 122.844 79.8413 122.722 81.0631 122.639C81.0691 122.665 81.0728 122.683 81.0728 122.683C81.0728 122.683 81.2611 122.654 81.5686 122.599C83.1518 122.319 87.9593 121.371 87.4261 120.252Z" fill="#FDAE88"/>
<path opacity="0.2" d="M83.3027 108.174L83.851 110.566C83.851 110.566 86.056 110.147 86.068 109.167C86.0792 108.187 83.3027 108.174 83.3027 108.174ZM84.3467 112.219C84.3467 112.219 84.1112 114.377 84.673 114.55C85.2347 114.724 86.7737 114.312 86.779 113.349C86.785 112.386 84.5702 112.072 84.3467 112.219ZM85.8287 116.143C85.8287 116.143 85.414 117.229 85.9412 117.816C85.9412 117.816 87.427 117.811 87.3872 117.03C87.3475 116.249 85.8287 116.143 85.8287 116.143ZM85.8895 119.699C85.8895 119.699 85.5595 120.586 86.0282 120.94C86.0282 120.94 86.8375 121.09 87.0565 120.401C87.2747 119.714 85.8895 119.699 85.8895 119.699Z" fill="white"/>
<path d="M82.0582 47.9977L74.9932 30.9135L81.2909 29.8972L82.0582 47.9977Z" fill="#EEEDF7"/>
<path d="M59.0836 63.7438L49.8203 60.0066L52.0921 56.8228L59.0836 63.7438ZM174.442 61.2471L184.283 59.5348L182.729 55.9453L174.442 61.2471Z" fill="#F7A386"/>
<path d="M65.1305 49.6795C65.1305 50.6193 64.3693 51.3805 63.4295 51.3805C62.4898 51.3805 61.7285 50.6185 61.7285 49.6795C61.7285 48.7398 62.4905 47.9785 63.4295 47.9785C64.3693 47.9785 65.1305 48.7398 65.1305 49.6795Z" fill="#EEEDF7"/>
<path d="M192.629 140.268C192.629 140.268 194.813 139.665 195.793 143.131C196.772 146.597 196.697 157.447 193.834 157.372C190.97 157.297 189.765 149.838 189.84 147.426C189.916 145.014 189.991 141.624 192.629 140.268Z" fill="#2B4C54"/>
<path d="M192.379 140.672C192.379 140.672 194.375 140.97 194.647 141.555C195.322 143.006 195.413 144.492 194.527 145.364C194.064 145.821 192.186 144.95 192.186 144.95L192.379 140.672Z" fill="#FDAE88"/>
<path d="M193.807 155.271C191.915 155.361 191.165 153.319 190.925 149.596C190.685 145.873 193.687 145.393 195.008 147.555C196.329 149.717 195.324 155.199 193.807 155.271Z" fill="#395B64"/>
<path d="M146.076 145.498C146.076 145.498 148.342 145.516 148.336 149.118C148.33 152.719 145.289 163.135 142.556 162.279C139.823 161.423 140.704 153.918 141.436 151.62C142.168 149.322 143.168 146.081 146.076 145.498Z" fill="#2B4C54"/>
<path d="M145.725 145.818C146.333 145.812 147.563 146.651 147.665 147.288C147.918 148.869 147.598 150.323 146.507 150.92C145.936 151.233 144.617 150.42 144.368 149.881C143.079 147.09 144.654 145.83 145.725 145.818Z" fill="#FDAE88"/>
<path d="M143.104 160.251C141.26 159.82 141.097 157.651 141.884 154.005C142.672 150.358 145.691 150.717 146.37 153.158C147.05 155.598 144.584 160.596 143.104 160.251Z" fill="#395B64"/>
<path d="M182.563 160.825L193.68 144.692C193.68 144.692 194.738 141.523 193.68 140.602C190.865 138.151 178.778 138.916 178.778 138.916C178.778 138.916 161.823 151.669 182.563 160.825Z" fill="#2B4C54"/>
<path d="M178.447 87.7051C178.447 87.7051 187.626 99.9638 184.349 104.737C181.072 109.51 172.151 92.9611 172.151 92.9611L178.447 87.7051Z" fill="#FDAE88"/>
<path d="M167.108 116.59C167.108 116.59 146.785 162.436 130.422 155.966C114.799 149.789 144.215 114.292 144.215 114.292L167.108 116.59Z" fill="#395B64"/>
<path d="M173.385 111.346C173.385 111.346 194.052 161.782 178.637 162.976C160.035 164.416 153.945 116.929 153.945 116.929L173.385 111.346Z" fill="#395B64"/>
<path d="M141.183 121.764C141.67 122.596 142.215 123.453 142.976 124.062C143.593 124.557 144.324 124.851 145.096 124.999C145.921 125.158 146.765 125.149 147.59 125.301C149.037 125.568 150.448 126.23 151.408 127.371C152.309 128.442 152.685 129.845 152.476 131.225C152.347 132.08 152.01 132.846 151.613 133.607C151.121 134.55 150.642 135.5 150.205 136.469C149.769 137.436 149.373 138.423 149.052 139.436C148.722 140.472 148.509 141.519 148.338 142.592C148.044 144.433 147.636 146.257 146.763 147.92C145.893 149.577 144.661 151.125 143.252 152.356C141.729 153.686 139.911 154.478 138.006 155.103C137.026 155.425 136.023 155.773 135.009 155.967C134.309 156.1 133.534 156.209 132.894 156.555C141.488 157.329 150.81 145.539 157.551 134.568C158.592 138.423 159.883 142.492 161.455 146.31C161.47 145.785 161.404 145.256 161.314 144.735C161.139 143.719 160.862 142.726 160.63 141.723C160.396 140.711 160.242 139.718 160.253 138.677C160.262 137.82 160.355 136.907 160.125 136.071C159.981 135.546 159.744 135.044 159.518 134.551C158.986 133.396 158.385 132.251 158.058 131.015C157.803 130.047 157.758 128.9 158.634 128.232C158.703 128.179 158.794 128.171 158.868 128.221C159.738 128.811 160.875 129.322 161.939 128.979C163.043 128.624 163.583 127.451 163.797 126.396C163.983 125.484 163.774 124.491 164.168 123.62C164.624 122.612 165.729 122.403 166.714 122.667C167.823 122.965 168.895 123.752 170.089 123.5C171.111 123.285 171.912 122.513 172.931 122.285C173.999 122.046 175.071 122.52 175.694 123.395C176.016 123.848 176.256 124.351 176.539 124.827C176.809 125.283 177.115 125.718 177.438 126.138C177.972 126.833 178.622 127.56 179.36 128.163C176.465 118.865 173.385 111.348 173.385 111.348L158.229 115.701L144.215 114.294C144.215 114.294 142.485 116.382 140.091 119.628C140.42 120.356 140.778 121.073 141.183 121.764Z" fill="#2B4C54"/>
<path d="M130.042 55.0788L146.479 69.4526L139.332 76.3953C139.332 76.3953 124.201 62.3178 123.152 57.1856C122.104 52.0541 130.042 55.0788 130.042 55.0788Z" fill="#FDAE88"/>
<path d="M117.715 33.5182C117.587 33.0899 117.483 32.6549 117.42 32.2379H117.418C117.418 32.2364 117.418 32.2364 117.417 32.2349C117.412 32.2147 117.385 32.1082 117.347 31.9529V31.9514C117.318 31.8277 117.288 31.6754 117.26 31.5112C117.26 31.5112 116.822 29.6902 117.278 29.3587C117.733 29.0264 118.07 29.2859 118.07 29.2859C118.07 29.2859 118.139 28.7444 118.66 28.6252C119.182 28.5059 119.411 28.8239 119.411 28.8239C119.411 28.8239 119.461 28.3222 120.054 28.1857C120.646 28.0484 121.014 28.4632 121.014 28.4632C121.014 28.4632 121.138 27.7117 122.014 28.0544C122.887 28.3964 122.96 29.7734 122.971 29.8312C123.021 30.0742 123.058 30.3142 123.084 30.5452C123.091 30.6082 123.114 34.2644 123.108 34.3274C122.703 38.8507 135.33 58.6537 127.795 61.1189C120.856 63.3892 119.399 35.5987 119.399 35.5987C119.399 35.5987 118.196 35.1224 117.715 33.5182Z" fill="#FDAE88"/>
<path opacity="0.2" d="M117.42 32.2369H117.419C117.419 32.2354 117.419 32.2354 117.417 32.2339C117.413 32.2137 117.386 32.1072 117.348 31.9519V31.9504C117.319 31.8267 117.289 31.6744 117.261 31.5102C117.261 31.5102 116.823 29.6892 117.279 29.3577C117.734 29.0254 118.071 29.2849 118.071 29.2849C118.071 29.2849 118.14 28.7434 118.661 28.6242C119.183 28.5049 119.412 28.8229 119.412 28.8229C119.412 28.8229 119.462 28.3212 120.054 28.1847C120.647 28.0474 121.015 28.4622 121.015 28.4622C121.015 28.4622 121.139 27.7107 122.015 28.0534C122.329 28.1764 122.538 28.4337 122.679 28.7142C122.358 28.5634 121.965 28.4907 121.626 28.5807C121.539 28.6039 121.455 28.6399 121.382 28.6932C121.298 28.7539 121.233 28.8364 121.156 28.9047C120.988 29.0517 120.769 29.0044 120.564 28.9849C120.298 28.9602 120.036 28.9609 119.792 29.0817C119.609 29.1717 119.46 29.3134 119.304 29.4417C119.139 29.5767 118.958 29.6847 118.742 29.7034C118.536 29.7207 118.341 29.7312 118.152 29.8234C117.823 29.9832 117.666 30.3169 117.618 30.6642C117.585 30.9042 117.604 31.1464 117.618 31.3872C117.636 31.7007 117.66 32.0142 117.684 32.3277C117.724 32.8639 117.759 33.3957 117.864 33.9229C117.81 33.7954 117.759 33.6627 117.716 33.5172C117.587 33.0897 117.483 32.6539 117.42 32.2369Z" fill="white"/>
<path opacity="0.1" d="M122.961 32.5428C122.961 32.5428 122.955 31.1395 122.287 31.141C121.619 31.1425 121.93 32.4768 120.378 32.9185C118.229 33.5298 118.031 31.7043 117.825 31.546C117.618 31.3878 117.603 30.832 117.603 30.832C117.603 30.832 117.928 31.2835 118.374 31.195C118.82 31.1065 119.945 30.8958 120.859 30.6363C121.052 29.6095 122.499 28.6863 122.83 29.2023C123.16 29.7183 123.376 32.1873 122.961 32.5428Z" fill="#231F20"/>
<path d="M118.317 31.1992C118.203 31.2075 118.091 31.2157 117.978 31.2202C118.083 31.197 118.188 31.1752 118.294 31.1542C118.208 30.8797 118.147 30.594 118.107 30.2947C118.065 29.9887 118.052 29.667 118.079 29.337C118.071 29.6617 118.106 29.97 118.166 30.261C118.226 30.5505 118.308 30.8302 118.413 31.0822L118.413 31.0845C118.419 31.0972 118.419 31.113 118.416 31.1287C118.577 31.0965 118.738 31.0642 118.899 31.0305C119.094 30.9862 119.289 30.9442 119.484 30.9007C119.421 30.6195 119.383 30.3292 119.365 30.0262C119.347 29.7007 119.358 29.361 119.415 29.0137C119.38 29.3565 119.391 29.6835 119.431 29.9932C119.471 30.3 119.535 30.597 119.623 30.8677C119.686 30.8527 119.75 30.8392 119.812 30.8235C120.116 30.7522 120.417 30.6697 120.715 30.5805C120.783 30.5602 120.848 30.5362 120.915 30.5144C120.872 30.2107 120.86 29.8987 120.872 29.5762C120.885 29.2507 120.928 28.9147 121.017 28.575C120.95 28.9117 120.93 29.238 120.94 29.55C120.951 29.8612 120.987 30.1642 121.05 30.444L121.05 30.4462C121.052 30.4537 121.052 30.4612 121.05 30.4695C121.086 30.4567 121.123 30.447 121.158 30.4335C121.307 30.384 121.452 30.3255 121.594 30.2595C121.335 30.4402 121.042 30.5662 120.748 30.6795C120.453 30.7935 120.15 30.8805 119.844 30.9555C119.538 31.0305 119.227 31.0882 118.916 31.1332L118.447 31.1902C118.422 31.1917 118.397 31.194 118.372 31.1955C118.353 31.209 118.332 31.2105 118.317 31.1992Z" fill="#E8AD80"/>
<path d="M120.859 30.7155C120.905 30.3023 122.672 29.2418 122.672 29.2418C123.427 29.205 124.351 31.0388 124.311 31.3883C124.282 32.8778 123.552 34.1625 123.109 34.3268C122.886 33.6188 122.968 32.406 122.901 31.4708C122.719 31.1543 122.407 30.7463 122.066 30.8955C121.532 31.131 120.812 31.1288 120.859 30.7155Z" fill="#FDAE88"/>
<path opacity="0.2" d="M123.486 30.6585C123.232 30.543 123.01 29.688 122.738 29.748C121.4 30.0435 122.057 30.4635 121.453 30.9735C121.425 30.9967 121.405 31.0282 121.378 31.0522C121.069 31.0582 120.832 30.9585 120.859 30.7155C120.905 30.3022 122.672 29.2417 122.672 29.2417C123.385 29.2072 124.248 30.8392 124.309 31.3155C124.12 30.8692 123.928 30.8602 123.486 30.6585Z" fill="white"/>
<path opacity="0.2" d="M121.364 30.25C121.364 30.25 120.894 30.5253 120.893 30.745C120.892 30.9648 121.138 30.8208 121.277 30.7045C121.417 30.5875 121.504 30.4593 121.504 30.4593L121.364 30.25Z" fill="white"/>
<path opacity="0.1" d="M119.643 35.6314C120.135 35.8946 121.016 35.6854 121.801 35.4131C122.397 35.2061 122.824 34.7516 123.109 34.3271C123.084 34.4404 123.056 34.5529 123.018 34.6646C122.921 34.9556 122.565 36.2389 121.768 36.4376C120.524 36.7481 119.927 35.7566 119.658 35.6816C119.654 35.6636 119.648 35.6479 119.643 35.6314Z" fill="#231F20"/>
<path d="M182.292 92.7736C176.208 81.4449 170.75 74.9716 160.39 72.1246C160.39 72.1246 149.677 71.4879 142.592 65.2951C139.947 62.9829 136.929 75.9939 136.929 75.9939C136.929 75.9939 141.376 82.6899 146.485 85.9659C144.672 99.1464 139.82 116.269 143.504 118.613C147.6 121.218 170.225 121.218 174.321 118.287C176.907 116.437 175.606 105.308 173.904 95.9581C176.906 96.3429 182.292 92.7736 182.292 92.7736Z" fill="#FFDED3"/>
<path d="M172.52 95.3336C171.772 96.7879 173.017 98.9269 171.471 100.024C170.542 100.683 169.34 100.396 168.304 100.704C167.656 100.897 167.344 101.374 167.244 102.029C167.088 103.053 167.249 104.061 166.91 105.063C166.633 105.879 166.268 106.685 165.736 107.369C165.179 108.085 164.446 108.659 163.67 109.121C162.869 109.597 162.003 109.983 161.105 110.235C160.425 110.425 159.729 110.577 159.079 110.848C159.947 111.089 160.886 111.123 161.777 111.183C162.95 111.262 164.127 111.322 165.291 111.489C167.098 111.748 169.58 112.355 169.853 114.525C170.018 115.839 169.515 117.339 168.296 117.977C167.584 118.35 166.751 118.446 165.959 118.487C164.756 118.549 163.548 118.428 162.344 118.499C161.857 118.527 161.429 118.655 161.006 118.896C160.646 119.102 160.298 119.331 159.903 119.467C159.249 119.691 158.573 119.618 157.966 119.295C156.661 118.601 155.856 117.157 155.132 115.928C154.306 114.525 153.402 113.178 152.072 112.202C150.92 111.357 149.579 110.851 148.215 110.457C148.366 110.618 148.529 110.775 148.669 110.914C149.224 111.472 149.8 112.008 150.365 112.556C151.429 113.588 152.531 114.652 153.317 115.921C153.844 116.773 154.22 117.968 153.233 118.65C152.615 119.078 151.773 119.196 151.04 119.215C149.573 119.252 148.164 118.721 146.701 118.698C145.972 118.686 145.348 118.852 144.776 119.172C151.001 121.2 170.544 120.99 174.322 118.287C176.869 116.463 175.644 105.634 173.978 96.3731C173.459 96.0799 173.015 95.6786 172.52 95.3336ZM160.385 84.4744C159.856 85.0691 159.161 85.6436 158.353 85.7816C156.818 86.0441 156.307 84.5291 156.155 83.3044C155.974 81.8479 156.113 80.3749 155.968 78.9146C155.819 77.4221 155.519 75.9544 155.18 74.4941C155.055 75.5786 155.017 76.6751 155.013 77.7686C155.01 78.7729 155.031 79.7764 155.031 80.7806C155.031 81.8366 155.004 82.8964 155.137 83.9464C155.342 85.5761 155.999 87.2471 155.573 88.8949C155.404 89.5519 155.002 89.9014 154.59 90.4046C154.38 90.6619 154.305 90.8891 154.439 91.2071C154.556 91.4884 154.747 91.7276 154.981 91.9211C155.881 92.6644 157.211 92.8361 158.336 92.9216C159.517 93.0116 160.889 92.9854 161.927 92.3374C163.178 91.5559 163.19 89.9951 162.803 88.7269C162.603 88.0729 162.304 87.4534 161.971 86.8586C161.602 86.1986 161.226 85.5109 161.318 84.7279C161.408 83.9471 161.777 83.2459 162.125 82.5551C162.509 81.7961 162.822 81.0086 163.077 80.1971C163.541 78.7189 163.645 77.2324 163.221 75.7669C162.254 77.7754 162.178 80.0936 161.555 82.2169C161.308 83.0629 160.976 83.8121 160.385 84.4744Z" fill="#FFC370"/>
<path d="M169.147 124.629C169.147 124.629 173.133 127.695 175.382 128.035V129.125C175.382 129.125 171.293 127.899 169.147 125.514V124.629ZM143.268 120.742C142.216 122.512 139.353 123.945 139.353 123.945L139.35 124.856C141.663 124.205 143.961 121.291 143.961 121.291L143.268 120.742Z" fill="#2B4C54"/>
<path d="M156.736 67.4419L155.608 73.5919C155.608 73.5919 159.565 76.9654 162.712 73.1832L160.576 66.4512L156.736 67.4419Z" fill="#FDAE88"/>
<g opacity="0.1">
<path d="M158.428 71.4042C157.955 71.3517 157.389 69.8487 156.227 70.2222L156.736 67.4419L160.575 66.4512L161.315 68.7837C161.144 69.0364 160.217 71.6022 158.428 71.4042Z" fill="#231F20"/>
</g>
<path d="M162.289 66.5571C162.289 66.5571 163.575 69.1416 165.145 67.4226C166.715 65.7036 167.588 70.3558 167.768 66.3276C167.949 62.2986 171.31 67.5636 169.177 62.3098C167.045 57.0553 171.174 58.7068 169.365 55.9521C167.556 53.1973 165.511 51.9103 163.25 51.0201C160.988 50.1298 163.022 47.4568 161.173 46.7961C159.323 46.1361 158.762 49.9723 158.762 49.9723C158.762 49.9723 159.269 47.0196 156.287 48.3366C153.305 49.6543 154.733 53.0188 154.733 53.0188C154.733 53.0188 151.698 49.5846 151.526 52.7526C151.355 55.9206 154.439 74.2288 162.289 66.5571Z" fill="#2B4C54"/>
<path d="M154.395 55.8934C154.395 55.8934 149.093 67.7524 153.659 69.0814C159.847 70.8822 163.063 65.5526 163.063 65.5526C163.063 65.5526 164.7 66.0109 165.241 64.2619C165.807 62.4312 164.569 62.4844 164.569 62.4844C164.569 62.4844 166.613 57.9597 163.534 56.2234C160.455 54.4864 154.395 55.8934 154.395 55.8934Z" fill="#FDAE88"/>
<path d="M164.652 64.2475C164.685 64.255 164.72 64.2438 164.74 64.2145C165.189 63.5763 164.585 62.986 164.578 62.98C164.544 62.9478 164.493 62.95 164.46 62.9823C164.429 63.0153 164.43 63.0678 164.463 63.1C164.484 63.1203 164.969 63.598 164.604 64.1185C164.577 64.156 164.586 64.2078 164.624 64.2348C164.633 64.2415 164.642 64.2453 164.652 64.2475ZM161.793 57.1803C161.793 57.1803 149.62 57.1008 154.166 53.8713C155.845 52.678 158.219 51.9423 163.133 52.9593C168.047 53.977 166.194 61.867 163.509 63.4233C163.509 63.4233 159.293 60.871 161.793 57.1803Z" fill="#2B4C54"/>
<path d="M159.617 63.9232C159.594 64.2352 159.193 64.4602 158.721 64.4257C158.249 64.3912 157.885 64.1107 157.907 63.798C157.93 63.486 158.331 63.261 158.803 63.2955C159.275 63.33 159.64 63.6105 159.617 63.9232Z" fill="#FA9C70"/>
<path d="M155.884 65.6029C155.861 65.9149 155.459 66.1399 154.988 66.1054C154.516 66.0709 154.151 65.7904 154.174 65.4777C154.196 65.1657 154.598 64.9407 155.07 64.9752C155.543 65.0097 155.906 65.2909 155.884 65.6029Z" fill="#2B4C54"/>
<path d="M154.473 62.6947C154.45 63.0067 154.049 63.2317 153.576 63.1972C153.104 63.1627 152.74 62.8822 152.763 62.5695C152.785 62.2575 153.187 62.0325 153.659 62.067C154.131 62.1015 154.495 62.3827 154.473 62.6947Z" fill="#FA9C70"/>
<path d="M155.613 63.3742C155.569 63.3635 155.527 63.3466 155.488 63.324C155.238 63.18 155.199 62.8492 155.197 62.8357C155.193 62.7945 155.208 62.754 155.238 62.7262C155.863 62.139 155.973 61.167 155.974 61.1572C155.982 61.0852 156.046 61.0335 156.117 61.041C156.191 61.0485 156.241 61.113 156.234 61.1842C156.229 61.227 156.118 62.211 155.469 62.865C155.489 62.94 155.535 63.0495 155.619 63.0982C155.699 63.1432 155.811 63.1357 155.954 63.0727C156.02 63.0442 156.097 63.0742 156.126 63.1395C156.155 63.2055 156.125 63.2828 156.058 63.3113C155.892 63.3848 155.743 63.4057 155.613 63.3742ZM153.766 60.618C153.669 61.014 153.809 61.3867 154.08 61.4527C154.35 61.5187 154.649 61.254 154.746 60.858C154.842 60.465 154.7 60.0885 154.429 60.0225C154.309 59.9932 154.183 60.0307 154.074 60.1177C154.156 60.1672 154.198 60.2617 154.174 60.357C154.167 60.3854 154.155 60.4121 154.138 60.4357C154.121 60.4593 154.099 60.4792 154.074 60.4943C154.049 60.5095 154.022 60.5195 153.993 60.5239C153.964 60.5282 153.935 60.5268 153.906 60.5197C153.873 60.5115 153.841 60.4943 153.814 60.471C153.794 60.5175 153.779 60.5662 153.766 60.618ZM158.171 61.6957C158.074 62.0917 158.214 62.4645 158.484 62.5305C158.754 62.5965 159.05 62.3302 159.147 61.935C159.243 61.542 159.104 61.1662 158.833 61.1002C158.713 61.071 158.588 61.1055 158.475 61.1917C158.565 61.2397 158.612 61.3387 158.588 61.437C158.581 61.4654 158.569 61.4921 158.552 61.5157C158.535 61.5393 158.513 61.5592 158.488 61.5742C158.463 61.5893 158.435 61.5993 158.406 61.6035C158.378 61.6078 158.348 61.6062 158.32 61.599C158.28 61.5892 158.246 61.5712 158.22 61.542C158.2 61.5885 158.184 61.6432 158.171 61.6957Z" fill="#2B4C54"/>
<path d="M154.583 67.3605C154.333 67.299 154.179 67.2225 154.163 67.2135C154.103 67.1827 154.079 67.11 154.11 67.05C154.141 66.99 154.214 66.9667 154.274 66.9967C154.283 67.002 155.267 67.4872 156.411 66.9C156.473 66.8715 156.545 66.894 156.575 66.9532C156.606 67.0132 156.582 67.0867 156.522 67.1182C155.727 67.5247 155.013 67.4655 154.583 67.3605Z" fill="#FA9C70"/>
<path d="M155.709 59.8283C155.709 59.8283 153.577 59.1923 153.412 58.9261C153.247 58.6606 154.032 58.3771 154.924 58.8503C155.818 59.3243 155.958 59.8816 155.709 59.8283ZM157.632 60.2986C157.632 60.2986 159.817 60.7178 160.086 60.5581C160.355 60.3983 159.789 59.7848 158.779 59.7931C157.769 59.8013 157.387 60.2311 157.632 60.2986Z" fill="#2B4C54"/>
<path d="M184.767 102.691C186.612 109.803 155.96 112.601 155.96 112.601L154.956 110.098C154.956 110.097 182.527 94.0546 184.767 102.691Z" fill="#FDAE88"/>
<path d="M159.646 126.66C159.646 126.66 162.076 124.229 162.032 118.942C162.001 115.171 167.11 112.336 167.11 112.336C167.11 112.336 159.81 115.418 155.892 113.489C151.974 111.56 149.962 96.3428 149.962 96.3428C149.962 96.3428 139.809 104.241 143.056 107.258C144.047 110.417 151.767 110.924 154.153 114.48C156.538 118.037 159.646 126.66 159.646 126.66Z" fill="#F8F7FF"/>
<path opacity="0.44" d="M145.093 100.893C144.724 101.894 144.541 102.951 144.663 103.985C144.875 105.784 146.275 107.982 148.238 108.096C148.69 108.122 149.222 108.034 149.492 108.455C149.713 108.801 150.033 109.059 150.429 109.184C151.202 109.427 151.647 108.826 151.648 108.112C151.648 107.774 151.567 107.442 151.547 107.105C151.543 107.037 151.57 106.865 151.587 106.728C151.763 106.771 152.015 106.813 152.179 106.839C153.122 109.95 154.36 112.734 155.892 113.488C159.81 115.417 167.11 112.335 167.11 112.335C167.11 112.335 162.001 115.171 162.032 118.941C162.056 121.866 161.324 123.912 160.665 125.161C160.731 124.933 160.79 124.706 160.833 124.485C161.087 123.174 161.11 121.731 160.757 120.436C160.588 119.814 160.27 119.237 159.769 118.821C159.237 118.377 158.548 118.24 158.001 117.838C157.472 117.45 157.275 116.751 156.868 116.256C156.36 115.638 155.647 115.441 154.901 115.252C154.793 115.225 154.687 115.191 154.58 115.158C154.436 114.918 154.293 114.688 154.153 114.48C151.767 110.923 144.046 110.416 143.055 107.258C141.483 105.797 143.055 103.192 145.093 100.893Z" fill="#FFB34A"/>
<path d="M151.889 110.421C151.889 110.421 152.877 109.371 153.292 109.385C154.253 109.419 155.011 110.034 155.113 110.321C153.965 110.166 151.889 110.421 151.889 110.421Z" fill="#FDAE88"/>
<path opacity="0.2" d="M153.772 109.784C153.639 109.649 153.481 109.535 153.357 109.391C154.287 109.45 155.013 110.041 155.112 110.321C154.812 110.281 154.448 110.268 154.074 110.272C154.002 110.092 153.91 109.923 153.772 109.784Z" fill="white"/>
<path d="M154.599 113.666C154.321 113.745 154.039 113.808 153.769 113.843V113.844C153.769 113.844 153.769 113.844 153.767 113.844C153.754 113.847 153.685 113.863 153.584 113.886H153.583C153.503 113.903 153.405 113.922 153.298 113.938C153.298 113.938 152.118 114.202 151.909 113.904C151.699 113.607 151.87 113.392 151.87 113.392C151.87 113.392 151.521 113.342 151.449 113.004C151.378 112.666 151.585 112.521 151.585 112.521C151.585 112.521 151.262 112.483 151.18 112.099C151.097 111.715 151.369 111.482 151.369 111.482C151.369 111.482 150.884 111.395 151.115 110.832C151.345 110.271 152.235 110.238 152.272 110.232C152.43 110.202 152.585 110.181 152.734 110.166C152.775 110.163 152.816 110.151 152.857 110.156C155.773 110.464 160.282 108.646 160.665 109C160.665 109 161.734 111.162 161.259 111.524C160.726 111.683 155.959 112.599 155.959 112.599C155.959 112.599 155.64 113.372 154.599 113.666Z" fill="#FDAE88"/>
<path opacity="0.2" d="M153.768 113.844V113.844C153.768 113.844 153.768 113.844 153.766 113.845C153.753 113.847 153.684 113.864 153.583 113.886H153.582C153.502 113.904 153.404 113.922 153.297 113.939C153.297 113.939 152.117 114.203 151.908 113.905C151.698 113.607 151.869 113.393 151.869 113.393C151.869 113.393 151.52 113.343 151.448 113.005C151.377 112.667 151.584 112.521 151.584 112.521C151.584 112.521 151.261 112.484 151.179 112.1C151.096 111.716 151.368 111.483 151.368 111.483C151.368 111.483 150.883 111.396 151.114 110.832C151.197 110.631 151.365 110.499 151.548 110.41C151.447 110.616 151.395 110.869 151.451 111.089C151.465 111.145 151.488 111.201 151.521 111.248C151.559 111.303 151.611 111.345 151.655 111.396C151.748 111.506 151.716 111.647 151.701 111.779C151.682 111.951 151.68 112.119 151.755 112.278C151.812 112.398 151.902 112.495 151.983 112.597C152.068 112.704 152.136 112.823 152.146 112.962C152.155 113.096 152.16 113.221 152.217 113.345C152.317 113.559 152.531 113.664 152.754 113.699C152.909 113.723 153.066 113.712 153.222 113.706C153.424 113.698 153.627 113.686 153.829 113.673C154.176 113.652 154.52 113.636 154.861 113.573C154.778 113.607 154.692 113.638 154.597 113.664C154.32 113.745 154.038 113.808 153.768 113.844Z" fill="white"/>
<path d="M112.546 31.8896L104.789 28.0466L106.696 25.7471L112.546 31.8896ZM132.208 33.9348L139.091 28.6856L140.308 31.4141L132.208 33.9348Z" fill="#EEEDF7"/>
<path d="M122.288 25.8962L121.232 19.6172L123.424 19.7612L122.288 25.8962ZM167.867 38.5202C167.867 39.4427 167.119 40.1897 166.197 40.1897C165.275 40.1897 164.528 39.4419 164.528 38.5202C164.528 37.5984 165.275 36.8507 166.197 36.8507C167.119 36.8507 167.867 37.5977 167.867 38.5202ZM101.467 47.1692C101.467 48.0917 100.719 48.8387 99.7974 48.8387C98.8749 48.8387 98.1279 48.0909 98.1279 47.1692C98.1279 46.2467 98.8757 45.4997 99.7974 45.4997C100.719 45.4989 101.467 46.2467 101.467 47.1692Z" fill="#F7A386"/>
<path d="M139.332 46.7767C139.332 47.4404 138.794 47.9782 138.13 47.9782C137.466 47.9782 136.929 47.4404 136.929 46.7767C136.929 46.1129 137.466 45.5752 138.13 45.5752C138.794 45.5752 139.332 46.1137 139.332 46.7767Z" fill="#EEEDF7"/>
<path d="M126.853 156.817C126.849 156.817 126.844 156.817 126.84 156.816C125.306 156.727 124.072 156.15 123.172 155.101C121.177 152.774 121.511 148.973 121.526 148.813C121.537 148.687 121.658 148.598 121.774 148.608C121.899 148.62 121.99 148.731 121.978 148.855C121.975 148.893 121.648 152.628 123.518 154.807C124.335 155.758 125.461 156.282 126.867 156.363C126.897 156.365 126.926 156.372 126.953 156.385C126.979 156.398 127.004 156.416 127.023 156.438C127.043 156.461 127.058 156.487 127.068 156.515C127.078 156.543 127.082 156.573 127.08 156.603C127.077 156.661 127.051 156.715 127.009 156.755C126.967 156.795 126.911 156.817 126.853 156.817ZM172.519 165.965C167.302 165.965 164.582 161.587 164.551 161.536C164.521 161.484 164.512 161.423 164.527 161.365C164.541 161.307 164.578 161.257 164.629 161.226C164.68 161.196 164.741 161.186 164.799 161.2C164.857 161.214 164.908 161.25 164.939 161.301C164.973 161.357 168.424 166.89 174.984 165.185C175.109 165.153 175.229 165.227 175.261 165.348C175.292 165.469 175.219 165.593 175.098 165.625C174.18 165.862 173.32 165.965 172.519 165.965Z" fill="#EEA94A"/>
<path d="M158.139 89.5203C158.139 89.5203 156.027 88.9968 156.322 88.5798C161.675 81.0161 162.146 71.4033 162.146 71.4033C162.146 71.4033 163.816 72.6453 163.953 73.0443C165.375 77.1753 158.139 89.5203 158.139 89.5203Z" fill="#EEEDF7"/>
<path d="M154.952 89.072C154.952 89.072 157.139 89.147 156.958 88.6692C153.659 79.9992 156.161 70.4885 156.215 70.5837C156.215 70.5837 154.091 71.225 153.635 71.8107C150.983 75.2075 154.952 89.072 154.952 89.072Z" fill="#EEEDF7"/>
<path d="M160.66 88.805C160.355 90.9717 158.352 92.4807 156.185 92.1762C154.019 91.8717 152.509 89.8685 152.815 87.7017C153.119 85.5357 155.122 84.026 157.289 84.3312C159.455 84.6357 160.965 86.639 160.66 88.805Z" fill="#E2D661"/>
<path d="M157.246 84.6417L157.405 85.0055L157.694 84.734L157.807 85.1149L158.128 84.8809L158.192 85.2732L158.539 85.082L158.554 85.4794L158.924 85.3332L158.888 85.7285L159.272 85.6302L159.187 86.018L159.581 85.9684L159.448 86.3427H159.845L159.666 86.6974L160.06 86.7477L159.838 87.077L160.222 87.1759L159.961 87.4744L160.331 87.6215L160.034 87.8847L160.382 88.0767L160.054 88.3009L160.375 88.5342L160.021 88.7164L160.311 88.9879L159.938 89.1244L160.191 89.4305L159.803 89.5182L160.016 89.8542L159.621 89.8925L159.79 90.2524L159.393 90.2412L159.515 90.6192L159.123 90.5584L159.197 90.9485L158.816 90.839L158.84 91.2357L158.475 91.0789L158.45 91.4757L158.107 91.2747L158.032 91.6647L157.718 91.4224L157.595 91.8004L157.313 91.5207L157.144 91.88L156.899 91.5672L156.686 91.9024L156.482 91.5612L156.229 91.8672L156.07 91.5027L155.78 91.775L155.668 91.3939L155.347 91.6272L155.283 91.2349L154.935 91.4262L154.921 91.0294L154.552 91.175L154.588 90.7797L154.203 90.8779L154.288 90.4902L153.894 90.5397L154.027 90.1654H153.63L153.809 89.8107L153.415 89.7612L153.637 89.4312L153.252 89.3329L153.514 89.0337L153.145 88.8875L153.441 88.6234L153.094 88.4322L153.421 88.2072L153.1 87.9739L153.453 87.7925L153.164 87.5202L153.537 87.3844L153.284 87.0777L153.671 86.9899L153.458 86.6547L153.854 86.6157L153.685 86.2564L154.082 86.2669L153.959 85.889L154.352 85.9497L154.278 85.5597L154.66 85.6692L154.635 85.2724L155 85.4292L155.025 85.0324L155.368 85.2334L155.442 84.8434L155.757 85.0857L155.88 84.7077L156.162 84.9875L156.332 84.6282L156.576 84.9417L156.789 84.6064L156.992 84.9469L157.246 84.6417Z" fill="#D3C848"/>
<path d="M156.008 89.5467L155.259 89.4417L155.55 87.3717L155.228 87.3267L155.294 86.8565L155.785 86.6787L156.399 86.765L156.008 89.5467ZM156.577 87.6717C156.595 87.5412 156.65 87.4452 156.74 87.3837C156.83 87.3222 156.945 87.3012 157.085 87.3207C157.226 87.3402 157.365 87.3785 157.505 87.4347L157.406 87.8037C157.228 87.7362 157.107 87.6987 157.044 87.6897C157.007 87.6845 156.986 87.6972 156.981 87.728C156.978 87.7475 156.996 87.7685 157.036 87.791C157.172 87.8637 157.273 87.938 157.336 88.0152C157.4 88.0925 157.422 88.1967 157.403 88.3302C157.385 88.4637 157.336 88.5597 157.258 88.6197C157.18 88.679 157.07 88.6992 156.929 88.6797C156.788 88.6595 156.649 88.622 156.514 88.5665L156.595 88.2065C156.768 88.2807 156.881 88.3212 156.934 88.3287C156.987 88.3362 157.016 88.3272 157.019 88.3017C157.022 88.2762 157.005 88.2537 156.968 88.2342C156.816 88.151 156.708 88.0685 156.644 87.989C156.581 87.9072 156.559 87.8022 156.577 87.6717ZM158.171 88.8275C158.036 88.8252 157.919 88.817 157.821 88.8027C157.723 88.7892 157.65 88.7525 157.602 88.6932C157.554 88.634 157.539 88.5417 157.557 88.4157L157.646 87.7895L157.516 87.7715L157.563 87.437L157.715 87.458L157.774 87.2127L158.182 87.2697L158.147 87.518L158.387 87.5517L158.321 87.884L158.096 87.8525L158.021 88.3895C158.015 88.427 158.03 88.4487 158.066 88.454C158.07 88.4547 158.126 88.46 158.235 88.469L158.171 88.8275Z" fill="#E2D661"/>
<path d="M162.173 146.597C162.163 146.596 162.155 146.594 162.145 146.593C159.939 146.191 158.354 143.797 155.953 139.921C155.916 139.862 155.892 139.797 155.88 139.729C155.869 139.66 155.872 139.591 155.887 139.523C155.903 139.456 155.932 139.393 155.973 139.337C156.013 139.281 156.064 139.233 156.123 139.197C156.37 139.043 156.694 139.12 156.847 139.367C159.313 143.346 160.659 145.254 162.334 145.558C162.34 145.559 162.347 145.561 162.353 145.561C164.659 145.962 168.196 143.236 175.224 137.818C176.194 137.07 177.234 136.269 178.351 135.414C182.629 132.136 186.726 131.092 190.519 132.316C198.815 134.988 202.666 147.421 202.825 147.949C202.909 148.226 202.753 148.519 202.474 148.604C202.196 148.687 201.903 148.531 201.819 148.253C201.781 148.129 197.966 135.817 190.195 133.316C186.748 132.207 182.978 133.194 178.99 136.248C177.875 137.102 176.836 137.904 175.867 138.651C168.37 144.428 164.934 147.076 162.173 146.597ZM29.4538 184.371C29.444 184.369 29.4358 184.368 29.426 184.366C27.2195 183.966 25.6348 181.57 23.2333 177.694C23.1969 177.636 23.1724 177.57 23.1612 177.502C23.15 177.434 23.1524 177.364 23.1682 177.297C23.1841 177.23 23.213 177.167 23.2534 177.111C23.2937 177.055 23.3448 177.007 23.4035 176.971C23.6503 176.817 23.975 176.893 24.128 177.141C26.594 181.12 27.9395 183.028 29.615 183.332C29.621 183.333 29.6278 183.334 29.6338 183.335C31.94 183.736 35.4763 181.009 42.5045 175.592C43.475 174.844 44.5145 174.043 45.6313 173.188C49.91 169.909 54.0065 168.866 57.8 170.09C66.0958 172.762 69.9463 185.194 70.106 185.722C70.19 186 70.0333 186.293 69.755 186.378C69.4768 186.461 69.1835 186.305 69.0995 186.027C69.0613 185.903 65.2468 173.591 57.4753 171.09C54.029 169.981 50.2588 170.968 46.271 174.022C45.1558 174.876 44.117 175.678 43.1473 176.425C35.6495 182.202 32.2138 184.849 29.4538 184.371ZM130.626 115.416C130.63 115.425 130.633 115.433 130.636 115.442C131.5 117.511 134.179 118.546 138.48 120.063C138.754 120.16 139.054 120.016 139.15 119.742C139.248 119.468 139.104 119.167 138.829 119.071C134.415 117.514 132.263 116.608 131.607 115.036C131.605 115.03 131.602 115.024 131.599 115.019C130.714 112.852 132.62 108.814 136.408 100.789C136.931 99.6817 137.491 98.4944 138.087 97.2209C140.373 92.3392 140.515 88.1144 138.507 84.6712C134.121 77.1397 121.153 76.0402 120.602 75.9974C120.463 75.9866 120.325 76.0314 120.219 76.122C120.113 76.2125 120.048 76.3414 120.037 76.4804C120.015 76.7699 120.23 77.0234 120.52 77.0452C120.649 77.0557 133.492 78.1462 137.599 85.2022C139.42 88.3312 139.264 92.2252 137.134 96.7747C136.537 98.0474 135.978 99.2332 135.455 100.341C131.417 108.899 129.567 112.822 130.626 115.416Z" fill="#EEA94A"/>
</svg>
