<svg width="17" height="16" viewBox="0 0 17 16" fill="none" xmlns="http://www.w3.org/2000/svg">
<g id="Frame">
<path id="Vector" fill-rule="evenodd" clip-rule="evenodd" d="M10.5 0.833985H7.79573C6.57055 0.833971 5.60013 0.833965 4.84065 0.936078C4.05904 1.04116 3.42641 1.26257 2.92749 1.76148C2.42859 2.26039 2.20717 2.89302 2.10209 3.67464C1.99998 4.43411 1.99999 5.40453 2 6.6297V10.6673C2 11.9155 2.9147 12.95 4.11034 13.1371C4.20232 13.6465 4.37835 14.0812 4.73223 14.4351C5.13351 14.8364 5.63876 15.009 6.23883 15.0896C6.81681 15.1673 7.55167 15.1673 8.4634 15.1673H10.5366C11.4483 15.1673 12.1832 15.1673 12.7612 15.0896C13.3613 15.009 13.8665 14.8364 14.2678 14.4351C14.6691 14.0338 14.8417 13.5286 14.9223 12.9285C15 12.3505 15 11.6157 15 10.7039V7.29738C15 6.38568 15 5.6508 14.9223 5.07282C14.8417 4.47274 14.6691 3.9675 14.2678 3.56622C13.9139 3.21234 13.4791 3.0363 12.9698 2.94432C12.7827 1.74868 11.7481 0.833985 10.5 0.833985ZM11.9195 2.8481C11.7177 2.25814 11.1584 1.83398 10.5 1.83398H7.83333C6.56212 1.83398 5.65901 1.83504 4.9739 1.92716C4.30317 2.01733 3.91674 2.18644 3.6346 2.46858C3.35246 2.75072 3.18335 3.13716 3.09317 3.80788C3.00106 4.49299 3 5.3961 3 6.66732V10.6673C3 11.3257 3.42416 11.885 4.01411 12.0869C3.99999 11.6803 3.99999 11.2204 4 10.7039V7.29738C3.99999 6.38568 3.99997 5.6508 4.07768 5.07282C4.15836 4.47274 4.33095 3.9675 4.73223 3.56622C5.13351 3.16494 5.63876 2.99234 6.23883 2.91166C6.81681 2.83396 7.55167 2.83397 8.4634 2.83398H10.5366C11.0531 2.83398 11.5129 2.83397 11.9195 2.8481ZM5.43934 4.27332C5.62385 4.08882 5.8829 3.96852 6.37208 3.90275C6.87565 3.83504 7.54307 3.83398 8.5 3.83398H10.5C11.4569 3.83398 12.1243 3.83504 12.6279 3.90275C13.1171 3.96852 13.3761 4.08882 13.5607 4.27332C13.7452 4.45783 13.8655 4.71688 13.9313 5.20606C13.9989 5.70963 14 6.37704 14 7.33398V10.6673C14 11.6243 13.9989 12.2917 13.9313 12.7953C13.8655 13.2845 13.7452 13.5435 13.5607 13.728C13.3761 13.9125 13.1171 14.0328 12.6279 14.0986C12.1243 14.1663 11.4569 14.1673 10.5 14.1673H8.5C7.54307 14.1673 6.87565 14.1663 6.37208 14.0986C5.8829 14.0328 5.62385 13.9125 5.43934 13.728C5.25483 13.5435 5.13453 13.2845 5.06877 12.7953C5.00106 12.2917 5 11.6243 5 10.6673V7.33398C5 6.37704 5.00106 5.70963 5.06877 5.20606C5.13453 4.71688 5.25483 4.45783 5.43934 4.27332Z" fill="#2C48EC"/>
</g>
</svg>
