<svg width="24" height="24" viewBox="0 0 24 24" fill="none" xmlns="http://www.w3.org/2000/svg">
<path d="M11.9987 0.333984C5.57036 0.333984 0.332031 5.57232 0.332031 12.0006C0.332031 18.429 5.57036 23.6673 11.9987 23.6673C18.427 23.6673 23.6654 18.429 23.6654 12.0006C23.6654 5.57232 18.427 0.333984 11.9987 0.333984ZM15.9187 14.684C16.257 15.0223 16.257 15.5823 15.9187 15.9206C15.7437 16.0956 15.522 16.1773 15.3004 16.1773C15.0787 16.1773 14.857 16.0956 14.682 15.9206L11.9987 13.2373L9.31536 15.9206C9.14036 16.0956 8.9187 16.1773 8.69703 16.1773C8.47536 16.1773 8.2537 16.0956 8.0787 15.9206C7.74036 15.5823 7.74036 15.0223 8.0787 14.684L10.762 12.0006L8.0787 9.31732C7.74036 8.97898 7.74036 8.41898 8.0787 8.08065C8.41703 7.74232 8.97703 7.74232 9.31536 8.08065L11.9987 10.764L14.682 8.08065C15.0204 7.74232 15.5804 7.74232 15.9187 8.08065C16.257 8.41898 16.257 8.97898 15.9187 9.31732L13.2354 12.0006L15.9187 14.684Z" fill="#FFF6E9"/>
</svg>
