<svg width="24" height="24" viewBox="0 0 24 24" fill="none" xmlns="http://www.w3.org/2000/svg">
<rect width="24" height="24" rx="4" fill="#223A74"/>
<path d="M20 6.66669H18.2222M20 12H15.5556M20 17.3334H15.5556M7.55556 19.1111V13.3878C7.55556 13.2029 7.55556 13.1104 7.5374 13.022C7.52131 12.9436 7.49468 12.8677 7.45824 12.7963C7.41716 12.7159 7.35941 12.6438 7.2439 12.4993L4.31165 8.83404C4.19614 8.68965 4.13839 8.61746 4.09732 8.53707C4.06088 8.46574 4.03425 8.38982 4.01815 8.31137C4 8.22294 4 8.13049 4 7.94558V6.31114C4 5.81332 4 5.5644 4.09688 5.37426C4.18211 5.207 4.31809 5.07102 4.48534 4.9858C4.67548 4.88892 4.9244 4.88892 5.42222 4.88892H13.2444C13.7423 4.88892 13.9912 4.88892 14.1813 4.9858C14.3486 5.07102 14.4845 5.207 14.5698 5.37426C14.6667 5.5644 14.6667 5.81332 14.6667 6.31114V7.94558C14.6667 8.13049 14.6667 8.22294 14.6485 8.31137C14.6324 8.38982 14.6058 8.46574 14.5693 8.53707C14.5283 8.61746 14.4705 8.68965 14.355 8.83404L11.4228 12.4993C11.3073 12.6438 11.2495 12.7159 11.2084 12.7963C11.172 12.8677 11.1453 12.9436 11.1292 13.022C11.1111 13.1104 11.1111 13.2029 11.1111 13.3878V16.4445L7.55556 19.1111Z" stroke="white" stroke-width="1.33333" stroke-linecap="round" stroke-linejoin="round"/>
</svg>
