<svg width="140" height="143" viewBox="0 0 140 143" fill="none" xmlns="http://www.w3.org/2000/svg">
<rect y="0.568359" width="140" height="142" rx="12" fill="url(#paint0_linear_451_481)"/>
<g opacity="0.5">
<path d="M70.0486 71.7896L80.0137 0.568359H60.3765L70.0486 71.7896Z" fill="url(#paint1_linear_451_481)" fill-opacity="0.6"/>
<path d="M40.056 0.568359L69.6582 71.7896L14.3616 0.568359H40.056Z" fill="url(#paint2_linear_451_481)" fill-opacity="0.6"/>
<path d="M99.9443 0.568359L70.342 71.7896L125.639 0.568359H99.9443Z" fill="url(#paint3_linear_451_481)" fill-opacity="0.6"/>
<path d="M-6.10352e-05 19.0332L69.5603 71.8874L-6.10352e-05 43.6529V19.0332Z" fill="url(#paint4_linear_451_481)" fill-opacity="0.6"/>
<path d="M140 19.0332L70.4397 71.8874L140 43.6529V19.0332Z" fill="url(#paint5_linear_451_481)" fill-opacity="0.6"/>
<path d="M-1.52588e-05 63.7793L69.4626 71.9859L-1.52588e-05 83.221V63.7793Z" fill="url(#paint6_linear_451_481)" fill-opacity="0.6"/>
<path d="M140 63.7793L70.5374 71.9859L140 83.221V63.7793Z" fill="url(#paint7_linear_451_481)" fill-opacity="0.6"/>
</g>
<defs>
<linearGradient id="paint0_linear_451_481" x1="70" y1="0.568359" x2="70" y2="142.568" gradientUnits="userSpaceOnUse">
<stop stop-color="#FEF2B8"/>
<stop offset="1" stop-color="#FFFCD9"/>
</linearGradient>
<linearGradient id="paint1_linear_451_481" x1="70.1951" y1="0.568359" x2="70.1951" y2="71.7896" gradientUnits="userSpaceOnUse">
<stop stop-color="white"/>
<stop offset="1" stop-color="#F8EFFF"/>
</linearGradient>
<linearGradient id="paint2_linear_451_481" x1="42.0099" y1="0.568359" x2="42.0099" y2="71.7896" gradientUnits="userSpaceOnUse">
<stop stop-color="white"/>
<stop offset="1" stop-color="#F8EFFF"/>
</linearGradient>
<linearGradient id="paint3_linear_451_481" x1="97.9903" y1="0.568359" x2="97.9903" y2="71.7896" gradientUnits="userSpaceOnUse">
<stop stop-color="white"/>
<stop offset="1" stop-color="#F8EFFF"/>
</linearGradient>
<linearGradient id="paint4_linear_451_481" x1="34.7801" y1="19.0332" x2="34.7801" y2="71.8874" gradientUnits="userSpaceOnUse">
<stop stop-color="white"/>
<stop offset="1" stop-color="#F8EFFF"/>
</linearGradient>
<linearGradient id="paint5_linear_451_481" x1="105.22" y1="19.0332" x2="105.22" y2="71.8874" gradientUnits="userSpaceOnUse">
<stop stop-color="white"/>
<stop offset="1" stop-color="#F8EFFF"/>
</linearGradient>
<linearGradient id="paint6_linear_451_481" x1="34.7313" y1="63.7793" x2="34.7313" y2="83.221" gradientUnits="userSpaceOnUse">
<stop stop-color="white"/>
<stop offset="1" stop-color="#F8EFFF"/>
</linearGradient>
<linearGradient id="paint7_linear_451_481" x1="105.269" y1="63.7793" x2="105.269" y2="83.221" gradientUnits="userSpaceOnUse">
<stop stop-color="white"/>
<stop offset="1" stop-color="#F8EFFF"/>
</linearGradient>
</defs>
</svg>
