<svg width="182" height="170" viewBox="0 0 182 170" fill="none" xmlns="http://www.w3.org/2000/svg">
<g clip-path="url(#clip0_453_646)">
<path d="M0 20C0 8.9543 8.95431 0 20 0H162C173.046 0 182 8.95431 182 20V150C182 161.046 173.046 170 162 170H20C8.9543 170 0 161.046 0 150V20Z" fill="url(#paint0_linear_453_646)"/>
<path d="M0 20C0 8.9543 8.95431 0 20 0H162C173.046 0 182 8.95431 182 20V150C182 161.046 173.046 170 162 170H20C8.9543 170 0 161.046 0 150V20Z" fill="url(#paint1_radial_453_646)"/>
<path d="M0 20C0 8.9543 8.95431 0 20 0H162C173.046 0 182 8.95431 182 20V150C182 161.046 173.046 170 162 170H20C8.9543 170 0 161.046 0 150V20Z" fill="url(#paint2_linear_453_646)" fill-opacity="0.2"/>
<circle cx="-13.5" cy="-39.5" r="73.5" stroke="#F5FFE8" stroke-width="20"/>
<circle cx="90.5" cy="255.5" r="93.5" fill="#FBFFF5" stroke="#EEFFD8" stroke-width="20"/>
</g>
<defs>
<linearGradient id="paint0_linear_453_646" x1="91.9978" y1="191.744" x2="67.8071" y2="-11.9323" gradientUnits="userSpaceOnUse">
<stop stop-color="#F4FEE6"/>
<stop offset="1" stop-color="white"/>
</linearGradient>
<radialGradient id="paint1_radial_453_646" cx="0" cy="0" r="1" gradientUnits="userSpaceOnUse" gradientTransform="translate(170.226 21.25) rotate(118.022) scale(96.8479 221.139)">
<stop stop-color="white" stop-opacity="0.892442"/>
<stop stop-color="white"/>
<stop offset="1" stop-color="white" stop-opacity="0"/>
</radialGradient>
<linearGradient id="paint2_linear_453_646" x1="140.5" y1="37.4316" x2="175" y2="7.43164" gradientUnits="userSpaceOnUse">
<stop stop-color="white"/>
<stop offset="1" stop-color="#E1FFBB"/>
</linearGradient>
<clipPath id="clip0_453_646">
<path d="M0 20C0 8.9543 8.95431 0 20 0H162C173.046 0 182 8.95431 182 20V150C182 161.046 173.046 170 162 170H20C8.9543 170 0 161.046 0 150V20Z" fill="white"/>
</clipPath>
</defs>
</svg>
