<svg width="24" height="24" viewBox="0 0 24 24" fill="none" xmlns="http://www.w3.org/2000/svg">
<g clip-path="url(#clip0_3_1192)">
<path fill-rule="evenodd" clip-rule="evenodd" d="M12.9834 5.73973C13.5882 5.39576 13.9961 4.74552 13.9961 4C13.9961 2.89543 13.1007 2 11.9961 2C10.8915 2 9.99609 2.89543 9.99609 4C9.99609 4.74719 10.4058 5.39868 11.0129 5.74204L11.0039 5.7603C10.3482 7.1269 9.43841 9.08472 8.03273 9.81971C6.87945 10.4227 5.22237 10.1194 3.99243 9.89437C3.93822 9.11523 3.289 8.5 2.49609 8.5C1.66766 8.5 0.996094 9.17157 0.996094 10C0.996094 10.7347 1.52425 11.346 2.22158 11.4749L5.16873 19.0836C5.61614 20.2387 6.72749 21 7.9662 21H16.026C17.2647 21 18.376 20.2387 18.8235 19.0836L21.7706 11.4749C22.4679 11.346 22.9961 10.7347 22.9961 10C22.9961 9.17157 22.3245 8.5 21.4961 8.5C20.7184 8.5 20.0789 9.09184 20.0035 9.8497C18.7444 10.013 17.1212 10.2213 15.9595 9.61383C14.582 8.89361 13.6595 7.07075 12.9834 5.73973ZM12.0215 8.10728C12.7892 9.35273 13.7097 10.6944 15.0327 11.3862C16.3604 12.0804 17.9932 12.0451 19.4534 11.9201L16.9585 18.3612C16.8093 18.7462 16.4389 19 16.026 19H7.9662C7.55329 19 7.18285 18.7462 7.03371 18.3612L4.57284 12.008C6.01197 12.1916 7.64003 12.2819 8.95945 11.5921C10.3366 10.872 11.2591 9.42043 12.0215 8.10728Z" fill="#546680"/>
</g>
<defs>
<clipPath id="clip0_3_1192">
<rect width="24" height="24" fill="white"/>
</clipPath>
</defs>
</svg>
