<svg width="24" height="24" viewBox="0 0 24 24" fill="none" xmlns="http://www.w3.org/2000/svg">
<path d="M19.6803 7.56419C19.6803 6.34463 19.1958 5.17502 18.3334 4.31265C17.4711 3.45028 16.3015 2.96582 15.0819 2.96582H8.91875C7.69918 2.96582 6.52957 3.45028 5.66721 4.31265C4.80484 5.17502 4.32031 6.34463 4.32031 7.56419" stroke="#546680" stroke-width="1.5" stroke-linecap="round" stroke-linejoin="round"/>
<path d="M4.31835 7.56445V19.5837C4.2958 19.7743 4.33887 19.9669 4.4404 20.1298C4.54192 20.2926 4.69587 20.4161 4.87692 20.4798C5.05798 20.5436 5.25533 20.5437 5.43649 20.4802C5.61765 20.4168 5.77182 20.2936 5.8736 20.1309L7.57276 17.3661C7.63473 17.2528 7.7233 17.1562 7.83087 17.0847C7.93843 17.0133 8.06181 16.969 8.19028 16.9558C8.31875 16.9426 8.44846 16.9607 8.56832 17.0088C8.6882 17.0569 8.79459 17.1334 8.87835 17.2317L11.2783 19.9293C11.3685 20.0314 11.4792 20.1132 11.6034 20.1693C11.7275 20.2253 11.8622 20.2543 11.9983 20.2543C12.1345 20.2543 12.2692 20.2253 12.3934 20.1693C12.5175 20.1132 12.6283 20.0314 12.7183 19.9293L15.1183 17.2317C15.2021 17.1334 15.3085 17.0569 15.4284 17.0088C15.5482 16.9607 15.678 16.9426 15.8064 16.9558C15.9349 16.969 16.0583 17.0133 16.1659 17.0847C16.2734 17.1562 16.362 17.2528 16.424 17.3661L18.1231 20.1309C18.225 20.2936 18.3791 20.4168 18.5603 20.4802C18.7415 20.5437 18.9387 20.5436 19.1198 20.4798C19.3008 20.4161 19.4548 20.2926 19.5564 20.1298C19.6579 19.9669 19.7009 19.7743 19.6783 19.5837V7.56445" stroke="#546680" stroke-width="1.5" stroke-linecap="round" stroke-linejoin="round"/>
</svg>
