<svg width="35" height="35" viewBox="0 0 35 35" fill="none" xmlns="http://www.w3.org/2000/svg">
<path d="M13.3835 24.6273H8.57304C6.79026 24.6273 5.89888 24.6273 5.71133 24.4889C5.50063 24.3333 5.44915 24.2415 5.42633 23.9807C5.40603 23.7485 5.95235 22.8545 7.04502 21.0666C8.17319 19.2206 9.13114 16.5327 9.13114 12.7273C9.13114 10.6232 10.0267 8.60536 11.6207 7.11756C13.2148 5.62978 15.3768 4.79395 17.6311 4.79395C19.8855 4.79395 22.0474 5.62978 23.6415 7.11756C25.2356 8.60536 26.1311 10.6232 26.1311 12.7273C26.1311 16.5327 27.0891 19.2206 28.2173 21.0666C29.3098 22.8545 29.8562 23.7485 29.836 23.9807C29.8132 24.2415 29.7616 24.3333 29.551 24.4889C29.3634 24.6273 28.472 24.6273 26.6893 24.6273H21.8811M13.3835 24.6273L13.3811 26.0439C13.3811 28.3912 15.284 30.2939 17.6311 30.2939C19.9784 30.2939 21.8811 28.3912 21.8811 26.0439V24.6273M13.3835 24.6273H21.8811" stroke="#223A74" stroke-width="2.83333" stroke-linecap="round" stroke-linejoin="round"/>
</svg>
